<svg enable-background="new 0 0 300 100" viewBox="0 0 300 100" xmlns="http://www.w3.org/2000/svg"><g transform="translate(-470 -3768)"><path d="m485.55 3773.57h74.24v88.87h-74.24z" fill="#007cba"/><path d="m537.26 3809.83h5.97l-1.23-4.26h-3.39l3.01-8.87 6.27 18.84h5.34l-9.28-24.74h-4.92l-9.28 24.74h5.54z" fill="#fff"/><path d="m498.12 3805.34h6.96v-4.44h-6.96v-5.67h20.92c.92.01 1.83.18 2.68.52.8.34 1.51.88 2.06 1.56.56.73.96 1.58 1.16 2.48.25 1.07.38 2.17.36 3.27.01 1.12-.13 2.23-.42 3.31-.25.93-.69 1.8-1.3 2.54s-1.41 1.3-2.3 1.65c-1.1.41-2.26.6-3.43.57h-3.33v-10.2h-5.16v14.6h8.39c1.83.03 3.65-.24 5.4-.8 3.06-.95 5.51-3.29 6.6-6.31.62-1.73.92-3.57.88-5.41 0-4.04-1.06-7.09-3.17-9.15-2.16-1.98-4.99-3.08-7.93-3.08h-26.58v24.74h5.16v-10.18z" fill="#fff"/><g fill="#1c162e" transform="translate(554.876 3791.036)"><path d="m20.01 5.75c3.25 0 4.92 1.21 4.92 3.6.04 1.34-.78 2.55-2.03 3.01 1.52.33 2.58 1.72 2.47 3.27 0 2.09-1.33 3.98-4.92 3.98h-4.9v-13.86zm-2.13 5.67h2.27c1.73 0 2.45-.78 2.45-1.93 0-1.08-.54-1.73-2.75-1.73h-1.97zm0 6.18h2.43c1.87 0 2.73-.76 2.73-2.09 0-1.47-.96-2.09-3.01-2.09h-2.15z"/><path d="m35.34 19.61-2.67-5.62h-2.69v5.62h-2.33v-13.86h4.72c3.19 0 5.1 1.39 5.1 4.14.12 1.67-.91 3.21-2.51 3.72l2.95 6.01zm-3.14-7.64c1.97 0 2.93-.52 2.93-2.09s-.96-2.11-2.93-2.11h-2.23v4.2z"/><path d="m48.41 5.75v2.03h-6.17v3.65h5.57v2.01h-5.57v4.16h6.17v2.01h-8.5v-13.86z"/><path d="m49.13 19.61 4.82-13.86h2.21l4.82 13.86h-2.47l-.94-2.87h-5l-.94 2.87zm4.08-4.88h3.7l-1.85-5.6z"/><path d="m70.96 19.61-4.02-6.33-2.05 2.63v3.7h-2.33v-13.86h2.33v6.69l5.1-6.69h2.85l-4.38 5.59 5.28 8.28z"/><path d="m84.22 5.75v2.03h-3.98v11.83h-2.33v-11.83h-4v-2.03z"/><path d="m88.21 11.43h5.3v-5.68h2.33v13.86h-2.33v-6.17h-5.3v6.17h-2.33v-13.86h2.33z"/><path d="m106.59 19.61-2.67-5.62h-2.69v5.62h-2.33v-13.86h4.72c3.19 0 5.1 1.39 5.1 4.14.12 1.67-.91 3.21-2.51 3.72l2.95 6.01zm-3.13-7.64c1.97 0 2.93-.52 2.93-2.09s-.96-2.11-2.93-2.11h-2.23v4.2z"/><path d="m115.74 19.79c-3.09 0-5.18-1.87-5.18-6.23v-1.77c0-4.36 2.09-6.23 5.18-6.23 3.11 0 5.2 1.87 5.2 6.23v1.77c.01 4.36-2.08 6.23-5.2 6.23zm-2.85-6.23c0 2.99 1 4.2 2.85 4.2s2.87-1.21 2.87-4.2v-1.77c0-2.99-1.02-4.2-2.87-4.2s-2.85 1.2-2.85 4.2z"/><path d="m133.8 5.75v8.24c0 4.1-2.11 5.8-5.18 5.8s-5.18-1.71-5.18-5.79v-8.26h2.33v8.26c0 2.65.95 3.76 2.85 3.76 1.91 0 2.85-1.1 2.85-3.76v-8.26z"/><path d="m146.57 12.5v1.07c0 4.36-1.99 6.23-5.1 6.23-3.1 0-5.18-1.87-5.18-6.23v-1.67c0-4.46 2.09-6.33 5.18-6.33 2.81 0 4.6 1.57 5.04 4.48h-2.25c-.11-1.44-1.35-2.53-2.79-2.45-1.85 0-2.85 1.2-2.85 4.2v1.77c0 2.99 1 4.2 2.85 4.2 1.77 0 2.65-1.04 2.81-3.23h-2.75v-2.04z"/><path d="m151.39 11.43h5.3v-5.68h2.33v13.86h-2.33v-6.17h-5.3v6.17h-2.33v-13.86h2.33z"/><path d="m15.55 43.7v-13.85h4.68c3.11 0 5.2 1.67 5.2 6.11v1.65c0 4.44-2.09 6.11-5.2 6.11zm7.56-6.1v-1.65c0-2.85-.88-4.08-2.87-4.08h-2.35v9.82h2.35c1.98.01 2.87-1.24 2.87-4.09z"/><path d="m36.42 29.85v2.03h-6.17v3.65h5.57v2.01h-5.57v4.16h6.17v2.01h-8.5v-13.86z"/><path d="m39.77 29.85 3.42 10.15 3.46-10.15h2.55l-4.93 13.85h-2.13l-4.92-13.86z"/><path d="m53.37 43.7h-2.33v-13.85h2.33z"/><path d="m64.01 34.15c-.36-1.69-1.27-2.45-2.79-2.45-1.85 0-2.85 1.2-2.85 4.2v1.76c0 2.95 1 4.2 2.85 4.2 1.59 0 2.43-.76 2.79-2.45h2.23c-.46 3.12-2.27 4.48-5.02 4.48-3.09 0-5.18-1.87-5.18-6.23v-1.77c0-4.36 2.09-6.23 5.18-6.23 2.75 0 4.58 1.47 5.04 4.48z"/><path d="m76.89 29.85v2.03h-6.17v3.65h5.57v2.01h-5.57v4.16h6.17v2.01h-8.5v-13.86z"/><path d="m84.11 43.7v-13.85h4.68c3.11 0 5.2 1.67 5.2 6.11v1.65c0 4.44-2.09 6.11-5.2 6.11zm7.56-6.1v-1.65c0-2.85-.88-4.08-2.87-4.08h-2.35v9.82h2.35c1.98.01 2.87-1.24 2.87-4.09z"/><path d="m104.98 29.85v2.03h-6.17v3.65h5.57v2.01h-5.57v4.16h6.17v2.01h-8.5v-13.86z"/><path d="m114.4 33.2c-.64-1.02-1.79-1.6-2.99-1.51-1.43 0-2.27.64-2.27 1.81 0 1.33 1.04 1.85 2.97 2.27 2.79.6 4.24 1.65 4.24 4.14 0 2.07-1.39 3.98-4.72 3.98-2 .17-3.95-.68-5.18-2.27l1.83-1.27c.75 1.02 1.97 1.59 3.23 1.51 1.91 0 2.51-.84 2.51-1.85 0-1.11-.62-1.79-3.03-2.31-2.67-.56-4.18-1.85-4.18-4.2 0-2.09 1.37-3.84 4.62-3.84 1.88-.16 3.69.71 4.74 2.27z"/><path d="m121.23 43.7h-2.33v-13.85h2.33z"/><path d="m134.18 36.6v1.06c0 4.36-1.99 6.23-5.1 6.23-3.09 0-5.18-1.87-5.18-6.23v-1.67c0-4.46 2.09-6.33 5.18-6.33 2.81 0 4.6 1.57 5.04 4.48h-2.25c-.11-1.44-1.35-2.53-2.79-2.45-1.85 0-2.85 1.2-2.85 4.2v1.77c0 2.99 1 4.2 2.85 4.2 1.77 0 2.65-1.04 2.81-3.23h-2.75v-2.03z"/><path d="m146.63 29.85v13.85h-2.07l-5.65-9.42v9.42h-2.25v-13.85h2.01l5.71 9.54v-9.54z"/><path d="m148.2 43.7 4.82-13.86h2.21l4.82 13.86h-2.47l-.95-2.87h-5l-.95 2.87zm4.07-4.88h3.7l-1.85-5.61z"/><path d="m169.87 29.85v2.03h-3.98v11.82h-2.33v-11.82h-4v-2.03z"/><path d="m174.06 43.7h-2.33v-13.85h2.33z"/><path d="m181.91 43.89c-3.09 0-5.18-1.87-5.18-6.23v-1.77c0-4.36 2.09-6.23 5.18-6.23 3.11 0 5.2 1.87 5.2 6.23v1.76c.01 4.37-2.08 6.24-5.2 6.24zm-2.85-6.23c0 2.99 1 4.2 2.85 4.2s2.87-1.21 2.87-4.2v-1.77c0-2.99-1.02-4.2-2.87-4.2s-2.85 1.2-2.85 4.2z"/><path d="m199.57 29.85v13.85h-2.07l-5.65-9.42v9.42h-2.25v-13.85h2.01l5.71 9.54v-9.54z"/></g></g></svg>