<svg enable-background="new 0 0 300 100" viewBox="0 0 300 100" xmlns="http://www.w3.org/2000/svg"><path d="m75.09 86.74c-.23.16-.58.07-.76.34-.48 0-.97 0-1.45 0-.91-.46-1.6-1.2-2.31-1.91-8.09-8.12-16.19-16.23-24.27-24.37-2.61-2.63-5.33-5.15-7.44-8.23-3.51-5.12-5.46-10.7-5.15-16.98.52-10.69 8.82-20.16 19.35-22.09 7.81-1.43 14.77.63 20.95 5.33 5.17 3.92 10.13 8.13 15.19 12.2 1.25 1.01 2.51 2.02 3.76 3.04 1.35 1.1 1.59 2.79.58 4.05-1.03 1.29-2.76 1.44-4.15.32-5.97-4.82-11.92-9.67-17.91-14.47-4.18-3.35-8.88-5.36-14.34-5.28-8.33.13-16.03 6.69-17.49 14.87-1.08 6.06.7 11.37 4.2 16.25 1.1 1.53 2.37 2.91 3.7 4.24 8.32 8.35 16.64 16.7 24.96 25.04.77.77 1.44 1.66 2.37 2.26.11.35.42.54.66.78.71.71.97 1.55.89 2.54-.07.84-.67 1.35-1.13 1.96 0 0 .01-.01.01-.01-.06.04-.14.08-.22.12z" fill="#8a2042"/><path d="m75.31 86.63c.46-.6 1.06-1.11 1.13-1.96.08-.99-.18-1.83-.89-2.54-.24-.24-.55-.43-.66-.78 3.2-3.21 6.4-6.42 9.61-9.62 5.79-5.78 11.59-11.55 17.38-17.33.04-.04.05-.09.08-.14 1.11-.8 1.92-1.9 2.83-2.9 3.86-4.39 6.29-9.38 6.31-15.33.02-8.95-6.76-16.95-15.6-18.49-5.29-.92-10.11.34-14.63 3.05-.43.26-.84.58-1.37.66-1.11.17-2.08-.37-2.46-1.36-.38-1-.05-2.05.9-2.67 2.26-1.47 4.68-2.61 7.28-3.37 13.46-3.95 27.06 4.14 29.85 17.85 1.27 6.27-.11 12.13-3.31 17.61-1.46 2.49-3.24 4.73-5.28 6.77-9.94 9.91-19.89 19.83-29.83 29.74-.4.37-.72.84-1.34.81z" fill="#f59f1c"/><path d="m104.79 51.36c-.91 1-1.72 2.1-2.83 2.9-2.85-.01-5.7-.01-8.54-.02-1.5 0-1.76-.19-2.27-1.62-.17-.47-.34-.93-.58-1.58-.34 1.29-.64 2.37-.9 3.45-.2.82-.44 1.59-1.45 1.67-.95.07-1.39-.55-1.72-1.53-.49 1.66-.93 3.15-1.36 4.64-.24.82-.48 1.65-.72 2.47-.22.76-.71 1.19-1.52 1.17-.74-.02-1.23-.46-1.37-1.33-.64-3.99-1.26-7.99-1.88-11.98-.19-1.2-.38-2.4-.75-3.61-.5 1.81-1 3.63-1.49 5.44-.67 2.5-.67 2.5-3.25 2.5-5.02-.01-10.05-.03-15.07-.01-.59 0-.83-.12-.77-.75.07-.69-.2-1.59.14-2.02.37-.45 1.31-.14 2-.14 4.41 0 8.81 0 13.22.03.59 0 .87-.11 1.04-.75 1.03-3.96 2.11-7.91 3.19-11.86.31-1.14 1.18-1.64 2.09-1.22.57.26.79.76.88 1.35.39 2.54.79 5.08 1.18 7.62.43 2.78.87 5.55 1.41 8.34.43-1.45.88-2.9 1.28-4.36.21-.78.52-1.44 1.42-1.52.85-.08 1.32.46 1.66 1.29.36-1.39.7-2.65 1.02-3.91.19-.76.54-1.35 1.41-1.42.77-.06 1.26.33 1.6 1.29.57 1.59 1.15 3.17 1.66 4.77.18.57.47.71 1.03.7 3.41-.02 6.82 0 10.24 0z" fill="#8b2043"/><path d="m75.09 86.74c.08-.04.15-.09.23-.13-.02.15-.12.14-.23.13z" fill="#f59f1c"/><path d="m120.97 76.55c.69-.14 1.69-.23 2.63-.23 1.45 0 2.41.28 3.06.87.52.46.83 1.18.83 2.01 0 1.39-.89 2.31-1.99 2.69v.04c.81.28 1.29 1.05 1.55 2.14.35 1.48.6 2.49.81 2.9h-1.42c-.17-.31-.41-1.21-.69-2.53-.31-1.45-.89-2.01-2.12-2.05h-1.29v4.58h-1.36v-10.42zm1.37 4.81h1.4c1.46 0 2.39-.8 2.39-2.01 0-1.37-.99-1.97-2.43-1.97-.66 0-1.12.06-1.35.12v3.86z"/><path d="m136.3 83.11c0 2.81-1.95 4.04-3.77 4.04-2.06 0-3.65-1.5-3.65-3.91 0-2.54 1.67-4.02 3.77-4.02 2.18 0 3.65 1.58 3.65 3.89zm-6.01.09c0 1.66.95 2.92 2.3 2.92 1.32 0 2.31-1.24 2.31-2.96 0-1.28-.65-2.91-2.29-2.91-1.62 0-2.32 1.51-2.32 2.95z"/><path d="m144.39 84.9c0 .8.03 1.48.06 2.08h-1.22l-.07-1.24h-.04c-.35.61-1.15 1.41-2.51 1.41-1.19 0-2.61-.67-2.61-3.33v-4.43h1.37v4.19c0 1.44.45 2.43 1.7 2.43.92 0 1.57-.65 1.83-1.27.07-.2.13-.45.13-.71v-4.65h1.37v5.52z"/><path d="m146.69 81.44c0-.79-.03-1.42-.06-2.05h1.22l.08 1.25h.04c.37-.71 1.26-1.42 2.51-1.42 1.04 0 2.67.63 2.67 3.23v4.53h-1.37v-4.37c0-1.23-.46-2.25-1.75-2.25-.91 0-1.61.64-1.86 1.42-.06.17-.1.41-.1.64v4.57h-1.37v-5.55z"/><path d="m161.94 75.84v9.18c0 .67.03 1.43.06 1.96h-1.23l-.07-1.31h-.04c-.42.85-1.33 1.48-2.57 1.48-1.84 0-3.26-1.55-3.26-3.85-.01-2.54 1.56-4.08 3.41-4.08 1.16 0 1.95.55 2.29 1.15h.03v-4.53zm-1.37 6.64c0-.18-.02-.41-.06-.59-.21-.87-.96-1.59-2-1.59-1.43 0-2.28 1.25-2.28 2.92 0 1.54.77 2.82 2.26 2.82.92 0 1.76-.62 2.02-1.66.05-.18.07-.38.07-.59v-1.31z"/><path d="m165.9 77.21v2.18h1.98v1.05h-1.98v4.09c0 .94.27 1.48 1.04 1.48.36 0 .62-.04.8-.1l.06 1.05c-.27.11-.7.19-1.23.19-.63 0-1.16-.21-1.49-.58-.38-.42-.54-1.09-.54-1.98v-4.14h-1.17v-1.05h1.17v-1.83z"/><path d="m173.64 86.98-.12-.96h-.04c-.42.59-1.23 1.13-2.32 1.13-1.53 0-2.32-1.09-2.32-2.18 0-1.84 1.63-2.85 4.56-2.83v-.16c0-.62-.17-1.76-1.73-1.75-.71 0-1.44.21-1.98.57l-.31-.92c.63-.41 1.55-.67 2.5-.67 2.32 0 2.88 1.59 2.88 3.11v2.84c0 .65.03 1.29.11 1.82zm-.22-3.87c-1.49-.03-3.2.24-3.2 1.7 0 .91.6 1.32 1.29 1.32 1 0 1.63-.63 1.85-1.27.05-.15.07-.3.07-.43v-1.32z"/><path d="m176.93 86.98c.04-.52.06-1.28.06-1.96v-9.18h1.37v4.77h.03c.48-.85 1.36-1.39 2.59-1.39 1.89 0 3.21 1.57 3.2 3.86 0 2.72-1.72 4.07-3.42 4.07-1.09 0-1.97-.43-2.54-1.42h-.04l-.07 1.25zm1.43-3.04c0 .17.02.34.06.5.26.96 1.07 1.62 2.07 1.62 1.45 0 2.3-1.17 2.3-2.92 0-1.53-.79-2.83-2.26-2.83-.94 0-1.81.65-2.09 1.7-.04.17-.08.35-.08.57z"/><path d="m185.92 75.84h1.37v11.14h-1.37z"/><path d="m190.39 83.44c.03 1.87 1.21 2.63 2.6 2.63.99 0 1.59-.18 2.1-.39l.24.98c-.48.22-1.33.48-2.53.48-2.33 0-3.73-1.55-3.73-3.83 0-2.3 1.35-4.1 3.57-4.1 2.48 0 3.12 2.17 3.12 3.57 0 .29-.02.5-.05.65h-5.32zm4.04-1c.01-.87-.36-2.23-1.9-2.23-1.41 0-2.01 1.27-2.12 2.23z"/><g fill="#8a2042"><path d="m121.09 25.24v-11.58h1.64l3.71 5.85c.85 1.36 1.52 2.57 2.07 3.77l.04-.02c-.14-1.55-.16-2.96-.16-4.75v-4.85h1.41v11.58h-1.52l-3.68-5.87c-.8-1.3-1.58-2.62-2.15-3.88l-.05.02c.09 1.47.11 2.86.11 4.78v4.95z"/><path d="m136.95 25.24-.13-1.05h-.05c-.46.65-1.35 1.24-2.54 1.24-1.68 0-2.54-1.19-2.54-2.38 0-2.01 1.78-3.12 4.99-3.09v-.18c0-.68-.19-1.93-1.89-1.92-.77 0-1.58.23-2.16.62l-.34-1c.69-.44 1.69-.73 2.74-.73 2.54 0 3.16 1.74 3.16 3.4v3.11c0 .71.03 1.42.13 1.99h-1.37zm-.23-4.24c-1.63-.03-3.51.26-3.51 1.87 0 .99.65 1.45 1.41 1.45 1.09 0 1.78-.69 2.02-1.39.05-.16.07-.33.07-.48v-1.45z"/><path d="m142.37 14.54v2.39h2.17v1.14h-2.17v4.48c0 1.03.3 1.62 1.14 1.62.39 0 .68-.05.88-.11l.07 1.15c-.29.12-.76.21-1.35.21-.69 0-1.27-.23-1.63-.64-.42-.46-.59-1.19-.59-2.17v-4.54h-1.29v-1.14h1.29v-2z"/><path d="m147.94 14.58c0 .51-.36.94-.96.94-.55 0-.91-.42-.91-.94s.39-.94.94-.94c.56.01.92.42.93.94zm-1.69 10.66v-8.31h1.5v8.31z"/><path d="m157.79 21.01c0 3.08-2.13 4.42-4.13 4.42-2.25 0-3.99-1.64-3.99-4.28 0-2.78 1.83-4.41 4.12-4.41 2.39 0 4 1.74 4 4.27zm-6.59.09c0 1.82 1.04 3.19 2.52 3.19 1.45 0 2.53-1.35 2.53-3.24 0-1.41-.71-3.18-2.5-3.18-1.78.01-2.55 1.66-2.55 3.23z"/><path d="m159.7 19.18c0-.87-.03-1.56-.07-2.24h1.34l.08 1.37h.04c.41-.78 1.37-1.56 2.75-1.56 1.14 0 2.93.69 2.93 3.54v4.96h-1.5v-4.79c0-1.34-.51-2.47-1.92-2.47-.99 0-1.76.7-2.04 1.55-.06.18-.1.45-.1.7v5.01h-1.5v-6.07z"/><path d="m173.84 25.24-.13-1.05h-.04c-.46.65-1.35 1.24-2.54 1.24-1.68 0-2.54-1.19-2.54-2.38 0-2.01 1.78-3.12 4.99-3.09v-.18c0-.68-.19-1.93-1.89-1.92-.77 0-1.58.23-2.16.62l-.34-1c.69-.44 1.69-.73 2.74-.73 2.54 0 3.16 1.74 3.16 3.4v3.11c0 .71.03 1.42.13 1.99h-1.38zm-.23-4.24c-1.63-.03-3.51.26-3.51 1.87 0 .99.65 1.45 1.41 1.45 1.09 0 1.78-.69 2.02-1.39.05-.16.07-.33.07-.48v-1.45z"/><path d="m177.52 13.04h1.5v12.2h-1.5z"/><path d="m124.76 29.13v6.7h6.49v-6.7h3.94v17.41h-3.94v-7.28h-6.49v7.28h-3.94v-17.41z"/><path d="m140.66 33.9 1.89 6.21c.22.74.46 1.69.63 2.35h.08c.18-.68.38-1.62.56-2.35l1.56-6.21h4.19l-2.93 8.32c-1.81 5.02-3.02 7.02-4.45 8.29-1.35 1.19-2.8 1.62-3.78 1.73l-.84-3.31c.5-.09 1.11-.32 1.71-.67.6-.32 1.25-.95 1.62-1.58.13-.2.22-.4.22-.57 0-.15-.03-.34-.17-.65l-4.63-11.56z"/><path d="m150.46 38.14c0-1.66-.05-3.06-.1-4.25h3.42l.18 1.77h.05c.94-1.33 2.38-2.05 4.21-2.05 2.77 0 5.25 2.4 5.25 6.44 0 4.61-2.94 6.77-5.75 6.77-1.51 0-2.72-.61-3.28-1.44h-.05v6.27h-3.93zm3.93 2.99c0 .29.02.57.08.82.25 1.05 1.16 1.86 2.3 1.86 1.7 0 2.71-1.43 2.71-3.58 0-2.01-.9-3.55-2.65-3.55-1.11 0-2.11.84-2.35 1.99-.06.22-.09.46-.09.7z"/><path d="m168.24 41.48c.12 1.63 1.73 2.41 3.56 2.41 1.33 0 2.42-.18 3.48-.54l.53 2.66c-1.31.53-2.89.8-4.58.8-4.28 0-6.74-2.49-6.74-6.43 0-3.21 2-6.76 6.37-6.76 4.1 0 5.64 3.18 5.64 6.31 0 .68-.07 1.27-.14 1.56h-8.12zm4.61-2.69c.01-.95-.42-2.56-2.2-2.56-1.66 0-2.33 1.52-2.44 2.56z"/><path d="m178.07 38.06c0-1.86-.03-3.08-.1-4.17h3.38l.14 2.34h.1c.65-1.85 2.19-2.62 3.41-2.62.36 0 .55.01.84.07v3.7c-.3-.06-.62-.11-1.06-.11-1.44 0-2.43.77-2.69 2-.05.25-.07.56-.07.87v6.4h-3.94v-8.48z"/><path d="m192.04 30.29v3.61h2.83v2.9h-2.83v4.58c0 1.52.38 2.23 1.55 2.23.51 0 .9-.05 1.17-.12l.03 2.99c-.51.18-1.45.34-2.55.34-1.27 0-2.33-.44-2.96-1.1-.73-.75-1.09-1.95-1.09-3.75v-5.17h-1.68v-2.9h1.68v-2.72z"/><path d="m199.26 41.48c.12 1.63 1.73 2.41 3.56 2.41 1.33 0 2.42-.18 3.48-.54l.53 2.66c-1.31.53-2.89.8-4.58.8-4.28 0-6.74-2.49-6.74-6.43 0-3.21 2-6.76 6.37-6.76 4.1 0 5.64 3.18 5.64 6.31 0 .68-.07 1.27-.14 1.56h-8.12zm4.61-2.69c.01-.95-.42-2.56-2.2-2.56-1.66 0-2.33 1.52-2.44 2.56z"/><path d="m209.09 37.93c0-1.57-.05-2.91-.1-4.04h3.41l.18 1.75h.08c.51-.81 1.8-2.04 3.91-2.04 2.58 0 4.52 1.72 4.52 5.44v7.48h-3.94v-7.01c0-1.63-.58-2.74-2-2.74-1.08 0-1.72.76-1.99 1.48-.1.25-.14.62-.14.97v7.29h-3.94v-8.58z"/><path d="m223.44 43.11c.72.44 2.23.94 3.37.94 1.19 0 1.69-.4 1.69-1.04 0-.65-.4-.97-1.86-1.46-2.63-.86-3.62-2.29-3.6-3.78 0-2.37 2-4.16 5.14-4.16 1.48 0 2.79.35 3.56.74l-.68 2.71c-.57-.3-1.67-.71-2.74-.71-.96 0-1.51.38-1.51 1.02 0 .6.5.92 2.05 1.46 2.4.81 3.4 2.05 3.42 3.89 0 2.36-1.84 4.1-5.46 4.1-1.65 0-3.13-.37-4.09-.89z"/><path d="m237.93 30.39c.01 1.09-.8 1.96-2.11 1.96-1.24 0-2.05-.87-2.05-1.96 0-1.12.82-1.97 2.08-1.97 1.27 0 2.07.84 2.08 1.97zm-4.04 16.15v-12.64h3.94v12.64z"/><path d="m252.66 40.09c0 4.62-3.27 6.73-6.66 6.73-3.68 0-6.53-2.43-6.53-6.51s2.69-6.7 6.75-6.7c3.86 0 6.44 2.66 6.44 6.48zm-9.14.13c0 2.16.91 3.79 2.59 3.79 1.53 0 2.5-1.53 2.5-3.81 0-1.86-.72-3.78-2.5-3.78-1.88 0-2.59 1.93-2.59 3.8z"/><path d="m254.32 37.93c0-1.57-.05-2.91-.1-4.04h3.41l.18 1.75h.08c.51-.81 1.8-2.04 3.91-2.04 2.58 0 4.52 1.72 4.52 5.44v7.48h-3.94v-7.01c0-1.63-.58-2.74-2-2.74-1.08 0-1.72.76-1.99 1.48-.1.25-.14.62-.14.97v7.29h-3.94v-8.58z"/><path d="m133.59 69.79c-.7.35-2.35.75-4.45.75-6.03 0-9.14-3.77-9.14-8.73 0-5.94 4.25-9.22 9.51-9.22 2.05 0 3.6.4 4.29.77l-.8 3.11c-.78-.34-1.9-.65-3.31-.65-3.11 0-5.54 1.89-5.54 5.76 0 3.49 2.06 5.68 5.56 5.68 1.21 0 2.51-.24 3.29-.56z"/><path d="m147.25 63.82c0 4.62-3.27 6.73-6.66 6.73-3.68 0-6.53-2.43-6.53-6.51s2.69-6.7 6.75-6.7c3.87 0 6.44 2.66 6.44 6.48zm-9.14.13c0 2.16.91 3.79 2.59 3.79 1.53 0 2.5-1.53 2.5-3.81 0-1.86-.72-3.78-2.5-3.78-1.87 0-2.59 1.93-2.59 3.8z"/><path d="m148.91 61.66c0-1.57-.05-2.91-.1-4.04h3.41l.18 1.75h.08c.51-.81 1.8-2.04 3.91-2.04 2.58 0 4.52 1.72 4.52 5.44v7.48h-3.94v-7.01c0-1.63-.58-2.74-2-2.74-1.08 0-1.72.76-1.99 1.48-.1.25-.14.62-.14.97v7.29h-3.94v-8.58z"/><path d="m167.5 54.02v3.61h2.83v2.9h-2.83v4.58c0 1.52.38 2.23 1.55 2.23.51 0 .9-.05 1.17-.12l.03 2.99c-.51.18-1.45.34-2.55.34-1.27 0-2.33-.44-2.96-1.1-.73-.75-1.09-1.95-1.09-3.75v-5.17h-1.68v-2.9h1.68v-2.72z"/><path d="m171.82 61.79c0-1.86-.03-3.08-.1-4.17h3.38l.14 2.34h.1c.65-1.85 2.19-2.62 3.41-2.62.36 0 .55.01.84.07v3.7c-.3-.06-.62-.11-1.06-.11-1.44 0-2.43.77-2.69 2-.05.25-.07.56-.07.87v6.4h-3.94v-8.48z"/><path d="m193.12 63.82c0 4.62-3.27 6.73-6.66 6.73-3.68 0-6.53-2.43-6.53-6.51s2.69-6.7 6.75-6.7c3.87 0 6.44 2.66 6.44 6.48zm-9.14.13c0 2.16.91 3.79 2.59 3.79 1.53 0 2.5-1.53 2.5-3.81 0-1.86-.72-3.78-2.5-3.78-1.87 0-2.59 1.93-2.59 3.8z"/><path d="m194.78 51.93h3.94v18.34h-3.94z"/></g></svg>