<svg enable-background="new 0 0 300 100" viewBox="0 0 300 100" xmlns="http://www.w3.org/2000/svg"><path d="m44.18 30.61c0 2.8-2.28 5.07-5.09 5.07-2.81.01-5.11-2.26-5.11-5.06-.01-2.79 2.29-5.08 5.09-5.08 2.8.01 5.11 2.29 5.11 5.07z" fill="#194577"/><path d="m48.08 69.33c.01-2.82 2.31-5.07 5.13-5.04 2.77.03 5.01 2.29 5.02 5.05.01 2.83-2.27 5.12-5.08 5.11-2.83-.01-5.08-2.28-5.07-5.12z" fill="#f6941f"/><path d="m24.91 74.44c-2.8-.04-5.11-2.38-5.06-5.13.05-2.78 2.38-5.05 5.18-5.02s5.1 2.36 5.06 5.13c-.04 2.78-2.39 5.06-5.18 5.02z" fill="#2a5591"/><path d="m33.05 56.29c-.03 2.77-2.27 5-5.05 5.02-2.86.02-5.15-2.31-5.1-5.21.04-2.75 2.36-4.99 5.11-4.96 2.81.04 5.06 2.34 5.04 5.15z" fill="#2a5591"/><path d="m46.03 38.38c2.83-.01 5.13 2.24 5.14 5.03.01 2.77-2.3 5.08-5.09 5.09-2.81.01-5.12-2.26-5.13-5.05-.02-2.78 2.27-5.06 5.08-5.07z" fill="#2a5591"/><path d="m45.04 56.19c.01-2.72 2.34-5.04 5.06-5.05 2.79-.01 5.16 2.3 5.18 5.06.03 2.74-2.33 5.09-5.13 5.12-2.75.03-5.13-2.36-5.11-5.13z" fill="#5080c0"/><path d="m26.98 43.41c.01-2.84 2.26-5.06 5.13-5.03 2.87.02 5.05 2.25 5.03 5.13-.03 2.77-2.28 4.99-5.06 5-2.83 0-5.1-2.27-5.1-5.1z" fill="#2a5591"/><path d="m23.19 43.45c-.01 2.81-2.3 5.07-5.13 5.05-2.78-.02-5.01-2.26-5.03-5.03-.02-2.86 2.2-5.09 5.07-5.09 2.85-.01 5.09 2.23 5.09 5.07z" fill="#2a5591"/><path d="m60.04 38.39c2.84-.01 5.13 2.25 5.13 5.05 0 2.79-2.33 5.07-5.15 5.06-2.79-.02-5.13-2.38-5.08-5.14.03-2.75 2.31-4.96 5.1-4.97z" fill="#5080c0"/><path d="m39.09 59.51c2.74 0 5.06 2.27 5.1 5 .04 2.85-2.32 5.2-5.18 5.16-2.76-.04-5.03-2.32-5.03-5.06-.01-2.81 2.29-5.1 5.11-5.1z" fill="#5080c0"/><g fill="#285591"><path d="m78.44 39.17h1.36l3.75 6.51 1.12 2.14h.06c-.07-1.05-.17-2.21-.17-3.3v-5.36h1.25v10.36h-1.36l-3.75-6.52-1.12-2.14h-.06c.07 1.05.17 2.15.17 3.24v5.42h-1.25z"/><path d="m88.06 47.54c0-1.67 1.44-2.51 4.71-2.86 0-.99-.33-1.94-1.58-1.94-.89 0-1.69.42-2.29.82l-.51-.89c.71-.46 1.78-1 3.01-1 1.87 0 2.66 1.24 2.66 3.15v4.71h-1.06l-.11-.92h-.04c-.73.61-1.59 1.11-2.54 1.11-1.29 0-2.25-.8-2.25-2.18zm4.71.12v-2.13c-2.57.31-3.44.94-3.44 1.92 0 .87.59 1.23 1.34 1.23s1.36-.36 2.1-1.02z"/><path d="m96.5 47.16v-4.24h-1.14v-.98l1.2-.07.16-2.15h1.08v2.15h2.08v1.06h-2.08v4.26c0 .94.3 1.48 1.19 1.48.27 0 .62-.1.87-.21l.25.98c-.43.15-.94.28-1.42.28-1.64 0-2.19-1.03-2.19-2.56z"/><path d="m101.37 39.45c0-.51.39-.84.9-.84s.9.33.9.84c0 .49-.39.84-.9.84s-.9-.36-.9-.84zm.23 2.41h1.3v7.67h-1.3z"/><path d="m104.92 45.71c0-2.56 1.67-4.04 3.56-4.04s3.56 1.48 3.56 4.04c0 2.54-1.67 4.02-3.56 4.02s-3.56-1.48-3.56-4.02zm5.77 0c0-1.76-.89-2.95-2.21-2.95s-2.21 1.2-2.21 2.95c0 1.76.89 2.93 2.21 2.93 1.31 0 2.21-1.18 2.21-2.93z"/><path d="m114.04 41.86h1.07l.11 1.11h.04c.73-.72 1.52-1.3 2.57-1.3 1.62 0 2.34 1.04 2.34 3v4.86h-1.3v-4.69c0-1.43-.43-2.04-1.45-2.04-.78 0-1.33.4-2.1 1.18v5.56h-1.3v-7.68z"/><path d="m122.2 47.54c0-1.67 1.44-2.51 4.71-2.86 0-.99-.33-1.94-1.58-1.94-.89 0-1.69.42-2.29.82l-.51-.89c.71-.46 1.78-1 3.01-1 1.87 0 2.66 1.24 2.66 3.15v4.71h-1.07l-.11-.92h-.04c-.73.61-1.59 1.11-2.54 1.11-1.28 0-2.24-.8-2.24-2.18zm4.71.12v-2.13c-2.57.31-3.44.94-3.44 1.92 0 .87.59 1.23 1.34 1.23s1.36-.36 2.1-1.02z"/><path d="m130.63 47.99v-9.7h1.3v9.8c0 .4.17.55.36.55.07 0 .14 0 .28-.03l.18.99c-.18.07-.41.12-.75.12-.97 0-1.37-.62-1.37-1.73z"/><path d="m137.33 44.36c0-3.34 1.97-5.38 4.6-5.38 1.26 0 2.24.61 2.85 1.28l-.72.86c-.54-.58-1.23-.98-2.1-.98-1.96 0-3.26 1.6-3.26 4.18 0 2.6 1.24 4.24 3.21 4.24.99 0 1.74-.43 2.4-1.16l.72.83c-.82.95-1.83 1.5-3.18 1.5-2.59-.01-4.52-2-4.52-5.37z"/><path d="m146.35 47.54c0-1.67 1.44-2.51 4.71-2.86 0-.99-.33-1.94-1.58-1.94-.89 0-1.69.42-2.29.82l-.51-.89c.71-.46 1.78-1 3.01-1 1.87 0 2.66 1.24 2.66 3.15v4.71h-1.07l-.11-.92h-.04c-.73.61-1.59 1.11-2.54 1.11-1.28 0-2.24-.8-2.24-2.18zm4.71.12v-2.13c-2.57.31-3.44.94-3.44 1.92 0 .87.59 1.23 1.34 1.23s1.36-.36 2.1-1.02z"/><path d="m154.78 41.86h1.07l.11.89h.04c.69-.58 1.56-1.08 2.45-1.08 1.98 0 3.04 1.54 3.04 3.91 0 2.61-1.57 4.14-3.32 4.14-.7 0-1.42-.32-2.13-.89l.03 1.34v2.6h-1.3v-10.91zm5.37 3.73c0-1.69-.58-2.83-2.02-2.83-.65 0-1.3.36-2.05 1.05v4.02c.69.58 1.36.8 1.87.8 1.26 0 2.2-1.14 2.2-3.04z"/><path d="m163.3 39.45c0-.51.39-.84.9-.84.5 0 .9.33.9.84 0 .49-.39.84-.9.84-.51-.01-.9-.36-.9-.84zm.24 2.41h1.3v7.67h-1.3z"/><path d="m167.65 47.16v-4.24h-1.14v-.98l1.2-.07.16-2.15h1.08v2.15h2.08v1.06h-2.08v4.26c0 .94.3 1.48 1.19 1.48.27 0 .62-.1.87-.21l.25.98c-.43.15-.94.28-1.42.28-1.64 0-2.19-1.03-2.19-2.56z"/><path d="m171.95 47.54c0-1.67 1.44-2.51 4.71-2.86 0-.99-.33-1.94-1.58-1.94-.89 0-1.69.42-2.29.82l-.51-.89c.71-.46 1.78-1 3.01-1 1.87 0 2.66 1.24 2.66 3.15v4.71h-1.07l-.11-.92h-.04c-.73.61-1.59 1.11-2.54 1.11-1.28 0-2.24-.8-2.24-2.18zm4.71.12v-2.13c-2.57.31-3.44.94-3.44 1.92 0 .87.59 1.23 1.34 1.23s1.36-.36 2.1-1.02z"/><path d="m180.38 47.99v-9.7h1.3v9.8c0 .4.17.55.36.55.07 0 .14 0 .28-.03l.18.99c-.18.07-.41.12-.75.12-.97 0-1.37-.62-1.37-1.73z"/><path d="m187.08 44.36c0-3.34 1.97-5.38 4.6-5.38 1.26 0 2.24.61 2.85 1.28l-.72.86c-.54-.58-1.23-.98-2.1-.98-1.96 0-3.26 1.6-3.26 4.18 0 2.6 1.24 4.24 3.21 4.24.99 0 1.74-.43 2.4-1.16l.72.83c-.82.95-1.83 1.5-3.18 1.5-2.59-.01-4.52-2-4.52-5.37z"/><path d="m196 45.71c0-2.56 1.67-4.04 3.56-4.04 1.88 0 3.56 1.48 3.56 4.04 0 2.54-1.67 4.02-3.56 4.02-1.88-.01-3.56-1.48-3.56-4.02zm5.77 0c0-1.76-.89-2.95-2.21-2.95s-2.21 1.2-2.21 2.95c0 1.76.89 2.93 2.21 2.93s2.21-1.18 2.21-2.93z"/><path d="m205.13 41.86h1.07l.11 1.11h.04c.73-.72 1.52-1.3 2.57-1.3 1.62 0 2.34 1.04 2.34 3v4.86h-1.3v-4.69c0-1.43-.43-2.04-1.45-2.04-.78 0-1.33.4-2.1 1.18v5.56h-1.3v-7.68z"/><path d="m212.91 48.66.64-.86c.67.54 1.34.91 2.26.91 1.01 0 1.51-.54 1.51-1.19 0-.79-.91-1.14-1.75-1.45-1.08-.39-2.29-.92-2.29-2.22 0-1.23.98-2.18 2.65-2.18.96 0 1.79.39 2.39.86l-.62.83c-.53-.39-1.07-.68-1.75-.68-.97 0-1.41.52-1.41 1.1 0 .73.83 1.01 1.7 1.33 1.11.42 2.34.87 2.34 2.33 0 1.24-.99 2.28-2.8 2.28-1.1 0-2.15-.46-2.87-1.06z"/><path d="m219.8 45.71c0-2.56 1.67-4.04 3.56-4.04s3.56 1.48 3.56 4.04c0 2.54-1.67 4.02-3.56 4.02s-3.56-1.48-3.56-4.02zm5.77 0c0-1.76-.89-2.95-2.21-2.95s-2.21 1.2-2.21 2.95c0 1.76.89 2.93 2.21 2.93s2.21-1.18 2.21-2.93z"/><path d="m228.93 41.86h1.07l.11 1.4h.04c.53-.97 1.32-1.59 2.18-1.59.34 0 .58.04.82.16l-.24 1.14c-.26-.08-.44-.13-.74-.13-.65 0-1.42.47-1.94 1.76v4.93h-1.3z"/><path d="m234.63 47.16v-4.24h-1.14v-.98l1.2-.07.16-2.15h1.08v2.15h2.08v1.06h-2.08v4.26c0 .94.3 1.48 1.19 1.48.27 0 .62-.1.87-.21l.25.98c-.43.15-.94.28-1.42.28-1.63 0-2.19-1.03-2.19-2.56z"/><path d="m239.5 39.45c0-.51.39-.84.9-.84s.9.33.9.84c0 .49-.39.84-.9.84s-.9-.36-.9-.84zm.24 2.41h1.3v7.67h-1.3z"/><path d="m243.52 46.72v-4.86h1.3v4.69c0 1.43.43 2.04 1.45 2.04.78 0 1.33-.39 2.05-1.29v-5.44h1.3v7.67h-1.07l-.11-1.2h-.04c-.71.84-1.48 1.39-2.53 1.39-1.62 0-2.35-1.04-2.35-3z"/><path d="m252.21 41.86h1.07l.11 1.11h.04c.67-.73 1.47-1.3 2.39-1.3 1.17 0 1.8.56 2.12 1.46.8-.86 1.6-1.46 2.53-1.46 1.58 0 2.33 1.04 2.33 3v4.86h-1.3v-4.69c0-1.43-.45-2.04-1.43-2.04-.59 0-1.21.39-1.92 1.18v5.56h-1.3v-4.69c0-1.43-.45-2.04-1.43-2.04-.57 0-1.21.39-1.92 1.18v5.56h-1.3v-7.69z"/><path d="m269.76 41.94 1.02-.07.25-1.28c.32-1.54 1.14-2.48 2.43-2.48.55 0 .98.16 1.36.38l-.43.87c-.22-.13-.49-.26-.85-.26-.7 0-1.13.57-1.31 1.46l-.26 1.31h1.55l-.2.98h-1.57l-1.33 6.69h-1.21l1.34-6.69h-.99z"/><path d="m273.46 46.64c0-2.9 2.04-4.97 4.14-4.97 1.65 0 2.74 1.17 2.74 3.08 0 2.9-2.05 4.97-4.14 4.97-1.66 0-2.74-1.16-2.74-3.08zm5.66-1.81c0-1.39-.58-2.15-1.64-2.15-1.41 0-2.8 1.75-2.8 3.89 0 1.39.58 2.15 1.64 2.15 1.41 0 2.8-1.75 2.8-3.89z"/><path d="m282.99 41.86h.99l-.18 1.47h.06c.62-.93 1.44-1.66 2.38-1.66.28 0 .51.04.73.14l-.42 1.08c-.16-.09-.39-.13-.66-.13-.76 0-1.61.67-2.27 1.93l-.95 4.84h-1.21z"/><path d="m78.07 55.58h3.9c2.5 0 4.51.89 4.51 3.65 0 2.67-2.04 3.84-4.44 3.84h-1.4v3.85h-2.56v-11.34zm3.82 5.46c1.41 0 2.08-.63 2.08-1.81 0-1.19-.76-1.61-2.15-1.61h-1.18v3.42z"/><path d="m87.37 62.61c0-2.8 2-4.53 4.07-4.53 2.46 0 3.68 1.79 3.68 4.14 0 .46-.06.92-.11 1.13h-5.16c.23 1.25 1.09 1.83 2.24 1.83.65 0 1.24-.2 1.87-.56l.85 1.54c-.88.61-2.04.97-3.06.97-2.48 0-4.38-1.66-4.38-4.52zm5.56-.94c0-.95-.41-1.63-1.43-1.63-.81 0-1.51.54-1.68 1.63z"/><path d="m96.44 62.61c0-2.82 1.76-4.53 3.58-4.53.95 0 1.53.35 2.12.9l-.09-1.31v-2.94h2.56v12.19h-2.09l-.18-.86h-.06c-.61.61-1.46 1.06-2.3 1.06-2.16.01-3.54-1.69-3.54-4.51zm5.6 1.66v-3.54c-.45-.41-.96-.55-1.43-.55-.83 0-1.56.77-1.56 2.41 0 1.69.59 2.46 1.58 2.46.55-.01.99-.22 1.41-.78z"/><path d="m106.65 55.69c0-.78.62-1.34 1.48-1.34s1.48.55 1.48 1.34c0 .78-.62 1.34-1.48 1.34s-1.48-.56-1.48-1.34zm.2 2.6h2.56v8.63h-2.56z"/><path d="m111.26 64.53c0-1.82 1.45-2.8 4.86-3.16-.05-.75-.43-1.25-1.37-1.25-.72 0-1.45.3-2.28.78l-.91-1.68c1.1-.67 2.33-1.14 3.69-1.14 2.21 0 3.43 1.26 3.43 3.91v4.94h-2.09l-.18-.88h-.06c-.73.64-1.54 1.09-2.51 1.09-1.59-.01-2.58-1.15-2.58-2.61zm4.86-.11v-1.51c-1.82.25-2.41.77-2.41 1.42 0 .56.38.83.99.83.57 0 .96-.29 1.42-.74z"/><path d="m120.86 63.79v-3.49h-1.18v-1.91l1.32-.1.3-2.29h2.12v2.29h2.07v2.01h-2.07v3.46c0 .98.44 1.37 1.12 1.37.28 0 .59-.08.82-.16l.4 1.86c-.46.15-1.08.31-1.92.31-2.14-.01-2.98-1.35-2.98-3.35z"/><path d="m127.17 58.29h2.09l.18 1.51h.06c.63-1.15 1.57-1.72 2.45-1.72.49 0 .78.06 1.03.17l-.43 2.21c-.31-.08-.56-.14-.93-.14-.65 0-1.44.42-1.9 1.6v5h-2.56v-8.63z"/><path d="m133.9 55.69c0-.78.62-1.34 1.48-1.34s1.48.55 1.48 1.34c0 .78-.62 1.34-1.48 1.34s-1.48-.56-1.48-1.34zm.2 2.6h2.56v8.63h-2.56z"/><path d="m138.4 62.61c0-2.87 2.11-4.53 4.5-4.53 1.06 0 1.88.38 2.52.93l-1.21 1.64c-.41-.35-.76-.51-1.17-.51-1.23 0-2.02.97-2.02 2.46s.82 2.46 1.93 2.46c.57 0 1.11-.28 1.56-.64l1 1.67c-.84.74-1.91 1.03-2.85 1.03-2.4.01-4.26-1.64-4.26-4.51z"/><path d="m150.72 55.58h3.21c3.46 0 5.7 1.72 5.7 5.62s-2.23 5.72-5.55 5.72h-3.35v-11.34zm3.05 9.28c1.92 0 3.22-.94 3.22-3.65s-1.3-3.56-3.22-3.56h-.49v7.21z"/><path d="m161.06 62.61c0-2.8 2-4.53 4.07-4.53 2.46 0 3.68 1.79 3.68 4.14 0 .46-.06.92-.11 1.13h-5.16c.23 1.25 1.09 1.83 2.24 1.83.65 0 1.24-.2 1.87-.56l.85 1.54c-.88.61-2.04.97-3.06.97-2.48 0-4.38-1.66-4.38-4.52zm5.56-.94c0-.95-.41-1.63-1.43-1.63-.81 0-1.51.54-1.68 1.63z"/><path d="m169.55 58.29h2.57l1.12 4.07c.22.86.45 1.75.67 2.65h.07c.22-.9.45-1.8.67-2.65l1.12-4.07h2.45l-2.82 8.63h-2.95z"/><path d="m179.37 55.69c0-.78.62-1.34 1.48-1.34s1.48.55 1.48 1.34c0 .78-.62 1.34-1.48 1.34s-1.48-.56-1.48-1.34zm.2 2.6h2.56v8.63h-2.56z"/><path d="m183.87 62.61c0-2.87 2.11-4.53 4.5-4.53 1.06 0 1.88.38 2.52.93l-1.21 1.64c-.41-.35-.76-.51-1.17-.51-1.23 0-2.02.97-2.02 2.46s.82 2.46 1.93 2.46c.57 0 1.11-.28 1.56-.64l1 1.67c-.84.74-1.91 1.03-2.85 1.03-2.4.01-4.26-1.64-4.26-4.51z"/><path d="m191.51 62.61c0-2.8 2-4.53 4.07-4.53 2.46 0 3.68 1.79 3.68 4.14 0 .46-.06.92-.11 1.13h-5.16c.23 1.25 1.09 1.83 2.24 1.83.65 0 1.24-.2 1.87-.56l.85 1.54c-.88.61-2.04.97-3.06.97-2.48 0-4.38-1.66-4.38-4.52zm5.56-.94c0-.95-.41-1.63-1.43-1.63-.81 0-1.51.54-1.68 1.63z"/><path d="m204.71 55.58h2.56v11.34h-2.56z"/><path d="m209.74 58.29h2.09l.18 1.09h.06c.73-.7 1.6-1.3 2.77-1.3 1.88 0 2.68 1.32 2.68 3.48v5.36h-2.56v-5.03c0-1.24-.33-1.63-1.07-1.63-.64 0-1.04.3-1.6.84v5.82h-2.56v-8.63z"/><path d="m219.69 58.29h2.09l.18 1.09h.06c.73-.7 1.6-1.3 2.77-1.3 1.88 0 2.68 1.32 2.68 3.48v5.36h-2.56v-5.03c0-1.24-.33-1.63-1.07-1.63-.64 0-1.04.3-1.6.84v5.82h-2.56v-8.63z"/><path d="m229.14 62.61c0-2.87 2.02-4.53 4.2-4.53s4.2 1.66 4.2 4.53c0 2.86-2.02 4.52-4.2 4.52s-4.2-1.65-4.2-4.52zm5.79 0c0-1.49-.53-2.46-1.58-2.46-1.06 0-1.58.97-1.58 2.46s.53 2.46 1.58 2.46c1.06 0 1.58-.96 1.58-2.46z"/><path d="m238.25 58.29h2.57l1.12 4.07c.22.86.45 1.75.67 2.65h.07c.22-.9.45-1.8.67-2.65l1.12-4.07h2.45l-2.82 8.63h-2.95z"/><path d="m247.52 64.53c0-1.82 1.45-2.8 4.86-3.16-.05-.75-.43-1.25-1.36-1.25-.72 0-1.45.3-2.28.78l-.91-1.68c1.1-.67 2.33-1.14 3.69-1.14 2.21 0 3.43 1.26 3.43 3.91v4.94h-2.09l-.18-.88h-.06c-.73.64-1.54 1.09-2.51 1.09-1.59-.01-2.59-1.15-2.59-2.61zm4.86-.11v-1.51c-1.82.25-2.41.77-2.41 1.42 0 .56.38.83.99.83.58 0 .96-.29 1.42-.74z"/><path d="m257.12 63.79v-3.49h-1.18v-1.91l1.32-.1.3-2.29h2.12v2.29h2.07v2.01h-2.07v3.46c0 .98.44 1.37 1.12 1.37.28 0 .59-.08.82-.16l.4 1.86c-.46.15-1.08.31-1.92.31-2.13-.01-2.98-1.35-2.98-3.35z"/><path d="m263.24 55.69c0-.78.62-1.34 1.48-1.34s1.48.55 1.48 1.34c0 .78-.62 1.34-1.48 1.34s-1.48-.56-1.48-1.34zm.2 2.6h2.56v8.63h-2.56z"/><path d="m267.74 62.61c0-2.87 2.02-4.53 4.2-4.53s4.2 1.66 4.2 4.53c0 2.86-2.02 4.52-4.2 4.52s-4.2-1.65-4.2-4.52zm5.79 0c0-1.49-.53-2.46-1.58-2.46-1.06 0-1.58.97-1.58 2.46s.53 2.46 1.58 2.46 1.58-.96 1.58-2.46z"/><path d="m277.9 58.29h2.09l.18 1.09h.06c.73-.7 1.6-1.3 2.77-1.3 1.88 0 2.68 1.32 2.68 3.48v5.36h-2.56v-5.03c0-1.24-.33-1.63-1.07-1.63-.64 0-1.04.3-1.6.84v5.82h-2.56v-8.63z"/></g></svg>