<svg enable-background="new 0 0 300 100" viewBox="0 0 300 100" xmlns="http://www.w3.org/2000/svg"><g fill="#122147" transform="translate(-3575.841 -6067.062)"><path d="m3666.59 6135.22h.78v5.1c-.01 1.92.9 2.64 2.41 2.64s2.43-.73 2.42-2.64v-5.1h.78v5.28c0 1.69-.91 3.14-3.21 3.14-1.59.17-3.02-.98-3.19-2.57-.02-.19-.02-.38-.01-.57z"/><path d="m3674.83 6137.51h.73v1.03h.02c.33-.75 1.08-1.22 1.9-1.2 1.68 0 2.18.88 2.18 2.3v3.83h-.73v-3.72c0-1.03-.33-1.8-1.51-1.8-1.04 0-1.88.84-1.88 1.88 0 .05 0 .11.01.16v3.48h-.73z"/><path d="m3681.63 6143.46h.73v-5.95h-.73zm0-7.07h.73v-1.16h-.73z"/><path d="m3683.66 6137.51h.81l1.87 5.23h.02l1.85-5.23h.75l-2.23 5.96h-.77z"/><path d="m3690.45 6140.68c.01 1.06.57 2.34 1.96 2.34.92.04 1.72-.62 1.87-1.52h.73c-.16 1.29-1.3 2.23-2.6 2.14-1.89 0-2.69-1.45-2.69-3.15 0-1.57.8-3.15 2.69-3.15 1.92 0 2.68 1.67 2.62 3.35zm3.85-.61c.07-1.1-.77-2.05-1.87-2.12-.01 0-.01 0-.02 0-1.11.08-1.97 1.01-1.96 2.12z"/><path d="m3696.59 6137.5h.67v1.4h.02c.33-.95 1.25-1.56 2.25-1.48v.73c-1.13-.09-2.12.75-2.21 1.88-.01.09-.01.17 0 .26v3.18h-.73z"/><path d="m3704.2 6139.25c-.03-.76-.67-1.35-1.43-1.32-.04 0-.09.01-.13.01-.65 0-1.41.26-1.41 1.03 0 .65.74.88 1.23 1l.97.22c.91.02 1.65.74 1.7 1.65 0 1.29-1.28 1.79-2.39 1.79-1.39 0-2.33-.65-2.45-2.1h.73c.04.87.78 1.54 1.64 1.5.04 0 .08 0 .11-.01.68 0 1.63-.3 1.63-1.13 0-.69-.65-.92-1.31-1.08l-.94-.21c-.95-.25-1.66-.58-1.66-1.59 0-1.21 1.19-1.67 2.24-1.67 1.07-.13 2.04.64 2.17 1.71.01.07.01.14.01.21z"/><path d="m3706.71 6143.46h.73v-5.95h-.73zm0-7.07h.73v-1.16h-.73z"/><path d="m3710.57 6137.51h1.21v.61h-1.21v4.02c0 .47.07.75.59.79.21 0 .42-.01.62-.04v.62c-.22 0-.43.02-.65.02-.97 0-1.3-.32-1.29-1.34v-4.08h-1.04v-.61h1.04v-1.79h.73z"/><path d="m3712.74 6137.51h.77l1.96 5.08 1.83-5.08h.73l-2.58 6.87c-.42 1-.66 1.29-1.57 1.29-.19.01-.37-.01-.55-.05v-.62c.16.03.33.05.5.06.65 0 .8-.38 1.04-.94l.25-.68z"/><path d="m3727.75 6140.48c0 1.71-.99 3.15-2.82 3.15s-2.82-1.44-2.82-3.15.99-3.15 2.82-3.15 2.82 1.44 2.82 3.15m-4.9 0c0 1.27.69 2.54 2.09 2.54s2.09-1.27 2.09-2.54-.69-2.54-2.09-2.54-2.09 1.27-2.09 2.54"/><path d="m3731.6 6138.12h-1.18v5.34h-.73v-5.34h-1.02v-.61h1.02v-.54c-.01-1.03.28-1.74 1.44-1.74.21 0 .41.01.61.05v.62c-.17-.04-.35-.06-.53-.06-.81 0-.78.51-.8 1.16v.52h1.18z"/><path d="m3742.81 6137.71c-.24-1.19-1.31-2.04-2.53-2-2.18 0-3.1 1.82-3.1 3.62s.93 3.62 3.1 3.62c1.45-.03 2.61-1.2 2.64-2.64h.79c-.22 2.02-1.5 3.31-3.43 3.31-2.59 0-3.89-2.04-3.89-4.29s1.29-4.29 3.89-4.29c1.63-.1 3.06 1.06 3.31 2.67z"/><path d="m3745 6139.33c.07-1.4 1.05-2 2.41-2 1.05 0 2.19.32 2.19 1.92v3.17c-.03.21.12.41.33.44h.1c.08 0 .16-.02.23-.05v.61c-.15.03-.31.05-.47.05-.74 0-.85-.42-.85-1.04h-.02c-.42.8-1.27 1.27-2.17 1.21-1.1 0-2-.54-2-1.74 0-1.67 1.63-1.73 3.2-1.91.6-.07.93-.15.93-.81 0-.98-.7-1.22-1.56-1.22-.9 0-1.57.42-1.59 1.38zm3.87.88h-.02c-.09.17-.42.23-.61.26-1.24.22-2.77.21-2.77 1.37.03.68.61 1.21 1.3 1.18h.03c1.06.09 1.98-.7 2.07-1.75 0-.04.01-.08.01-.12z"/><path d="m3751.65 6135.22h.73v8.24h-.73z"/><path d="m3754.47 6143.46h.73v-5.95h-.73zm0-7.07h.73v-1.16h-.73z"/><path d="m3759.47 6138.12h-1.18v5.34h-.73v-5.34h-1.02v-.61h1.02v-.54c-.01-1.03.28-1.74 1.44-1.74.21 0 .41.01.61.05v.62c-.18-.04-.35-.06-.53-.06-.81 0-.78.51-.8 1.16v.52h1.18z"/><path d="m3765.84 6140.48c0 1.71-.99 3.15-2.82 3.15s-2.82-1.44-2.82-3.15.99-3.15 2.82-3.15 2.82 1.44 2.82 3.15m-4.9 0c0 1.27.69 2.54 2.09 2.54s2.09-1.27 2.09-2.54-.69-2.54-2.09-2.54-2.09 1.27-2.09 2.54"/><path d="m3767.04 6137.5h.67v1.4h.02c.33-.95 1.25-1.55 2.25-1.48v.73c-1.13-.09-2.12.75-2.21 1.88-.01.08-.01.17 0 .25v3.18h-.73z"/><path d="m3771.24 6137.51h.73v1.03h.02c.33-.75 1.08-1.22 1.9-1.2 1.68 0 2.18.88 2.18 2.3v3.83h-.73v-3.72c0-1.03-.33-1.8-1.51-1.8-1.04 0-1.88.85-1.88 1.89 0 .05 0 .1.01.16v3.48h-.73z"/><path d="m3778.04 6143.46h.73v-5.95h-.73zm0-7.07h.73v-1.16h-.73z"/><path d="m3780.61 6139.33c.07-1.4 1.05-2 2.41-2 1.05 0 2.19.32 2.19 1.92v3.17c-.03.21.12.41.33.44h.1c.08 0 .16-.02.23-.05v.61c-.16.03-.32.05-.48.05-.74 0-.85-.42-.85-1.04h-.02c-.42.8-1.27 1.27-2.17 1.21-1.1 0-2-.54-2-1.74 0-1.67 1.63-1.73 3.2-1.91.6-.07.94-.15.94-.81 0-.98-.71-1.22-1.56-1.22-.9 0-1.57.42-1.59 1.38zm3.88.88h-.02c-.09.17-.42.23-.61.26-1.23.22-2.77.21-2.77 1.37.03.69.62 1.21 1.3 1.18h.02c1.06.09 1.98-.7 2.07-1.75 0-.04.01-.08.01-.12z"/><path d="m3667.05 6153.23c-.04 1.7 1.19 2.22 2.69 2.22.87 0 2.18-.47 2.18-1.67 0-.93-.94-1.3-1.69-1.49l-1.84-.45c-.97-.24-1.86-.7-1.86-1.98 0-.81.52-2.32 2.84-2.32 1.63 0 3.06.88 3.05 2.56h-.78c-.07-1.12-1.03-1.97-2.15-1.9-.03 0-.07 0-.1.01-1.07 0-2.07.42-2.07 1.64 0 .78.58 1.1 1.25 1.26l2.01.5c1.16.31 2.14.82 2.14 2.17 0 .57-.23 2.35-3.15 2.35-1.95 0-3.38-.88-3.29-2.89z"/><path d="m3674.03 6151.81c.07-1.4 1.05-2 2.41-2 1.05 0 2.19.32 2.19 1.92v3.16c-.03.21.12.41.33.44.03 0 .06.01.1 0 .08 0 .16-.02.23-.05v.61c-.16.03-.31.05-.47.05-.74 0-.86-.41-.86-1.04h-.02c-.42.8-1.27 1.28-2.17 1.21-1.1 0-2-.54-2-1.74 0-1.67 1.63-1.73 3.2-1.92.6-.07.93-.15.93-.81 0-.98-.7-1.22-1.56-1.22-.9 0-1.57.42-1.59 1.38zm3.88.88h-.02c-.09.17-.42.23-.61.26-1.23.22-2.77.21-2.77 1.38.03.68.61 1.21 1.29 1.18h.03c1.05.09 1.98-.69 2.07-1.74 0-.04.01-.09.01-.13z"/><path d="m3680.65 6149.98h.73v1.03h.02c.33-.75 1.08-1.22 1.9-1.2 1.67 0 2.18.88 2.18 2.3v3.83h-.73v-3.72c0-1.03-.33-1.8-1.51-1.8-1.04 0-1.88.84-1.88 1.88 0 .05 0 .11.01.16v3.48h-.73z"/><path d="m3691.25 6147.7v8.24h.79v-3.93h3.95v-.67h-3.95v-2.98h4.44v-.67z"/><path d="m3697.54 6149.98h.67v1.4h.02c.33-.95 1.25-1.56 2.25-1.48v.73c-1.13-.09-2.12.75-2.21 1.88-.01.08-.01.17 0 .26v3.17h-.73z"/><path d="m3701.33 6151.81c.07-1.4 1.05-2 2.41-2 1.05 0 2.19.32 2.19 1.92v3.16c-.03.21.12.41.33.44.03 0 .06.01.1 0 .08 0 .16-.02.23-.05v.61c-.15.03-.31.05-.47.05-.74 0-.86-.41-.86-1.04h-.02c-.42.8-1.27 1.27-2.17 1.21-1.1 0-2-.54-2-1.74 0-1.67 1.63-1.73 3.2-1.92.6-.07.93-.15.93-.81 0-.98-.7-1.22-1.56-1.22-.9 0-1.57.42-1.59 1.38zm3.88.88h-.02c-.09.17-.42.23-.61.26-1.23.22-2.77.21-2.77 1.38.03.68.61 1.21 1.3 1.18h.03c1.05.09 1.98-.69 2.07-1.74 0-.04.01-.09.01-.13z"/><path d="m3707.96 6149.98h.73v1.03h.02c.33-.75 1.08-1.22 1.9-1.2 1.67 0 2.18.88 2.18 2.3v3.83h-.73v-3.72c0-1.03-.33-1.8-1.51-1.8-1.04 0-1.88.85-1.88 1.88 0 .05 0 .11.01.16v3.48h-.73z"/><path d="m3718.72 6151.85c-.1-.85-.83-1.47-1.69-1.43-1.39 0-2.09 1.27-2.09 2.54s.69 2.54 2.09 2.54c.94-.02 1.69-.76 1.73-1.7h.73c-.06 1.31-1.15 2.33-2.46 2.31-1.82 0-2.81-1.44-2.81-3.15s.99-3.15 2.81-3.15c1.23-.11 2.31.8 2.41 2.03v.02z"/><path d="m3721.04 6155.94h.73v-5.96h-.73zm0-7.07h.73v-1.17h-.73z"/><path d="m3727.19 6151.73c-.03-.76-.67-1.35-1.43-1.32-.04 0-.09.01-.13.01-.65 0-1.41.25-1.41 1.03 0 .65.74.88 1.23 1l.97.22c.91.02 1.65.74 1.7 1.65 0 1.29-1.28 1.79-2.39 1.79-1.39 0-2.33-.65-2.45-2.1h.73c.04.87.77 1.54 1.64 1.5.04 0 .08-.01.12-.01.68 0 1.63-.3 1.63-1.13 0-.69-.64-.92-1.3-1.08l-.94-.21c-.95-.25-1.66-.58-1.66-1.59 0-1.21 1.19-1.67 2.24-1.67 1.07-.13 2.04.64 2.17 1.71.01.07.01.14.01.21z"/><path d="m3733.72 6151.85c-.1-.85-.84-1.47-1.69-1.43-1.4 0-2.09 1.27-2.09 2.54s.69 2.54 2.09 2.54c.93-.02 1.69-.76 1.73-1.7h.73c-.06 1.31-1.15 2.33-2.46 2.31-1.82 0-2.82-1.44-2.82-3.15s.99-3.15 2.82-3.15c1.22-.11 2.3.8 2.41 2.02v.02z"/><path d="m3741.36 6152.96c0 1.71-.99 3.15-2.81 3.15s-2.82-1.44-2.82-3.15.99-3.15 2.82-3.15 2.81 1.44 2.81 3.15m-4.91 0c0 1.27.69 2.54 2.09 2.54s2.09-1.27 2.09-2.54-.69-2.54-2.09-2.54c-1.39 0-2.09 1.27-2.09 2.54"/><path d="m3763.07 6098.38v-5.86h-22.29v21.59c.01-2.28-1.02-4.44-2.79-5.87-1.63-1.14-3.49-1.92-5.45-2.28l-5.53-1.31c-1.44-.27-2.84-.71-4.18-1.3-.55-.28-1-.73-1.27-1.28s0-.01-.01-.01c-.17-.39-.26-.81-.26-1.23-.03-.92.34-1.8 1.02-2.43.02-.01.03-.03.04-.04.15-.14.32-.27.5-.38 1.26-.74 2.7-1.1 4.16-1.03 1.35-.04 2.69.23 3.92.79 1.55.75 2.53 2.32 2.54 4.04h6.33c-.12-3.35-1.36-5.9-3.73-7.66-2.5-1.8-5.52-2.73-8.6-2.64-4.02 0-7.08.93-9.15 2.8-1.22 1.07-2.14 2.44-2.65 3.98-.11.33-.2.66-.26 1-.77 3.63-3.11 6.1-7.02 6.1-6.26 0-8.61-5.33-8.61-10.61 0-5.55 2.35-10.88 8.61-10.88 3.46 0 6.48 2.4 6.92 5.55h6.75c-.84-7.32-6.7-11.41-13.67-11.41-9.36 0-15.04 6.66-15.54 15.44v-14.68h-6.97v19.71c0 4.7-1.6 6.88-6.57 6.88-5.64 0-6.53-3.42-6.53-6.88v-19.71h-6.97v19.71c0 8.61 4.97 12.74 13.5 12.74 8.48 0 13.54-4.17 13.54-12.74v-2.48c.51 8.55 6.19 15.21 15.54 15.21 3.5.1 6.91-1.13 9.54-3.45.15.12.3.24.47.35 1.25.87 3.56 1.67 6.91 2.42l3.41.75c1.53.26 3 .76 4.37 1.48.87.49 1.4 1.42 1.38 2.41 0 1.78-.94 3-2.81 3.65-1.25.38-2.55.55-3.86.52-2.65 0-4.52-.65-5.61-1.95-.69-.95-1.1-2.06-1.2-3.23h-6.28c-.13 3 1.2 5.88 3.56 7.73 2.38 1.87 5.64 2.81 9.78 2.81 4.06 0 7.2-.95 9.43-2.85 1.97-1.6 3.17-3.95 3.31-6.49v8.87h6.97v-13.1h13.28v-5.42h-13.28v-7.33z"/></g></svg>