<svg enable-background="new 0 0 300 100" viewBox="0 0 300 100" xmlns="http://www.w3.org/2000/svg"><g fill="#1e3066"><path d="m246.76 71.14c-.2 1.24-.29 2.5-.61 3.71-.92 3.45-3.11 5.66-6.71 6.16-1.73.24-3.54.38-5.25.14-5.02-.7-8.02-3.98-8.16-9.07-.17-6.03-.09-12.07-.07-18.1.01-1.89.62-3.65 1.5-5.3.97-1.84 2.48-3.06 4.47-3.67 2.32-.72 4.69-.91 7.09-.49 4.68.81 6.99 3.26 7.54 7.97.04.37.14.73.2 1.1v3.21c-.32.85-.92 1.17-1.83 1.13-1.32-.05-2.65-.01-3.97-.02-1.4-.01-1.71-.34-1.75-1.72-.04-1.44 0-2.9-.2-4.33-.22-1.55-1.44-2.36-2.91-2.17-1.19.15-1.95.88-2.18 2.38-.21 1.36-.29 2.75-.31 4.13-.04 3.36-.04 6.73 0 10.09.03 2.42.07 4.85.3 7.25.15 1.65 1.26 2.48 2.73 2.43 1.37-.05 2.27-.91 2.41-2.52.13-1.56.12-3.14.16-4.71.03-1.12.44-1.54 1.55-1.55 1.07-.01 2.14 0 3.21 0 2.35 0 2.35 0 2.78 2.26.01.56.01 1.13.01 1.69z"/><path d="m86.24 23.86c-1.99.19-3.97.19-5.87-.55-.62-.24-.96.02-1.2.54-.56 1.25-.65 2.55-.43 3.88.14.86.66.69 1.27.47 1.65-.6 3.29-1.28 4.99-1.69 1.88-.45 3.82-.5 5.69.16 2.33.83 3.43 2.91 2.56 4.88-.71 1.6-2.14 2.19-3.74 2.32-3.28.27-6.47-.17-9.5-1.54-.22-.1-.61-.14-.74-.01-.17.16-.27.58-.17.77.34.66.67 1.38 1.2 1.86 1.34 1.24 3 1.44 4.77 1.26 3.85-.41 7.69-.25 11.44.77 7.93 2.15 14.08 6.69 18.2 13.85.2.35.39.73.52 1.11.54 1.63 1.67 2.65 3.16 3.44 3.6 1.9 5.48 5.5 4.7 9.04-.63 2.81-2.43 4.81-4.96 6.09-1.29.65-2.14 1.55-2.74 2.84-4.14 8.84-11.35 13.9-20.67 15.74-11.2 2.21-24.79-1.23-32.2-14.13-.45-.79-.86-1.62-1.15-2.48-.46-1.35-1.32-2.24-2.6-2.81-1.62-.72-2.93-1.84-3.94-3.28-2.58-3.67-1.96-7.98 1.62-10.91.75-.61 1.61-1.11 2.48-1.53 1.64-.8 2.96-1.93 3.84-3.51 3.41-6.12 8.59-10.09 15.05-12.54.12-.04.24-.09.35-.14 1.25-.49 1.31-.65.43-1.68-1.24-1.45-1.96-2.98-1.22-4.93.15-.4.08-.96-.08-1.38-.85-2.17-.75-4.33.07-6.45.44-1.13.41-2.13-.06-3.26-1.95-4.71.92-9.32 6.01-9.71.94-.07 1.89-.03 2.83-.01.56.01 1.15.12 1.16.82.02.78-.61.84-1.2.88-.82.06-1.64.1-2.45.18-3.33.32-5.5 2.92-4.99 5.96.22 1.34.6 1.5 1.67.65 3.17-2.51 6.79-2.76 10.59-2.14.59.1 1.18.2 1.75.39 1.16.38 1.94 1.16 2.16 2.39.22 1.2-.24 2.17-1.18 2.9-1.32 1.02-2.85 1.45-4.49 1.5-.98.02-1.96-.01-2.93-.01zm29.46 41.78c.09-9.96-3.05-15.96-8.52-20.87-5.48-4.93-11.99-6.95-19.28-6.73-8.28.25-15.41 3.05-20.74 9.57-6.09 7.44-7.81 15.75-3.75 24.66 4.81 10.55 14.75 15.48 25.43 15.56 5.49.04 10.73-1.52 15.36-4.59 7.19-4.75 11.17-11.4 11.5-17.6zm-55.61-9.9c-2.22.37-4.8 3.37-4.84 5.77-.04 2.52 1.97 5.46 4.23 5.91 0-1.96-.08-3.88.02-5.79.1-1.96.38-3.91.59-5.89zm25.53-33.49c.01-.04.01-.09.02-.13.38 0 .76.03 1.13 0 1.71-.14 3.5-.03 5.03-.98.43-.27.87-.92.85-1.38-.01-.36-.67-.88-1.13-1-2.29-.63-4.62-.59-6.89.05-1.06.3-2.04.93-3 1.5-.26.15-.49.61-.46.9.02.22.46.52.74.56 1.22.2 2.47.32 3.71.48zm1.37 9.8c1.15-.15 2.32-.22 3.43-.51.45-.11 1.03-.68 1.08-1.09.05-.48-.35-1.07-.69-1.51-.2-.26-.65-.38-1.01-.46-2.85-.59-5.57-.23-8.13 1.16-.25.14-.42.42-.63.63.24.22.44.5.71.65 1.63.91 3.43.98 5.24 1.13zm30.92 30.63c-.22 1.89-.39 3.29-.53 4.69-.03.28.09.57.13.86.3-.08.7-.08.89-.27.74-.76 1.54-1.5 2.1-2.39 1.16-1.79 1.17-3.71-.01-5.5-.59-.91-1.41-1.67-2.16-2.46-.15-.16-.61-.27-.73-.17-.19.16-.33.53-.3.79.2 1.63.45 3.27.61 4.45z"/><path d="m201.01 62.74c0-5.09 0-10.19 0-15.28 0-.47.03-.94.03-1.41.01-.69.39-1.1 1.04-1.09 4.15.07 8.32-.07 12.44.32 4.54.43 7.15 3.61 7.38 8.51.27 5.84.1 11.69.02 17.54-.02 1.23-.31 2.5-.67 3.69-1.06 3.41-4.09 5.35-8.17 5.65-3.51.26-7.05.09-10.57.09-1.15 0-1.49-.42-1.5-1.78-.01-4.87 0-9.75 0-14.62 0-.55 0-1.08 0-1.62zm7.71-.07h-.01c0 3.71-.01 7.42 0 11.13 0 1.29.44 1.69 1.72 1.67 2.42-.05 3.43-1 3.6-3.42.03-.44.03-.88.03-1.32 0-4.94 0-9.88 0-14.81 0-.85.03-1.7-.05-2.55-.25-2.45-1.71-3.53-4.16-3.17-.79.12-1.14.52-1.13 1.33.01 3.72 0 7.43 0 11.14z"/><path d="m176.87 62.85c0-5.29 0-10.57 0-15.86 0-1.74.34-2.08 2.1-2.08h9.73c5.16 0 8.12 2.47 8.95 7.57.39 2.44.38 4.91-.38 7.29-1.05 3.28-3.39 5.07-6.76 5.47-1.4.16-2.83.13-4.24.12-1.43-.01-1.9.38-1.9 1.81.01 3.87.03 7.74.07 11.61.01 1.53-.41 1.99-1.92 1.98-1.42-.01-2.84-.03-4.25-.01-.9.01-1.34-.37-1.35-1.28-.01-2.93-.04-5.85-.05-8.78 0-2.61 0-5.23 0-7.84zm7.53-7.76v3.87c0 .83.37 1.31 1.25 1.3.6-.01 1.2.02 1.79-.05 1.77-.18 2.77-1.07 3.02-2.83.15-1.05.17-2.13.11-3.19-.19-3.32-1.39-4.32-4.72-4.02-.06.01-.13.01-.19.02-.88.06-1.29.52-1.27 1.41.02 1.16.01 2.33.01 3.49z"/></g><path d="m152.44 72.91c.32-1.69.65-3.37.96-5.06 1.31-6.98 2.62-13.97 3.94-20.95.21-1.12.61-1.43 1.64-1.43 1.09 0 1.54.39 1.76 1.55 1.56 8.09 3.12 16.17 4.69 24.26.11.54.28 1.08.42 1.61.1.01.21.01.31.02.22-1.17.47-2.34.65-3.51 1.2-7.74 2.39-15.47 3.57-23.21.12-.79.41-1.28 1.31-1.27 1.09.02 1.42.36 1.24 1.46-.38 2.26-.79 4.52-1.16 6.79-1.17 7.33-2.33 14.66-3.49 21.98-.21 1.3-.4 2.61-.61 3.91-.19 1.2-.63 1.65-1.56 1.67-.92.02-1.37-.43-1.6-1.61-1.69-8.58-3.37-17.15-5.06-25.73-.08-.42-.19-.84-.51-1.3-.11.32-.25.64-.32.97-1.07 5.52-2.14 11.05-3.2 16.57-.62 3.21-1.22 6.42-1.83 9.63-.16.87-.6 1.44-1.56 1.47-.99.03-1.38-.54-1.53-1.43-.9-5.3-1.79-10.6-2.72-15.9-.98-5.57-2.01-11.14-3.01-16.71-.26-1.46.13-1.93 1.42-1.77.79.1 1 .66 1.11 1.32.62 3.56 1.24 7.12 1.86 10.69.85 4.93 1.69 9.85 2.55 14.78.07.42.26.82.4 1.23.11 0 .22-.02.33-.03z" fill="#e81a23"/><path d="m133.15 44.28c.9.12 1.82.17 2.7.37 3.34.73 4.85 3.12 5.54 6.22.12.55.21 1.11.27 1.68.1.96-.2 1.35-1.13 1.49-.84.13-1.17-.32-1.35-1.08-.26-1.13-.54-2.27-.93-3.36-.62-1.71-1.82-2.77-3.7-2.9-.84-.06-1.71-.16-2.54-.05-2.87.36-4.68 2.97-4.1 5.8.36 1.79 1.27 3.26 2.55 4.54 2.7 2.69 5.4 5.37 8.05 8.1 2.62 2.69 3.86 5.9 3.49 9.7-.3 3.05-1.94 5.19-4.9 6.01-3.49.96-6.84.8-9.55-1.98-1.59-1.63-2.12-3.76-2.27-5.96-.07-.95.98-1.74 1.87-1.46.27.09.52.5.62.81.36 1.14.62 2.31.99 3.44.72 2.2 2.3 3.33 4.58 3.42.9.03 1.83-.06 2.72-.23 1.39-.26 2.27-1.2 2.75-2.48 1.08-2.87.62-5.57-1.29-7.89-1.57-1.92-3.38-3.64-5.1-5.43-1.48-1.54-3.02-3.03-4.49-4.59-1.99-2.1-2.84-4.64-2.69-7.51.18-3.5 3.14-6.35 6.76-6.55.38-.02.76 0 1.13 0 .01-.05.02-.08.02-.11z" fill="#e81a23"/><path d="m88.6 83.05c-6.87 0-13.24-5.17-14.62-11.94-.3-1.47-.47-2.97-.52-4.47-.04-1.22.65-1.99 1.53-2.06.98-.08 1.51.4 1.59 1.41.1 1.34.09 2.71.35 4.02 1.06 5.22 5.37 9.23 10.41 9.81s10.17-2.45 12.41-7.34c.35-.77.61-1.58.93-2.37.39-.96.93-1.24 1.84-.98s1.32.9 1.1 1.88c-.67 2.94-2.22 5.38-4.35 7.48-2.95 2.89-6.86 4.56-10.67 4.56z" fill="#e81a23"/><path d="m94.02 64.54c-.09 2.63-2.5 5.08-5.11 5.19-2.32.1-5.07-2.22-5.44-4.58-.18-1.17.19-1.86 1.11-2.06.9-.19 1.47.21 1.83 1.3.45 1.35 1.08 1.89 2.25 1.92 1.18.03 1.87-.51 2.37-1.89.06-.18.11-.36.19-.53.34-.72.84-1.2 1.71-.99s1.15.82 1.09 1.64z" fill="#1e3066"/><path d="m99.72 59.04c-1.94 0-3.48-1.52-3.49-3.45-.01-1.89 1.42-3.26 3.39-3.27 1.99-.01 3.56 1.41 3.59 3.24.03 1.84-1.61 3.48-3.49 3.48z" fill="#1e3066"/><path d="m87.57 53.21c0 1.97-1.42 3.33-3.44 3.32-2.07-.01-3.35-1.31-3.33-3.38.02-2.01 1.28-3.24 3.35-3.25 2.04-.02 3.42 1.32 3.42 3.31z" fill="#1e3066"/></svg>