<svg enable-background="new 0 0 300 100" viewBox="0 0 300 100" xmlns="http://www.w3.org/2000/svg" xmlns:xlink="http://www.w3.org/1999/xlink"><linearGradient id="a"><stop offset="0" stop-color="#0c3ea9"/><stop offset="1" stop-color="#00bff0"/></linearGradient><linearGradient id="b" gradientTransform="matrix(43.1733 0 0 -46.3071 -288.1714 4422.0083)" gradientUnits="userSpaceOnUse" x1="8.3274" x2="9.0802" xlink:href="#a" y1="94.6368" y2="94.2925"/><linearGradient id="c" gradientTransform="matrix(21.4619 0 0 -4.8999 -257.6953 286.9453)" gradientUnits="userSpaceOnUse" x1="14.6191" x2="16.1366" xlink:href="#a" y1="44.115" y2="40.8714"/><linearGradient id="d" gradientTransform="matrix(6.623 0 0 -3.9243 -230.2681 194.9277)" gradientUnits="userSpaceOnUse" x1="42.8178" x2="47.7384" xlink:href="#a" y1="30.2306" y2="26.1716"/><linearGradient id="e" gradientTransform="matrix(11.2539 0 0 -4.1216 -246.1533 214.7769)" gradientUnits="userSpaceOnUse" x1="26.4212" x2="29.3056" xlink:href="#a" y1="32.506" y2="28.6348"/><g transform="translate(-4432.681 -4282.194)"><g fill="#003da5"><path d="m4589.45 4347.02c0-3.04.02-5.79-.02-8.55-.01-.71.14-.97.91-.94 2.53.08 2.22-.31 2.24 2.18.01 4.01-.01 8.02.02 12.02 0 .67-.17.84-.85.89-1.21.18-2.4-.41-3.01-1.47-1.79-2.55-3.75-4.99-5.64-7.47-.19-.25-.4-.5-.62-.76-.3.28-.16.6-.16.86-.01 2.66-.03 5.32 0 7.98 0 .64-.17.84-.83.84-2.28.01-2.28.04-2.28-2.24 0-3.81 0-7.62 0-11.43 0-1.28.13-1.3 1.42-1.42 1.01-.13 2 .36 2.5 1.25 1.85 2.55 3.79 5.03 5.71 7.54.13.19.28.35.61.72z"/><path d="m4603.91 4337.25c4.27-.12 7.83 3.24 7.95 7.51v.27c0 4.34-3.53 7.86-7.88 7.86-.08 0-.17 0-.25 0-4.29.11-7.85-3.28-7.96-7.57 0-.07 0-.15 0-.23 0-4.33 3.52-7.84 7.85-7.84.1-.01.19-.01.29 0zm4.63 7.88c.11-2.65-1.94-4.89-4.59-5-.04 0-.08 0-.12 0-2.61-.01-4.74 2.11-4.75 4.72v.13c-.1 2.66 1.98 4.9 4.64 5h.09c2.59.02 4.72-2.06 4.74-4.66 0-.06 0-.12-.01-.19z"/><path d="m4672.48 4345.04c.02 4.31-3.46 7.82-7.77 7.85-.08 0-.16 0-.24 0-4.32-.11-7.73-3.69-7.62-8.01s3.69-7.73 8.01-7.62c4.23.1 7.6 3.55 7.62 7.78zm-12.71-.02c-.13 2.61 1.88 4.83 4.49 4.96s4.83-1.88 4.96-4.49c.01-.14.01-.27 0-.41.06-2.68-2.06-4.9-4.73-4.96-.02 0-.04 0-.05 0-2.57-.01-4.66 2.07-4.67 4.64-.01.09-.01.18 0 .26z"/><path d="m4572.2 4346.87v-7.34c0-2.12 0-2.11 2.09-1.99.64.04.98.3.98.96 0 4.5 0 9 .01 13.5 0 .47-.18.58-.63.62-1.26.23-2.54-.34-3.2-1.44-1.96-2.82-4.13-5.5-6.22-8.24-.38.2-.22.5-.22.72-.01 2.69-.03 5.39 0 8.08.01.7-.2.88-.89.88-2.19-.01-2.19.02-2.19-2.13 0-3.84 0-7.68 0-11.52 0-1.31.11-1.33 1.39-1.44 1.01-.13 2 .36 2.51 1.24 1.82 2.53 3.76 4.98 5.64 7.45.16.29.42.52.73.65z"/><path d="m4688.61 4352.6c-1.18 0-2.09-.01-3.01 0-.47.01-.9-.26-1.11-.68-.74-1.12-1.48-2.24-2.24-3.35-.74-.84-1.91-1.16-2.98-.81-.37.17-.38.5-.38.83 0 1.08-.03 2.17.01 3.25.03.61-.2.77-.79.78-2.37.04-2.37.06-2.37-2.32 0-3.84.02-7.68-.01-11.52-.01-.91.2-1.29 1.19-1.25 2.1.07 4.2-.02 6.3.04 2.68-.15 4.97 1.9 5.12 4.58.04.7-.07 1.39-.33 2.04-.31 1.16-1.14 2.12-2.24 2.61-.83.35-.7.67-.28 1.25 1.03 1.42 1.99 2.89 3.12 4.55zm-7.27-12.26c-.53 0-.96.03-1.39 0-.81-.08-1.14.25-1.09 1.07.05.92.02 1.84.01 2.76-.01.47.18.78.66.79 1.28.12 2.56.07 3.83-.13 1.21-.32 1.93-1.55 1.61-2.76-.2-.75-.76-1.34-1.5-1.58-.69-.14-1.41-.19-2.13-.15z"/><path d="m4562.33 4323.97c1.02-1.51 1.99-2.95 2.96-4.38.68-1.01 1.4-1.99 2-3.04.53-.94 1.34-.71 2.07-.57.73.13.62.82.62 1.38 0 4.5-.01 8.99.02 13.49 0 .75-.13 1.04-.96 1-1.68-.09-1.42.22-1.43-1.49-.01-2.95 0-5.91 0-8.86v-.95l-.21-.09-5.08 6.98c-1.73-2.37-3.42-4.67-5.13-7.02-.18.32-.24.69-.17 1.04-.01 3.15-.03 6.3.01 9.45 0 .71-.15.97-.92.95-1.39-.05-1.4 0-1.4-1.42 0-4.37 0-8.74 0-13.1 0-.56-.09-1.24.63-1.36s1.49-.3 2.06.61c1.57 2.46 3.24 4.85 4.93 7.38z"/><path d="m4642.77 4352.59c-.84 0-1.68 0-2.52 0-.38.01-.71-.23-.84-.58-.05-.12-.1-.24-.15-.37-1.04-2.46-1.04-2.46-3.68-2.46-1.04 0-2.1.03-3.15-.01-.51-.1-1 .23-1.1.73-.04.12-.09.25-.15.37-1.08 2.63-1.08 2.63-4.09 2.24.62-1.47 1.22-2.92 1.83-4.36 1.4-3.29 2.83-6.57 4.19-9.88.29-.7.67-.82 1.37-.9 1.23-.29 2.47.48 2.76 1.71.01.03.01.05.02.08 1.65 4.21 3.51 8.35 5.28 12.52.17.27.25.59.23.91zm-10.01-6.2h4.37c-.72-1.76-1.41-3.43-2.17-5.29-.2.45-.3.67-.4.9-.59 1.42-1.17 2.84-1.8 4.39z"/><path d="m4588.35 4324.1c0-2.27 0-4.53 0-6.8 0-1.2.19-1.41 1.36-1.39 2-.09 4.01-.04 6 .15 4.31.65 7.27 4.67 6.62 8.98-.53 3.48-3.29 6.19-6.79 6.64-2.23.17-4.46.22-6.69.15-.68.02-.5-.48-.5-.83-.01-2.3 0-4.6 0-6.9zm2.3-.25c0 1.64.01 3.28 0 4.92 0 .55.16.89.77.88 1.31.05 2.62 0 3.93-.15 3.11-.57 5.17-3.56 4.59-6.67-.42-2.29-2.19-4.1-4.47-4.57-1.24-.16-2.48-.22-3.73-.19-.81-.04-1.12.23-1.1 1.06.04 1.57.01 3.14.01 4.72z"/><path d="m4649.31 4323.95c0-2.33.04-4.66-.02-6.99-.03-1.15.67-1.01 1.41-1.07.82-.07.99.26.97 1-.05 1.64 0 3.28-.03 4.92-.01.69.25.93.92.92 2.13-.03 4.27-.03 6.4 0 .69.01.93-.26.93-.93-.03-1.71 0-3.42-.02-5.12 0-.49.05-.89.67-.77.6.11 1.48-.43 1.66.68.02.2.03.4.01.6 0 4.56-.04 9.13.03 13.69.01 1.07-.52.96-1.19.96s-1.27.1-1.2-.96c.1-1.67 0-3.35.03-5.02.01-.66-.19-.94-.89-.93-2.17.04-4.33.03-6.5 0-.65-.01-.86.22-.85.86.03 1.71-.03 3.42.03 5.12.02.73-.18.97-.93.93-1.68-.08-1.41.2-1.43-1.4-.02-2.16 0-4.33 0-6.49z"/><path d="m4618.53 4324.02c0-2.3.02-4.6-.01-6.9-.01-.89.35-1.23 1.23-1.22 3.15.03 6.31.01 9.46.01.48 0 1.02-.13.96.69-.05.7.07 1.47-.97 1.48-1.64.01-3.29 0-4.93 0-.89 0-1.77.02-2.66 0-.63-.02-.79.31-.78.86.01.92.04 1.84-.01 2.76-.05.86.34 1.06 1.12 1.05 2.07-.04 4.14.03 6.21-.03.88-.03 1.12.23 1.08 1.09-.03.76-.05 1.19-1.04 1.15-2.13-.09-4.27 0-6.41-.04-.75-.01-.99.26-.96.98.05.92.05 1.84 0 2.76-.04.79.28 1.03 1.04 1.03 2.33-.03 4.67-.01 7.01-.01 1.28 0 1.68.56 1.4 1.82-.09.38-.31.36-.57.36-3.52 0-7.03-.01-10.55.01-.69 0-.61-.4-.61-.83z"/><path d="m4573.67 4324.08c0-2.3.02-4.6-.01-6.89-.01-.91.35-1.3 1.29-1.3 3.15.03 6.3.02 9.46 0 .56 0 1.03-.04.97.78-.05.75-.06 1.41-1.07 1.4-1.41-.02-2.82 0-4.23 0-1.05 0-2.1.03-3.15-.01-.71-.03-.92.29-.89.94.03.92.04 1.84 0 2.76-.04.75.28.97.99.97 2.17-.03 4.33.05 6.5-.03.95-.04.88.45.87 1.08s.12 1.19-.91 1.16c-2.16-.09-4.33 0-6.5-.04-.75-.01-.99.25-.96.97.05.95.04 1.9 0 2.85-.03.69.26.93.93.92 2.36-.02 4.73-.01 7.09 0 1.26 0 1.71.6 1.42 1.82-.09.36-.31.37-.58.37-3.55 0-7.09-.01-10.64.01-.6 0-.6-.34-.6-.76.03-2.34.02-4.66.02-7z"/><path d="m4612.89 4337.64c.07-.03.14-.06.22-.08 3.13-.17 3.14-.18 4.23 2.75.97 2.6 1.94 5.21 2.9 7.83.45-.11.43-.45.52-.7 1.08-2.89 2.18-5.77 3.2-8.67.16-.83.94-1.38 1.77-1.25 2.1.08 2.1.02 1.32 1.97-1.65 4.11-3.32 8.21-4.93 12.33-.13.61-.72 1.02-1.34.93-1.85-.06-1.85-.01-2.55-1.75-1.67-4.17-3.34-8.34-5.01-12.51-.11-.27-.21-.54-.33-.85z"/></g><path d="m4658.82 4367.14c-.15-2.26.75-4.47 2.43-5.99 2.67-2.11 6.55-1.65 8.66 1.02.29.37.54.77.74 1.2 1.36 3.06.95 6.62-1.06 9.3-2.23 2.47-6.04 2.67-8.52.44-.75-.68-1.32-1.54-1.66-2.5-.41-1.1-.61-2.28-.59-3.47zm9.89.01c.06-1.06-.14-2.11-.57-3.08-.49-1.19-1.65-1.97-2.94-1.98-1.29-.09-2.51.64-3.02 1.83-1.11 2.18-1.03 4.78.22 6.88.84 1.51 2.74 2.05 4.25 1.21.53-.3.97-.74 1.25-1.28.62-1.08.91-2.33.81-3.58z" fill="#5bbeea"/><path d="m4624.47 4367.21c0-2.07.03-4.13-.02-6.2-.02-.76.23-.97.95-.93 1.8-.03 3.61.02 5.41.17 1.7.09 3.14 1.28 3.54 2.93.6 1.89-.22 3.95-1.95 4.91-.6.34-.61.58-.3 1.11.89 1.49 1.72 3.02 2.6 4.52.3.51.16.6-.4.68-1.34.38-2.74-.41-3.12-1.75-.45-1.15-1.22-2.17-1.77-3.29-.48-.97-1.32-.6-1.99-.55s-.37.72-.39 1.12c-.04 1.18-.04 2.37 0 3.55.03.67-.18.94-.89.92-2.05-.05-1.65.16-1.67-1.67s0-3.68 0-5.52zm2.56-2.78c0 2.47 0 2.47 2.36 2.32 1.62-.11 2.58-.99 2.58-2.37s-.86-2.1-2.58-2.16c-2.36-.1-2.36-.1-2.36 2.21z" fill="#5bbeea"/><path d="m4684.81 4374.29c-.77 0-1.49-.02-2.2 0-.45.02-.63-.26-.81-.59-.8-1.47-1.62-2.93-2.44-4.38-.59-.55-1.43-.74-2.2-.51-.27.18-.18.47-.18.72-.01 1.31-.04 2.63.01 3.94.02.66-.21.85-.85.83-2.11-.06-1.71.24-1.72-1.71-.03-3.88 0-7.75-.02-11.63 0-.66.15-.94.86-.9 1.87-.04 3.74.02 5.6.18 1.81.12 3.29 1.49 3.54 3.29.43 1.83-.44 3.71-2.1 4.57-.6.31-.54.55-.26 1.03.93 1.59 1.83 3.19 2.73 4.79.02.12.04.25.04.37zm-7.85-9.85c0 2.51 0 2.51 2.56 2.3.13-.01.26-.02.39-.04 1.02-.1 1.83-.88 1.97-1.9.23-1.6-.54-2.46-2.29-2.58-2.63-.17-2.63-.17-2.63 2.22z" fill="#5bbeea"/><path d="m4640.71 4315.67c1.99-.07 3.93.64 5.42 1.97.28.25 1 .42.52 1.02-.46.57-.93 1.28-1.87.84-.2-.11-.39-.25-.56-.39-2.33-1.87-5.71-1.65-7.77.52-2.09 2.44-2.06 6.05.06 8.47 2.07 2.22 5.52 2.42 7.83.45 1.05-.8 1.41-.76 2.26.09.38.38.33.58-.02.94-2.65 2.68-6.75 3.28-10.07 1.49-3.24-1.94-4.77-5.82-3.73-9.45.9-3.62 4.21-6.11 7.93-5.95z" fill="#003da5"/><path d="m4589.6 4367.23c0-2.1.02-4.2-.01-6.31-.01-.63.16-.86.82-.85 2.3.04 4.6.05 6.9 0 .89-.03.84.48.82 1.06-.02.55.2 1.2-.81 1.16-1.47-.07-2.96 0-4.44-.03-.56-.01-.76.18-.73.75.04.72.03 1.45 0 2.17-.02.52.2.69.7.68 1.21-.02 2.43.03 3.65-.02.93-.03.77.6.76 1.13s.2 1.18-.75 1.15c-1.15-.04-2.3.04-3.45-.03-.77-.04-.99.25-.91.96.11 1.03-.45 2.37.24 3.02.63.6 1.94.15 2.95.17.75.04 1.51.03 2.26-.01.68-.05.91.23.82.85-.07.51.32 1.24-.75 1.23-2.46-.01-4.92.03-7.38.08-.57.01-.73-.21-.72-.75.04-2.14.03-4.27.03-6.41z" fill="#5bbeea"/><path d="m4557.18 4370.51c-2.38 0-2.38 0-3.04 2.24-.51 1.71-.72 1.82-2.47 1.56-.48-.07-.53-.23-.4-.63 1.43-4.36 2.85-8.72 4.26-13.08.09-.27.2-.49.52-.49h2.26c.38 0 .46.28.55.58 1.39 4.27 2.76 8.54 4.17 12.8.23.71.04.89-.63.83-.2-.01-.39 0-.59.03-.89.14-1.44-.19-1.56-1.13-.03-.16-.07-.32-.12-.48-.62-2.23-.62-2.23-2.95-2.23zm-.04-8.33c-.45 1.59-.8 2.98-1.21 4.36-.59 1.98-.6 1.97 1.42 1.97.3 0 .6-.02.89 0 .56.04.69-.18.53-.7-.54-1.79-1.04-3.58-1.63-5.63z" fill="#5bbeea"/><path d="m4641.36 4360.08c1.94.04 1.58-.28 2.16 1.48 1.31 3.95 2.58 7.92 3.89 11.87.24.71.24.98-.67.89-1.82-.18-1.83-.12-2.3-1.85-.53-1.96-.53-1.96-2.56-1.96-2.72 0-2.71 0-3.48 2.59-.12.41-.03 1.04-.58 1.15-.67.14-1.37.16-2.05.06-.46-.08-.13-.55-.04-.83 1.09-3.37 2.18-6.74 3.28-10.1.23-.61.43-1.24.58-1.88.22-1.11.71-1.74 1.77-1.42zm.17 2.09c-.59 2.09-1.11 3.91-1.61 5.74-.11.4.01.62.48.61.75-.02 1.51-.02 2.27 0 .5.02.62-.15.48-.64-.55-1.83-1.05-3.66-1.62-5.71z" fill="#5bbeea"/><path d="m4616.98 4374.38c-1.21 0-2.43-.02-3.65 0-.5 0-.69-.17-.69-.69.02-4.3.02-8.61 0-12.91 0-.48.12-.72.66-.71 2.4.02 4.8.03 7.2 0 1.01-.01.62.71.67 1.18.05.52.13 1.05-.73 1.02-1.47-.05-2.96 0-4.44-.03-.59-.01-.79.17-.8.78-.08 2.8-.1 2.8 2.72 2.8.39.02.79.02 1.18-.01.92-.13 1.16.24 1.16 1.14s-.24 1.22-1.16 1.15c-1.04-.08-2.1 0-3.15-.03-.55-.02-.77.18-.75.74.03.89.04 1.78 0 2.66-.03.64.25.78.82.77 1.51-.03 3.02.04 4.53-.03.86-.04.86.42.85 1.03s.08 1.19-.87 1.14c-1.18-.05-2.36 0-3.55 0z" fill="#5bbeea"/><path d="m4648.77 4337.54c1.81 0 3.61.02 5.42-.01.6-.01.79.16.78.77-.04 2.41.19 2.04-2.05 2.06-3.02.03-2.55-.3-2.58 2.55-.02 2.96-.02 5.91.01 8.86 0 .62-.15.84-.81.84-2.35.01-2.35.04-2.35-2.33 0-2.92-.02-5.84.01-8.77.01-.86-.31-1.19-1.15-1.16-.89.04-1.77-.02-2.66.02-.64.03-.87-.25-.9-.87-.12-1.96-.13-1.96 1.85-1.96z" fill="#003da5"/><path d="m4578.96 4367.32c-.07.89.06 1.78.39 2.6.59 1.87 2.59 2.91 4.46 2.32.49-.16.95-.42 1.33-.77.79-.65 1.02-.15 1.45.32.47.52.6.89-.04 1.43-2.66 2.18-6.58 1.79-8.76-.86-.7-.86-1.17-1.89-1.34-2.99-.65-2.59-.05-5.34 1.61-7.43 2.15-2.46 5.87-2.77 8.41-.7.42.37.4.68.04.95-.42.31-.58 1.41-1.34.77-2.28-1.9-5.73-.67-6.18 3.18-.04.4-.04.79-.03 1.18z" fill="#5bbeea"/><path d="m4564.33 4367.4c.01-3.6 1.46-6.1 4.09-7.1 1.92-.82 4.12-.55 5.78.71.62.45.71.75.19 1.39-.58.7-.94.88-1.77.27-1.54-1.04-3.63-.63-4.66.92-.06.09-.12.18-.17.28-1.12 1.94-1.22 4.31-.28 6.34.69 1.79 2.7 2.68 4.49 1.99.4-.15.77-.38 1.08-.67.94-.8 1.18-.05 1.66.42.64.61.17.98-.27 1.34-2.64 2.12-6.5 1.7-8.62-.94-.2-.25-.38-.52-.54-.8-.72-1.26-1.05-2.7-.98-4.15z" fill="#5bbeea"/><path d="m4610.75 4325.05c0 1.97-.03 3.94.01 5.91.02.69-.19.97-.88.87-.23-.03-.46-.03-.69 0-.67.09-.83-.21-.82-.84.03-3.88.01-7.75.01-11.63 0-1.29 0-1.29-1.32-1.29-1.02 0-2.04-.03-3.06 0-1.1.03-.71-.78-.78-1.32-.08-.58.06-.88.77-.87 3.71.03 7.43.03 11.14 0 .78-.01.78.41.72.92-.06.52.34 1.28-.71 1.27-1.18-.02-2.37.02-3.55-.01-.64-.02-.87.24-.87.87.04 2.04.03 4.08.03 6.12z" fill="#003da5"/><path d="m4651.1 4368.43c0-1.77-.02-3.54.01-5.32.01-.63-.18-.89-.84-.86-.88.04-1.77-.01-2.66.01-.85.02-.63-.6-.6-1.03s-.35-1.15.59-1.15c3.18 0 6.37 0 9.55.01.97 0 .56.78.61 1.25.05.44.13.96-.62.93-.85-.03-1.71.04-2.56-.02-.75-.05-.95.22-.94.95.04 3.38-.04 6.76.05 10.14.03 1.19-.63 1.04-1.36 1.04s-1.33.08-1.25-1.03c.1-1.63.02-3.28.02-4.92z" fill="#5bbeea"/><path d="m4554.71 4345.1c0-2.17.03-4.32-.01-6.49-.02-.82.27-1.09 1.08-1.07 2.32.06 2.09-.25 2.09 2.03 0 4.04-.01 8.07.02 12.1 0 .68-.1.97-.89.96-2.28-.04-2.28 0-2.28-2.31z" fill="#003da5"/><path d="m4601.59 4367.16c0-2.07.03-4.14-.02-6.21-.01-.7.22-.96.9-.87.2.03.4.03.6 0 .77-.11 1.02.18 1 .97-.04 3.35.02 6.71-.04 10.05-.01.93.28 1.19 1.17 1.15 1.34-.07 2.7.02 4.04-.03.88-.03.71.55.72 1.04s.13 1.05-.73 1.04c-2.3-.04-4.6-.03-6.9 0-.65.01-.76-.28-.75-.83.02-2.1.01-4.2.01-6.31z" fill="#5bbeea"/><g transform="translate(4432.681 4282.194)"><path d="m107.98 35.23c-.54-3.29-1.56-6.49-3.03-9.48-1.41-3.1-3.32-5.96-5.65-8.45-1.9-2.29-4.16-4.27-6.69-5.85-6.64-4.44-14.8-5.97-22.61-4.26-4.68.92-9.08 2.9-12.87 5.81-2.27 1.56-4.3 3.44-6.03 5.58-5.25 6.38-7.9 13.65-6.78 21.92 1.22 9.17 6.49 17.31 14.35 22.18 3.33 2.33 7.4 3.32 11.42 2.78 4.87-.69 7.29-3.88 7.2-7.99-.01-.69.08-1.38.11-2.06 0-.84.43-1.62 1.14-2.06.78-.55 1.44-1.25 1.95-2.06 1.94-2.81 3.67-5.76 5.18-8.82 1.31-2.39 2.3-4.94 2.95-7.59.84-3.43-.61-7.01-3.6-8.89-1.07-.57-2.21-1.01-3.39-1.32-1.13-.34-2.32.29-2.68 1.41-.37 1.11.18 2.32 1.26 2.78.62.28 1.28.5 1.94.72 1.09.35 1.89 1.28 2.07 2.41.22 1.27.06 2.58-.47 3.75-1.83 4.68-4.22 9.12-7.11 13.24-.42.86-1.45 1.22-2.32.8-.36-.17-.65-.47-.81-.83-2.93-4.16-5.34-8.67-7.18-13.42-.39-.95-.55-1.97-.48-2.99 0-1.4.93-2.62 2.27-3.01.66-.2 1.3-.45 1.92-.75 1.03-.48 1.53-1.67 1.14-2.74-.32-1.06-1.42-1.69-2.5-1.41-1.82.34-3.51 1.15-4.92 2.35-2.41 2.39-3.16 5.98-1.92 9.13 1.97 5.72 4.8 11.1 8.4 15.97.15.25.35.47.6.64 1.49.84 2.18 2.6 1.66 4.23-.04.3-.07.59-.1.88.1 1.35-.91 2.54-2.27 2.64-2.33.53-4.77.22-6.9-.86-3.59-1.75-6.68-4.38-8.99-7.64-4.39-5.87-6.43-12.38-4.76-19.72 1.53-6.31 5.31-11.84 10.63-15.57-.24-.56-.52-1.1-.83-1.62.31.52.58 1.07.83 1.62 1.71-1.15 3.51-2.16 5.39-3.02 7.09-3.25 15.28-3.06 22.22.51 3.04 1.62 5.78 3.75 8.09 6.31.19.26.37.53.58.78 4.03 4.77 6.49 10.66 7.06 16.88.8 9.18-2.53 16.89-8.92 23.36-2.71 2.63-5.82 4.81-9.22 6.46-4.5 2.03-9.43 2.95-14.36 2.68-3.07-.27-6.09-1.01-8.94-2.18-2.2-.94-4.31-2.1-6.27-3.46-1.03-.84-2.54-.69-3.38.33-.04.05-.07.09-.11.14-.78 1.03-.58 2.51.45 3.29.04.03.09.06.13.09 5.17 3.82 11.32 6.09 17.74 6.54 5.79.48 11.6-.62 16.81-3.17 1.31-.49 2.55-1.14 3.71-1.94 4.57-2.75 8.49-6.46 11.48-10.88 4.88-7.03 6.82-15.71 5.41-24.17zm-49.39-21.12c.13.15.26.3.37.47-.12-.16-.24-.32-.37-.47z" fill="url(#b)"/><path d="m86.12 76.75c-2.57.86-5.2 1.55-7.86 2.07-2.69.29-5.39.39-8.1.29-3.33-.32-6.61-1.04-9.77-2.15-1.21-.47-2.58.13-3.06 1.34-.01.01-.01.03-.02.04-.49 1.18.07 2.55 1.25 3.04.03.01.06.03.1.04 3.56 1.35 7.31 2.14 11.11 2.35.33-.49.48-1.08.43-1.67.05.59-.1 1.18-.43 1.67 2.82.33 5.68.25 8.48-.22 3.23-.34 6.39-1.13 9.41-2.33 1.21-.5 1.79-1.89 1.29-3.1-.46-1.11-1.68-1.7-2.83-1.37z" fill="url(#c)"/><path d="m82.99 86.41c-2.35.5-4.72.8-7.09 1.12v4.7c2.75-.09 5.49-.49 8.15-1.19 1.26-.36 1.99-1.68 1.63-2.94-.33-1.17-1.49-1.9-2.69-1.69z" fill="url(#d)"/><path d="m68.2 87.39c-2.09-.24-4.15-.65-6.2-1.08-1.29-.27-2.55.55-2.82 1.84-.26 1.25.51 2.48 1.74 2.79 2.37.64 4.81 1.04 7.27 1.17 2.56.34 5.15.38 7.71.11v-4.7c-2.57.13-5.14.09-7.7-.13z" fill="url(#e)"/></g></g></svg>