<svg enable-background="new 0 0 300 100" viewBox="0 0 300 100" xmlns="http://www.w3.org/2000/svg"><path d="m171.21 34.8v30.55h-5.28v-13.78h-13.74v13.77h-5.28v-30.54h5.28v12.15h13.74v-12.15zm-29.59 30.55h-5.28v-30.55h5.28zm-10.49 0h-5.58l-13.74-22.46h-.13v22.46h-5.03v-30.55h5.58l13.78 22.5h.08v-22.5h5.03v30.55zm58.7-15.38-18.67-34.14h-68.76c-3.43 0-6.21 2.82-6.21 6.29v55.75c0 3.47 2.78 6.29 6.21 6.29h68.69z" fill="#65666a"/><path d="m175.78 84.17 18.71-34.2-18.65-34.14h4.67c2.55 0 5.66 1.86 6.9 4.12l16.4 30.02-16.46 30.08c-1.24 2.26-4.34 4.11-6.9 4.11h-4.67z" fill="#306199"/></svg>