<svg enable-background="new 0 0 300 100" viewBox="0 0 300 100" xmlns="http://www.w3.org/2000/svg"><g fill="#717074"><path d="m232.75 56.54c-.08-.24-.16-.47-.24-.71.01-.09-.01-.17-.07-.23-.39-1.34-.4-2.71-.38-4.09.01-.93.15-1.83.37-2.73.04-.1.1-.2.08-.31.22-.85.61-1.62 1.13-2.33.2-.26.44-.46.68-.67.08-.07.17-.14.25-.21.11-.07.21-.13.32-.2.34-.36.84-.43 1.25-.58.32-.11.77-.11 1.16-.11h.63c1.46.09 2.67.69 3.59 1.82.04.13.12.23.22.32.03.05.07.1.1.15.1.18.21.37.31.55.23.66.51 1.3.67 1.98.14.58.16 1.19.23 1.79-.02.11-.01.21.04.31v1.65c-.03.08-.06.15-.02.23-.05.13-.06.26-.04.39-.02.21-.05.42-.07.63 0 .05-.01.11-.01.16-.04.18-.11.36-.09.55-.02.05-.03.1-.05.16-.15.51-.3 1.02-.44 1.53-.04.09-.08.18-.12.27-.09.11-.16.23-.18.38-.21.32-.42.63-.63.95-.08.1-.16.2-.24.29-.15.14-.3.28-.46.42-.3.28-.68.42-1.02.64-.44.13-.89.26-1.33.38-.58 0-1.15 0-1.73 0-.61-.17-1.21-.34-1.78-.64-.71-.42-1.25-1-1.66-1.71-.03-.12-.08-.23-.17-.31-.07-.16-.15-.32-.22-.48.01-.1-.01-.18-.08-.24zm8.8-4.43c.02-.94-.07-1.88-.25-2.8s-.46-1.8-1.03-2.55c-1.58-2.1-4.66-1.73-5.82.69-.63 1.31-.8 2.72-.84 4.15-.04 1.52.05 3.03.56 4.48.33.94.82 1.79 1.71 2.3 1.78 1.02 3.92.28 4.82-1.64.69-1.48.84-3.04.85-4.63z"/><path d="m257.66 58.04c.41.47 1 .66 1.56.73 1.21.16 2.41.05 3.58-.35.32-.11.45-.31.39-.63.14-.11.07-.27.07-.4 0-3.12 0-6.23 0-9.35 0-1.13.01-2.27.01-3.4.37 0 .73.02 1.1-.01.34-.03.4.11.4.42-.01 4.23-.01 8.47 0 12.7v.27c0 .88 0 .88-.86 1.2-.15.05-.29.11-.43.17-.74.24-1.51.34-2.26.52-.71 0-1.41 0-2.12 0-.92-.17-1.81-.42-2.57-.99-.52-.5-.95-1.04-1.19-1.74-.12-.34-.1-.69-.17-1.03-.01-.42-.04-.83-.04-1.25 0-3.12 0-6.24 0-9.35 0-.15.04-.31-.04-.46.13-.12.06-.26.05-.39.5-.1 1.01-.03 1.52-.04.01.07.02.13.03.2 0 1.93-.01 3.86-.01 5.79 0 1.67-.02 3.34.02 5.01.02.87.23 1.7.92 2.32 0 .02.02.04.04.06z"/><path d="m269.54 59.68c-.13 0-.26 0-.39 0-.18-.05-.13-.2-.13-.33 0-4.56 0-9.12-.01-13.67 0-.27.09-.39.35-.47.35-.1.7-.24 1.04-.37.09.01.17 0 .24-.07.88-.22 1.76-.36 2.67-.41h1.18l.54.06c.13.02.27.03.4.05.05.02.11.03.16.05.05.01.1.02.15.02.44.18.88.37 1.32.55.26.21.52.42.78.62.04.07.07.14.12.2.19.23.35.31.59.01.27-.33.56-.65.97-.81.05-.03.1-.07.15-.1.64-.38 1.36-.53 2.06-.65.49-.08 1.01-.01 1.52.04.16.01.33.06.5.05.05.01.1.02.15.03.53.17 1.05.34 1.58.51.17.29.49.4.71.62.24.32.48.64.71.96.02.1.06.19.13.26.08.25.17.5.25.76 0 .11-.02.22.06.32.16 2.1.05 4.21.07 6.31.02 1.79.01 3.58.02 5.37-.47.15-.95.05-1.43.06-.19 0-.12-.2-.12-.32-.01-.84 0-1.67 0-2.51 0-2.59 0-5.18 0-7.76 0-.39-.03-.78-.11-1.17-.42-2-1.98-2.61-3.78-2.47-1.03.08-1.89.55-2.62 1.27-.27.27-.38.55-.38.93.01 3.86 0 7.71.02 11.57 0 .37-.07.53-.47.47-.34-.05-.81.15-1.01-.09-.17-.2-.06-.65-.06-.99 0-3.27 0-6.53 0-9.8 0-.95-.17-1.85-.91-2.54-.64-.59-1.44-.79-2.27-.84-1.14-.06-2.27.04-3.36.42-.28.1-.37.22-.37.52.01 4.27 0 8.55.02 12.82 0 .38-.07.56-.48.49-.19-.01-.38.03-.56.03z"/><path d="m222.77 59.66c-.46 0-.91 0-1.37 0-.18 0-.27-.06-.25-.25.01-.09 0-.18 0-.27 0-5.87 0-11.75 0-17.62 0-.15.07-.31-.07-.44 0-.05 0-.1 0-.15.1-.08.1-.17 0-.25 0-.21.17-.17.28-.17 2.65 0 5.3 0 7.95-.01.19 0 .24.07.24.25.04.86.05.86-.81.86-1.96 0-3.92.01-5.88.01-.05-.01-.08.02-.07.07v7.14c-.04.18-.02.3.21.3 1.91-.01 3.83-.02 5.74-.02.19.01.22.13.22.29 0 .26.01.51.02.77-.05.1-.16.07-.24.09-1.69 0-3.39-.01-5.08-.01-.24 0-.48.12-.73.08-.12-.02-.16.06-.15.17v.31c0 2.96 0 5.91-.01 8.85z"/><path d="m251.58 44.38c.03.01.05.01.08.02.22.02.51-.03.64.09.15.14-.13.38-.1.59-.1.13-.12.28-.16.42-.04.15-.12.25-.3.21-.3-.15-.63-.06-.94-.14-.77-.07-1.52.04-2.25.31-.24.09-.33.22-.27.46-.01.46-.02.91-.02 1.37v11.49c0 .53-.04.55-.55.48-.24-.04-.5-.02-.74-.01-.19.01-.26-.06-.25-.25.01-.26 0-.52 0-.78 0-4.22 0-8.44 0-12.66 0-.6.16-.81.75-.96.25-.06.49-.14.74-.21.08-.02.16-.04.24-.05.64-.18 1.29-.25 1.94-.32.08.02.17.03.24-.03.1-.01.21-.01.31-.02.22-.01.43-.01.64-.01z"/><path d="m202.02 48.38c-.28-.84-.56-1.68-.85-2.52-.03-.16-.07-.33-.16-.47.01-.23-.22-.37-.22-.62.5 0 .99.01 1.48-.01.2-.01.24.12.28.25.13.39.25.78.38 1.18.05.16.1.32.15.47.4 1.37.8 2.73 1.26 4.07.03.22.09.42.19.62.04.13.08.27.12.4.05.27.13.54.25.79-.01.02 0 .04.01.06.01.15.05.3.14.42.16.51.31 1.02.47 1.53.17.54.34 1.08.49 1.63.08.3.17.6.26.89.02.05.04.1.06.16 0 .19.02.5.15.51.2.02.13-.27.18-.42.3-.94.56-1.9.86-2.83.13-.39.19-.81.39-1.18.06-.04.06-.1.05-.16.03-.1.06-.21.09-.31.06-.04.07-.09.07-.16.09-.55.3-1.05.48-1.57.29-.86.53-1.74.79-2.61.02-.07.06-.14.09-.21.08-.07.06-.16.07-.24.06-.07.08-.15.08-.23.05-.04.07-.1.06-.16.27-.89.53-1.79.81-2.67.08-.25.32-.36.56-.3.33.09.67.05 1 .07v.31c-.22.07-.19.29-.25.44-.13.31-.21.65-.3.97-.12.16-.14.35-.2.54-.03.11-.07.21-.1.32-.03.08-.06.16-.08.24-.15.45-.3.89-.44 1.34-.09.26-.17.52-.26.78-.1.31-.21.63-.31.94-.04.1-.07.2-.11.3-.1.08-.05.19-.08.29-.06.19-.13.37-.19.56v.12c-.09.04-.11.13-.1.22-.33.95-.69 1.9-.96 2.87-.08.07-.07.17-.08.26-.11.22-.2.44-.23.68-.08.13-.12.27-.14.42-.14.42-.28.83-.41 1.25-.07.06-.07.15-.08.23-.08.14-.14.29-.15.46-.08.06-.07.16-.09.24-.16.36-.26.73-.36 1.11-.13.37-.25.73-.38 1.1-.19.6-.38 1.2-.57 1.8-.09.11-.12.25-.14.39-.1.1-.1.23-.11.36-.15.4-.29.81-.44 1.21-.1.32-.22.64-.31.96-.05.2-.15.23-.33.23-.42-.01-.83.01-1.25.01-.05-.01-.11-.02-.16-.03.03-.42.24-.77.4-1.14.27-.66.57-1.32.85-1.98.07-.07.1-.16.11-.25.16-.52.4-1 .63-1.49.04-.08.07-.15.11-.23.07-.16.1-.34.2-.49.14-.21.19-.44.08-.69-.13-.28-.22-.58-.32-.87-.02-.17-.06-.33-.16-.47-.03-.1-.06-.21-.1-.31-.03-.14-.06-.28-.14-.39-.06-.18-.11-.37-.17-.55-.04-.11-.08-.21-.12-.32-.25-.85-.58-1.67-.9-2.49-.09-.23-.13-.49-.19-.73-.15-.48-.28-.97-.5-1.42-.08-.25-.17-.51-.25-.76 0-.15-.05-.29-.14-.41-.17-.49-.34-.99-.53-1.48-.05-.13.01-.28-.1-.39-.05-.14-.09-.3-.19-.44z"/><path d="m151.64 49.49c.01.05.02.1.03.15.04.25.09.5.21.73.01.13-.01.26.09.37.15.66.31 1.32.53 1.96.01.38.19.73.26 1.09.1.34.21.68.31 1.02 0 .09-.04.18.05.24.02.1 0 .22.1.31.03.35.15.68.24 1.02.11.58.21 1.17.32 1.75h.06c.1-.53.2-1.06.3-1.6.17-1.08.51-2.11.82-3.16.16-.54.3-1.08.45-1.63.06-.07.08-.15.07-.23.14-.41.15-.85.33-1.25.07-.06.08-.15.07-.24.16-.56.36-1.12.46-1.7.07-.42.25-.8.34-1.2.1-.11.08-.25.1-.38.22-.82.44-1.65.66-2.47.03-.1.07-.19.11-.28.02-.05.04-.11.06-.16.13-.37.2-.75.27-1.13.15-.17.15-.39.2-.6.08-.28.16-.57.23-.85.04-.1.11-.2.08-.32 0-.21.05-.32.31-.31.44.02.88.01 1.31.01-.04.2-.09.41-.13.61-.2.68-.4 1.36-.6 2.04-.06.12-.12.25-.1.39-.06.07-.08.15-.07.24-.1.11-.07.25-.12.38-.14.65-.4 1.28-.54 1.94-.09.43-.27.85-.39 1.29-.26.75-.47 1.51-.67 2.28-.04.13-.07.26-.11.39-.09.29-.17.57-.26.86-.11.17-.11.37-.16.56-.05.18-.1.36-.15.54-.35 1.21-.7 2.41-1.05 3.62-.07.12-.1.25-.1.38-.07.07-.07.15-.07.24-.11.16-.14.36-.17.54-.14.33-.24.67-.29 1.03-.12.27-.22.56-.25.86-.16.3-.09.8-.36.9-.42.16-.92.1-1.38.02-.02-.04-.03-.09-.05-.13-.09-.54-.44-1.01-.48-1.55-.04-.51-.38-.92-.38-1.42.01-.09-.01-.17-.08-.24-.01-.06-.03-.12-.04-.17-.03-.09-.05-.17-.08-.26-.14-.48-.29-.97-.43-1.45-.01-.19-.05-.38-.16-.55-.06-.29-.1-.57-.29-.82-.15-.19-.04-.46-.13-.67-.02-.08-.05-.16-.07-.24-.23-.56-.35-1.15-.52-1.73.01-.17-.07-.32-.13-.48-.16-.51-.38-1.01-.48-1.53-.14-.73-.42-1.41-.6-2.12-.13-.51-.23-1.04-.44-1.52-.01-.2-.06-.38-.15-.55-.17-.52-.36-1.04-.51-1.56s-.26-1.05-.39-1.57c-.02-.05-.04-.11-.06-.16-.02-.12-.04-.25-.07-.37.08-.01.15-.02.23-.03.49.01.99.01 1.48.02.03.07.06.15.09.22.06.38.15.75.3 1.1 0 .14.04.27.1.39.21.78.42 1.57.63 2.35-.01.06 0 .12.05.16.26.97.46 1.95.79 2.9 0 .2.06.38.14.56 0 .34.23.61.26.93 0 .08 0 .17.07.24z"/><path d="m113.48 47.57c.29-.91.96-1.53 1.65-2.14.64-.56 1.41-.76 2.22-.88.4-.06.8-.06 1.21-.08.07.06.15.06.24.04.62.09 1.23.23 1.8.5.13.08.26.16.39.24.56.35.95.88 1.39 1.34l.01.01c.37.77.77 1.53.96 2.37.11.45.15.92.23 1.38.08.52.1 1.04.11 1.56.03.21-.04.43.04.63-.04.15-.07.31-.03.47-.01.08-.02.16-.03.24-.06 1.3-.33 2.55-.82 3.76-.4.81-.92 1.54-1.63 2.12-.16.1-.31.21-.47.31-.13.07-.27.13-.4.2-.28.09-.57.19-.85.28-.26.05-.53.09-.79.14-.05 0-.1 0-.15.01-.21 0-.42 0-.63 0-.08 0-.16 0-.24-.01-.08-.02-.16-.03-.24-.05-.43-.05-.86-.06-1.24-.29-.05-.02-.11-.04-.16-.06-.95-.4-1.68-1.07-2.2-1.95-.1-.34-.3-.63-.45-.95-.08-.21-.17-.41-.25-.62.02-.2-.06-.38-.13-.56-.03-.1-.05-.21-.08-.31-.05-.29-.1-.58-.15-.86-.21-.77-.06-1.57-.12-2.35-.1-1.18.14-2.32.41-3.46.06-.26.19-.5.29-.74.07-.08.1-.18.11-.29zm.72 4.68c.01 1.3.11 2.67.59 3.97.42 1.14 1.04 2.12 2.27 2.53 1.8.6 3.51-.22 4.32-2.04.48-1.08.67-2.22.74-3.38.11-1.66.04-3.31-.48-4.92-.33-1.03-.84-1.95-1.84-2.48-1.48-.79-3.84-.56-4.86 1.88-.59 1.4-.73 2.87-.74 4.44z"/><path d="m164.28 59.75c-1.37-.46-2.35-1.32-2.76-2.74.01-.06 0-.12-.05-.16-.03-.26-.07-.52-.1-.78 0-.05-.01-.11-.01-.16 0-.18 0-.36 0-.54 0-.05.01-.11.01-.16.06-1.68 1.01-2.77 2.36-3.6 1.3-.8 2.78-1.05 4.25-1.33.23-.04.46-.07.69-.11.16-.02.32-.04.48-.07.16-.02.31-.04.47-.06.06 0 .09-.03.09-.08.05-.91.01-1.81-.33-2.67-.06-.29-.22-.52-.44-.71-.06-.1-.14-.19-.25-.24-.54-.48-1.19-.64-1.89-.69-.44-.04-.89-.03-1.33.02-.18.01-.35.03-.52.11-.12.02-.23.03-.35.05-.05.02-.11.04-.16.06-.56.13-1.11.29-1.59.61-.17.12-.25.06-.33-.08-.04-.08-.08-.16-.11-.23-.02-.03-.03-.07-.05-.1-.26-.5-.22-.49.29-.76.89-.47 1.85-.61 2.81-.78.05-.01.11-.01.16-.02 1.28-.1 2.51.06 3.66.66.06.09.15.13.24.17.08.12.2.17.32.23.15.16.3.31.45.47.62.8.75 1.77.93 2.71.03.17-.04.38-.04.57v9.24c0 .16-.01.31-.02.47-.2.09-.41.19-.61.28-.14.06-.29.12-.43.17-.04.01-.07.03-.11.04-.74.26-1.5.38-2.27.47-.08.01-.16.02-.24.03s-.15.02-.23.03c-.13 0-.26.01-.39.01-.78-.03-1.57.01-2.33-.25-.08-.08-.17-.09-.27-.08zm5.44-4.97c0-1.15-.01-2.3 0-3.45 0-.24-.06-.33-.31-.29-1.5.19-2.99.45-4.37 1.13-1.54.76-2.27 2.01-2.17 3.74.09 1.57.94 2.63 2.46 2.99 1.38.32 2.74.2 4.08-.29.23-.09.32-.2.31-.45-.01-1.13 0-2.26 0-3.38z"/><path d="m188.96 53.33c.01.4.06.8.15 1.18.05.24.07.48.19.69-.01.09 0 .17.07.24 0 .18.09.33.18.48.58 1.54 1.68 2.5 3.29 2.87.12.03.26.02.39.02.05.04.1.05.16.02.15.06.31.05.47.05.11 0 .21-.01.32-.01 1.05-.08 2.09-.24 3.02-.77.29-.17.42-.09.49.17.04.15.13.28.2.42.01.14.17.27.03.43-.21.1-.42.2-.62.29-.23.08-.47.17-.7.25-.69.2-1.4.3-2.11.41-.13 0-.26 0-.39.01-.58-.01-1.15-.08-1.73-.15-.05-.01-.09-.01-.14-.02-.24-.07-.48-.15-.72-.22-.77-.2-1.39-.64-1.94-1.19-.29-.36-.58-.73-.87-1.09-.51-.75-.84-1.59-.99-2.46-.19-1.11-.29-2.25-.2-3.38.01-.09 0-.18 0-.27 0-.1.01-.21.01-.31.08-.58.1-1.18.25-1.75.25-.97.58-1.92 1.25-2.7.09-.06.15-.15.19-.25.15-.15.29-.31.44-.46.03-.03.07-.07.1-.1.03 0 .05-.02.05-.04.13-.1.27-.2.4-.3 1.47-1.03 3.07-1.05 4.74-.63.09.02.18.04.26.06.16.07.32.14.48.21.53.23.92.64 1.33 1.03.05.05.1.11.14.16.08.11.15.21.23.32.16.29.32.58.48.87-.01.15.06.27.14.38.05.16.07.33.18.47-.02.16.04.31.1.46.04.17.08.35.12.52.05.64.1 1.28.15 1.92.02.22.02.38-.27.45-.35.08-.69.16-1.05.15-.21 0-.41.02-.61.1-.08.01-.16.02-.24.02-.42.07-.83.14-1.25.21-.3-.01-.58.05-.87.13-.31.04-.62.08-.94.12-.05.02-.11.03-.16.05-.05 0-.1.01-.15.01-.08.01-.16.02-.24.03-.08.02-.15.03-.23.05-.16-.02-.32 0-.47.07-.54.07-1.08.15-1.62.27-.44.1-.92.05-1.37.18-.29.03-.13.2-.12.33zm-.06-1.35c.86-.13 1.67-.26 2.48-.38 1.78-.27 3.55-.54 5.33-.81.21-.03.32-.11.3-.35-.04-.78-.13-1.56-.37-2.31-.41-1.26-1.17-2.2-2.52-2.48-1.43-.3-2.75-.03-3.74 1.13-1.25 1.5-1.44 3.32-1.48 5.2z"/><path d="m75.36 49.23c.37.23.76.4 1.15.57.26.14.52.28.78.42.42.31.83.61 1.25.92.14.15.28.3.41.45.05.06.09.12.14.18.07.11.15.21.22.32.1.2.21.39.31.59.03.06.06.13.09.19.01.02.01.05.02.07-.01.06.01.12.06.16.07.31.14.62.2.94.02.34.04.68.05 1.02.01.47-.13.92-.18 1.39-.06.16-.12.32-.18.48-.08.16-.19.3-.21.48-.48.77-1.11 1.4-1.89 1.88-.77.44-1.62.64-2.49.75-.06-.02-.12-.01-.16.04-.08 0-.15.01-.23.01-.18 0-.37.01-.55.01-.76-.07-1.52-.1-2.27-.27-.13-.04-.27-.07-.4-.11-.48-.09-.94-.25-1.37-.49-.22-.13-.27-.29-.12-.5.01-.01.02-.02.03-.03.13-.23.22-.56.42-.67s.45.18.69.26c1.45.52 2.94.73 4.46.38 1.35-.31 2.29-1.13 2.66-2.49.38-1.39.2-2.7-.83-3.79-.81-.87-1.88-1.35-2.92-1.87-.71-.36-1.42-.71-2.09-1.15-1.66-1.11-2.4-2.66-2.28-4.64.03-.43 0-.87.21-1.26.06-.16.13-.32.19-.48.08-.24.17-.45.34-.66.76-.94 1.69-1.56 2.89-1.77.13-.02.25-.06.38-.1.11.01.22.01.32-.06 1.15-.08 2.28-.02 3.39.33.45.14.91.27 1.29.57.27.22-.09.38-.06.58-.1.17-.2.34-.3.51-.41-.11-.78-.3-1.16-.5-.1-.05-.22-.06-.33-.09-.38-.15-.77-.23-1.18-.23-.16-.05-.32-.11-.48.02-.03-.14-.14-.08-.23-.08-.05 0-.1.01-.16.01-.05 0-.11.01-.16.01-.05.01-.11.01-.16.02-.39 0-.76.05-1.11.24-.08 0-.16.03-.22.09-.05.01-.1.02-.15.04-1.41.67-2.12 2.5-1.59 4.12.18.48.29.99.7 1.34.07.14.15.25.3.31.37.44.89.67 1.36.96.12.1.25.17.4.21.15.16.35.19.54.25.04.1.14.08.21.12z"/><path d="m136.98 47.21c.04.16.09.32.13.48.04.21.08.41.12.62.1 3.65.02 7.3.04 10.95 0 .57.08.52-.52.52-.34 0-.68-.02-1.01-.03.01-.03 0-.05-.01-.07 0-.24 0-.47 0-.71.01-2.27.01-4.53.01-6.8 0-1.05-.01-2.11-.02-3.16-.07-1.03-.26-2.01-1.09-2.74-.12-.16-.28-.25-.47-.31-1.64-.63-3.28-.52-4.93-.01-.3.09-.4.23-.4.55.01 4.27 0 8.54.02 12.81 0 .38-.1.51-.47.46-.33-.05-.77.14-.98-.07s-.06-.65-.06-.98c0-4.28 0-8.57-.01-12.85 0-.3.07-.49.37-.6 1.15-.4 2.33-.67 3.55-.76.98-.08 1.95.04 2.91.23.29.11.59.22.88.33.47.21.86.54 1.23.9.09.11.18.22.26.34.11.21.22.41.33.62.04.08.08.18.12.28z"/><path d="m101.83 50.81c.02-.9.25-1.75.57-2.58.06-.04.07-.09.06-.16.01-.02.02-.04.02-.06.09-.08.11-.19.13-.3 0-.04 0-.07 0-.11.18-.07.2-.23.24-.39.24-.4.47-.81.81-1.14.08-.04.13-.1.15-.19.37-.39.79-.7 1.27-.93.54-.25 1.1-.41 1.69-.45.13-.01.26-.02.39-.04h.24.23c.45.08.89.16 1.34.24.49.09.9.4 1.36.57.25.1.03.29.03.44-.08.18-.16.36-.24.54-.24.31-.42.01-.59-.08-1.27-.67-2.87-.82-4.11.09-.08.06-.14.15-.21.22-.24.18-.42.41-.57.66-.14.14-.25.31-.31.5-.16.16-.22.37-.29.57-.22.56-.47 1.11-.49 1.72-.07.07-.07.15-.05.24-.19 1.04-.24 2.08-.11 3.13 0 .22-.01.43.08.64.07.92.34 1.78.75 2.6.09.22.17.45.35.61.04.13.12.23.22.32.06.13.15.23.27.31.29.36.66.63 1.09.81.27.16.56.23.87.22.05.01.11.02.16.03.24.05.48.04.71-.03.05-.01.1-.01.15-.02.08-.01.16-.01.23-.02.11-.01.21-.02.29-.11.4-.12.82-.2 1.15-.48.2-.16.34-.12.41.11.08.3.38.53.27.88-.42.25-.87.46-1.33.64-.21.05-.42.1-.63.15-.42.03-.84.06-1.26.09-.24-.02-.47-.05-.71-.07-.16-.03-.3-.11-.47-.08-.17-.09-.35-.15-.54-.18-.09-.07-.19-.14-.32-.13-.15-.1-.34-.14-.46-.29-.08-.06-.17-.11-.25-.17s-.16-.12-.24-.18c-.07-.11-.16-.2-.28-.25-.18-.21-.37-.42-.55-.62-.2-.33-.41-.65-.61-.98-.12-.3-.25-.6-.37-.89 0-.12-.05-.23-.11-.33-.16-.56-.35-1.12-.38-1.71-.02-.11-.03-.21-.05-.32-.13-.47-.02-.97-.1-1.43s.06-.88.05-1.31c.07-.07.07-.18.05-.3z"/></g><path d="m183.62 38.27c-.01.18-.02.36-.02.55 0 6.83 0 13.66.01 20.49 0 .38-.1.52-.47.46-.18-.03-.37 0-.55 0-.49 0-.62-.15-.54-.63.06-.35.08-.69-.02-1.03-.06-.19.11-.37.07-.57-.12-.66-.04-1.33-.04-1.99 0-.59.01-1.2.01-1.79 0-.66 0-1.33-.01-1.99 0-.62.01-1.25.01-1.87 0-.63-.01-1.28-.01-1.91s.01-1.28.01-1.91c0-.62-.01-1.25-.01-1.87 0-.63.01-1.28.01-1.91 0-.59 0-1.2-.01-1.79-.01-.79-.04-1.59.04-2.38.01-.09 0-.19.14-.19.42 0 .84 0 1.25.01.1 0 .11.09.14.16-.01.05-.01.11-.01.16z" fill="#6e6d71"/><path d="m175.62 59.59c.01-.17.02-.34.02-.51 0-6.89 0-13.77-.01-20.66 0-.39.08-.55.49-.49.2.03.42.03.63 0 .36-.06.43.09.43.43-.01 5.57-.01 11.13-.01 16.7 0 1.44-.01 2.88.01 4.31 0 .34-.1.43-.42.4-.36-.03-.73-.01-1.1-.01-.01-.05-.03-.11-.04-.17z" fill="#6e6d71"/><path d="m91.75 48.9v10.3c0 .67.08.56-.55.57-.24 0-.47-.01-.71 0-.2.01-.3-.05-.27-.26.01-.05 0-.1 0-.16 0-6.97 0-13.95-.01-20.92 0-.37.05-.57.48-.5.33.05.77-.14.98.08.22.21.07.64.07.98.01 3.3.01 6.6.01 9.91z" fill="#6e6d71"/><path d="m85.55 52.26c0 2.36-.01 4.73.01 7.09 0 .31-.06.45-.4.42-.3-.03-.6-.01-.9 0-.17 0-.24-.06-.23-.23.01-.06 0-.13 0-.2 0-4.73 0-9.46-.01-14.19 0-.3.07-.42.39-.39.37.04.87-.16 1.09.08.18.21.06.7.06 1.06-.01 2.13-.01 4.25-.01 6.36z" fill="#6e6d71"/><path d="m97.76 59.78c-.37-.01-.73-.02-1.1-.01-.18 0-.27-.05-.25-.24.01-.06 0-.13 0-.2 0-4.72 0-9.45 0-14.17 0-.18-.07-.41.25-.4.29 0 .58.04.86 0 .34-.04.44.1.41.4 0 .65-.01 1.31-.01 1.96v12.62c-.05.02-.1.03-.16.04z" fill="#6e6d71"/><path d="m85.84 40.39v.44c-.16.4-.44.68-.85.81-.98.06-1.21-.45-1.24-1.05-.04-.72.53-1.16 1.24-1.01.08.02.15.03.23.04.05.03.1.06.15.09.06.04.11.09.17.13.09.18.19.37.3.55z" fill="#717074"/><path d="m96.52 39.76c.75-.52 1.69-.05 1.72.94-.09.34-.27.62-.56.82-.48.16-.94.23-1.31-.23-.06-.09-.11-.18-.17-.28-.06-.36-.19-.72.1-1.04.08-.07.15-.14.22-.21z" fill="#717074"/><path d="m23.19 36.25c-.54.1-1.08.21-1.63.24.14-.39.27-.77.41-1.16.14-.4.39-.75.46-1.17 0 0-.01.01-.01.01.06.01.07-.03.07-.08.38-.4.89-.62 1.36-.88.37-.21.72-.47 1.16-.53-.69 1.14-1.34 2.31-1.82 3.57z" fill="#31aadb"/><path d="m37.35 33.44c-.91-.99-1.94-1.83-3.02-2.61.95-.01 1.89.08 2.81.36.05.06.11.1.19.08h-.01c.03.14.16.2.25.29.48.49 1 .94 1.42 1.5-.52.23-1.08.3-1.64.38z" fill="#a4509a"/><path d="m34.8 29.3c.71.1 1.41.2 2.12.32.45.07.89.18 1.34.27.08.01.16.03.24.04.15.09.3.14.47.14.04.01.08.02.13.03.66.23 1.33.46 1.99.69.01.02.03.02.05.01 1.11.56 2.24 1.09 3.31 1.73.09.1.18.2.33.22.11.1.22.21.33.31.1.39.09.73-.27 1.01-.17.13-.4.01-.54.18-.11-.03-.22-.08-.34-.08-1.29-.04-2.58 0-3.85.24-.55.05-1.09.15-1.61.32-2.08.49-4.01 1.35-5.8 2.51-.07.05-.17.08-.17.2-.6.19-1.04.59-1.47 1.03-.84.57-1.53 1.29-2.2 2.05-.25.28-.51.55-.74.85-.34.44-.76.84-.92 1.41-.19.11-.28.3-.39.48-1.29 2.05-2.11 4.29-2.56 6.66-.13.7-.29 1.4-.2 2.13-.15.11-.14.27-.14.42 0 .48-.01.96 0 1.44.01.31-.06.62.09.92.01.25.01.49.05.74.1.75.17 1.5.41 2.22.11.6.24 1.19.51 1.74.03.13.05.26.09.38.54 1.46 1.21 2.86 2.09 4.14.29.42.52.9.96 1.21.22.52.61.88 1.03 1.24.01.15.13.22.22.31.51.52 1.04 1.03 1.62 1.47.42.32.79.73 1.3.91.06.23.35.28.4.55.06.37-.07.65-.31.91-.05.03-.11.05-.16.08-.1 0-.21 0-.31 0-.44-.09-.89-.11-1.33-.15-.05 0-.11-.01-.16-.01-.32-.13-.66-.14-.99-.2-.92-.15-1.79-.48-2.69-.67-.08-.1-.2-.09-.3-.11-.17-.13-.36-.17-.56-.21l-.02-.01s-.02.01-.02.01c-.04-.02-.08-.04-.11-.05l-.03-.02h-.04c-.04-.06-.1-.08-.17-.08l-.02-.02s-.02.01-.02.01c-.04-.02-.08-.04-.12-.06-.02-.01-.05-.02-.07-.02-.86-.44-1.73-.88-2.59-1.32-.04-.03-.09-.06-.13-.08-.23-.18-.46-.35-.73-.46-.04-.03-.08-.06-.12-.09-.28-.23-.55-.48-.89-.64-.03-.02-.05-.04-.08-.06-.11-.13-.23-.26-.4-.31-.04-.09-.11-.15-.21-.16-.04-.03-.07-.05-.11-.08h.01c-.03-.03-.06-.05-.09-.08-.03-.03-.05-.05-.08-.08s-.05-.05-.08-.08c-.03-.02-.05-.04-.08-.07s-.06-.06-.09-.09c-.02-.02-.04-.04-.07-.06 0 0-.02-.01-.02-.01-.02-.07-.07-.07-.13-.07-.03-.03-.06-.07-.08-.1 0-.05-.02-.08-.07-.09-.02-.09-.07-.14-.17-.15-.09-.16-.22-.27-.37-.36-.07-.1-.13-.22-.25-.27-.19-.21-.37-.41-.56-.62-.03-.03-.05-.06-.08-.09-.32-.4-.63-.82-1.01-1.19-.27-.5-.61-.95-.95-1.4-.2-.39-.42-.78-.69-1.14.01-.02 0-.03-.01-.04-.02-.04-.05-.08-.07-.12.01-.02.01-.03-.01-.04-.05-.15-.1-.3-.23-.4-.01-.13-.09-.22-.16-.31.01-.09-.04-.16-.09-.23-.28-.74-.61-1.46-.87-2.21-.31-.9-.51-1.82-.76-2.73-.01-.05-.01-.11-.02-.16.02-.07.02-.14-.05-.2 0-.04-.01-.07-.01-.11-.08-.63-.16-1.25-.24-1.88 0-.05 0-.1-.01-.16-.01-.68-.01-1.36-.02-2.04 0-.05.01-.11.01-.16.02-.02.02-.05 0-.07.01-.24.01-.47.02-.71.1-.41.12-.83.15-1.26 0-.05.01-.1.01-.16.14-.46.2-.93.25-1.4h-.01c.16-.38.21-.79.3-1.19.02-.02.02-.03.01-.05.01-.03.03-.07.04-.1.02-.08.04-.15.05-.23.15-.27.22-.57.28-.87.02-.02.02-.04.02-.06.29-.71.58-1.42.87-2.12.15-.19.26-.4.31-.63.28-.47.56-.95.85-1.42.02-.02.02-.04.02-.06.08-.06.14-.14.15-.25.26-.28.46-.6.64-.93h-.01c.03-.03.05-.06.08-.09.02-.03.05-.06.07-.09.14-.1.23-.24.3-.39.02-.01.03-.03.02-.05.03-.03.05-.07.08-.1.03-.03.05-.06.08-.08.03-.03.05-.05.08-.08.1-.04.14-.13.17-.23.15-.04.22-.15.26-.28 0 0 .01-.01.01-.01.08-.02.13-.08.14-.16 0 0 0 0-.01 0l.08-.08c.08-.03.12-.09.15-.17.27-.15.42-.42.62-.64.23-.19.5-.34.64-.62.16-.07.29-.17.37-.33.06-.05.11-.1.17-.15.05.01.08-.02.1-.07v.01c.09-.03.18-.08.22-.17.03-.03.06-.05.09-.08v.01c.53-.39 1.07-.78 1.6-1.17.02.01.03 0 .04-.02.03-.02.06-.05.09-.07v.01c.15-.05.29-.12.39-.24.11-.04.22-.07.29-.17 0 0 .01-.01.01-.01.95-.52 1.9-1.03 2.92-1.41.61-.23 1.22-.45 1.83-.68.07-.01.14-.03.2-.04.03-.01.06-.03.09-.04v.01c.57-.13 1.15-.27 1.72-.4.05 0 .1-.01.15-.01.26-.04.53-.04.79-.15.11-.01.21-.01.32-.02.37-.05.75-.03 1.11-.13.97 0 1.98 0 2.99 0zm2.53 1.96c-.03-.11-.12-.07-.19-.08-.92-.28-1.86-.37-2.81-.36-.13-.02-.26-.04-.39-.04-1.56-.06-3.09.07-4.62.39-1.49.31-2.91.78-4.28 1.45-.02.01-.03.03-.04.04-.44.06-.79.33-1.16.53-.47.26-.98.48-1.36.88-.02.03-.05.05-.07.08l.01-.01c-.16.02-.28.13-.4.22-1.12.81-2.15 1.73-3.07 2.76-.43.43-.81.91-1.16 1.4-.18.25-.48.46-.45.83-.16.11-.28.26-.38.43-1.03 1.67-1.8 3.46-2.28 5.37-.28 1.11-.54 2.22-.51 3.38-.04.07-.1.13-.1.2 0 .85-.1 1.71.06 2.56.07 1.58.39 3.1.9 4.59.17.81.58 1.52.88 2.28.04.11.12.2.22.26.02.17.09.32.17.47 1.07 2.05 2.48 3.85 4.2 5.39.62.56 1.24 1.15 2.03 1.5.02.05.02.12.06.14.74.48 1.47.98 2.31 1.3.94.55 1.97.88 3 1.2.44.14.89.27 1.33.32-.59-.62-1.18-1.24-1.77-1.86-.26-.5-.63-.92-1.02-1.32-.02-.05-.03-.1-.06-.14-1.17-1.63-2.07-3.4-2.74-5.29-.16-.46-.24-.96-.5-1.39-.01-.62-.22-1.2-.36-1.79-.13-1.01-.28-2.01-.28-3.03 0-.63 0-1.25-.01-1.88.13-.98.27-1.97.4-2.95.03-.07.07-.14.08-.22.33-1.58.86-3.09 1.56-4.55.23-.42.47-.83.67-1.26.2-.44.59-.78.67-1.28.09-.11.22-.17.3-.29.87-1.29 1.92-2.44 3.05-3.51.46-.4.99-.73 1.41-1.19.1-.06.2-.12.29-.19 1.36-.98 2.8-1.81 4.35-2.43.69-.28 1.38-.52 2.08-.78.56-.08 1.11-.15 1.63-.39.85-.11 1.71-.22 2.64-.34-.18-.1-.29-.18-.4-.22-.82-.34-1.64-.68-2.49-.92-.47-.09-.92-.28-1.4-.26z" fill="#8fc544"/><path d="m44.29 34.25c.14-.17.37-.04.54-.18.36-.28.37-.62.27-1.01.15.08.3.17.45.25v-.01c.03.03.06.05.09.08.15.17.34.3.54.41.02.02.05.04.07.06.15.17.31.32.52.42 0 0 .01.01.01.01.31.37.7.66 1.05.98.06.05.11.1.17.15.02.03.05.05.07.08.02.03.05.06.07.08l.08.08c.05.05.1.1.15.16.3.36.57.73.94 1.03.04.14.12.25.24.32.02.02.04.05.06.07.23.39.51.76.8 1.11.01.06.03.11.09.14.02.03.05.06.07.1 0 .06.02.12.08.14.14.25.25.52.46.72.14.36.33.7.56 1.01 0 .07.01.12.07.16.03.03.05.06.08.09h-.01c.26.62.52 1.25.78 1.87.33.79.52 1.63.81 2.43.01.05.02.1.02.15.11.65.24 1.3.34 1.96.22 1.44.22 2.88.18 4.33 0 .1-.05.2-.07.3-.31.4-.68.49-1.11.31-.14-.06-.13-.3-.34-.23-.02-.18-.04-.36-.14-.52-.37-.62-.69-1.26-1.1-1.84-.3-.43-.56-.91-1-1.23-.24-.52-.65-.89-1.07-1.25-.07-.09-.12-.2-.2-.28-1.06-1.05-2.22-1.99-3.49-2.76-.5-.31-.98-.69-1.58-.81-.02-.02-.04-.04-.05-.06-.49-.36-1.05-.57-1.64-.71-.92-.45-1.89-.71-2.89-.88-.57-.21-1.18-.23-1.78-.31-.34-.05-.68-.17-1.02-.02-.13-.03-.25-.09-.38-.09-1.33-.03-2.66.01-3.98.24-1.69.3-3.32.81-4.89 1.5.16-.56.58-.96.92-1.41.23-.3.49-.57.74-.85.51-.13 1.03-.26 1.54-.4 1.08-.29 2.2-.39 3.3-.55.69 0 1.37.01 2.06 0 .31-.01.62.07.92-.05.11.03.22.07.34.08 1.1.11 2.19.29 3.26.55.44.11.86.29 1.32.32.55.31 1.16.47 1.75.67.02.02.03.05.05.06 2.02.86 3.85 2.03 5.52 3.46.25.21.42.55.79.6.23.55.73.85 1.13 1.25.51.68 1.02 1.36 1.53 2.04.04-.26.03-.49 0-.71-.17-1.28-.37-2.54-.84-3.75-.23-.95-.61-1.84-1.1-2.68-.03-.07-.04-.15-.08-.22-.8-1.52-1.77-2.91-2.93-4.17-.95-1.07-2.02-1.96-3.14-2.79z" fill="#f49524"/><path d="m36.46 41.12c.34-.15.68-.03 1.02.02.6.08 1.2.1 1.78.31.2.2.4.41.6.61 1.02.97 1.87 2.08 2.71 3.19.5.85.99 1.71 1.49 2.56.66 1.52 1.25 3.06 1.59 4.68.11.61.21 1.23.32 1.84.2 1.88.2 3.77-.09 5.64-.1.63-.21 1.25-.32 1.88-.23.51-.37 1.04-.46 1.58-.28.5-.42 1.04-.64 1.56-.12.28-.34.52-.3.85-.02 0-.03 0-.05 0 0 0 .01.01.01.01.01 0 .02-.01.03-.01 1.26-.85 2.42-1.82 3.41-2.99.67-.7 1.28-1.43 1.74-2.29.39-.4.61-.9.87-1.38 1.26-2.31 1.98-4.78 2.25-7.39.21-.07.2.17.34.23.43.18.79.1 1.11-.31.01.1.01.21.02.31 0 .08-.01.16-.01.23-.08.55-.16 1.09-.25 1.64-.06.04-.06.1-.05.16-.01.08-.02.16-.03.24-.08.15-.11.31-.12.47-.05.19-.13.38-.12.58-.2.62-.4 1.23-.6 1.85-.02.02-.03.04-.02.06-.43 1-.86 2.01-1.4 2.96-.41.74-.93 1.41-1.36 2.14h.01c-.02.03-.05.06-.07.09-.02.03-.05.06-.07.08-.23.29-.47.57-.7.86-.15.14-.29.29-.39.47-.23.17-.41.38-.57.61l.02.01s-.02-.02-.02-.02c-.2.13-.37.3-.51.5-.08.03-.14.09-.17.17-.04 0-.06.02-.06.06-.03.03-.06.05-.08.08-.08.03-.15.07-.17.15-.03.03-.05.05-.08.08-.21.13-.41.27-.55.48-.03.02-.05.03-.08.05-.1.03-.18.09-.22.18-.03.02-.06.05-.09.07-.1.02-.18.07-.23.17-.33.23-.66.47-.99.7-.04.03-.07.06-.11.09-.11.06-.23.12-.34.18-.8.47-1.58 1-2.48 1.29-.72-.31-.84-.64-.5-1.37.82-1.12 1.41-2.36 1.89-3.65.2-.5.44-.98.48-1.53.11-.09.12-.22.16-.35.49-1.87.71-3.78.63-5.71-.01-.16.04-.34-.08-.49 0-.24.05-.5-.01-.73-.08-.33.07-.72-.23-1.01.04-.08.08-.16.07-.26-.18-.92-.34-1.84-.7-2.71-.12-.54-.31-1.06-.56-1.55-.18-.35-.24-.77-.53-1.06-.44-1.14-1.15-2.12-1.87-3.1-1.22-1.54-2.68-2.87-4.27-4.06z" fill="#ed5e2f"/><path d="m41.46 67.37c-.34.73-.23 1.06.5 1.37-.14.08-.27.15-.41.23-.03 0-.05 0-.07.02-.03.02-.06.04-.09.05v-.01c-.26.07-.51.16-.74.31l-.02-.01s-.02.01-.02.01c-.86.26-1.73.53-2.59.79-.11-.01-.22 0-.31.08-.43.02-.84.12-1.26.22-.05.01-.1.01-.15.02-.16-.01-.32-.02-.47.07-.11.01-.21.01-.32.02-.07-.01-.14-.01-.19.05-.2.01-.39.02-.59.03-.21 0-.43-.05-.63.05-.05 0-.1.01-.15.01-.31 0-.63 0-.94 0-.2-.01-.41-.01-.61-.02 0-.02 0-.03-.01-.05.23-.26.37-.54.31-.91-.04-.26-.33-.32-.4-.55 1.53.1 3.05-.04 4.56-.32 1.6-.27 3.12-.8 4.6-1.46z" fill="#a4509a"/><path d="m35.96 63.16c-.16-.02-.26.11-.37.19-1.97 1.4-4.09 2.48-6.43 3.12-.41-.35-.81-.72-1.03-1.24 1.24-.32 2.44-.74 3.59-1.31.8-.39 1.62-.78 2.31-1.37.56-.23 1.01-.61 1.43-1.03.82-.59 1.55-1.29 2.2-2.06.13-.08.24-.18.34-.31.33-.46.69-.91 1.03-1.36.14-.18.37-.32.33-.6.35-.29.53-.71.74-1.09 1.34-2.38 2.16-4.92 2.41-7.64 0-.05.03-.1.05-.14.3.29.36.7.53 1.06.25.49.44 1.01.56 1.55-.22.84-.42 1.68-.72 2.5-.27.71-.55 1.42-.83 2.13l.01-.01c-.03.03-.06.05-.08.08-.22.25-.26.58-.43.86-.33.56-.76 1.07-.98 1.7-.06.05-.12.1-.16.16-.9 1.34-1.99 2.5-3.15 3.61-.25.2-.51.39-.75.61-.2.21-.48.31-.6.59z" fill="#a4509a"/><path d="m16.93 54.69c-.33.63-.41 1.33-.54 2-.12.58-.18 1.17-.26 1.76-.1-.07-.18-.15-.22-.26-.29-.76-.71-1.47-.88-2.28.18-.84.42-1.66.68-2.48.2-.54.4-1.07.6-1.61.44-.77.79-1.58 1.26-2.33.81-1.31 1.72-2.54 2.82-3.63.08-.08.17-.17.19-.29.53-.33.93-.8 1.37-1.23.49-.36.97-.73 1.47-1.08.78-.54 1.57-1.07 2.45-1.44-.08.5-.47.84-.67 1.28-.2.43-.45.84-.67 1.26-.9.48-1.66 1.14-2.37 1.86-.48.36-.9.78-1.24 1.28-.09.08-.18.15-.26.23-.92 1.1-1.73 2.27-2.39 3.54-.31.6-.65 1.18-.8 1.85-.3.5-.5 1.01-.54 1.57z" fill="#f49524"/><path d="m29.91 60.49c-.55-.18-1.13-.15-1.7-.24-1.09-.18-2.17-.43-3.23-.75-.27-.55-.4-1.14-.51-1.74.33.11.66.22.99.32.6.18 1.2.4 1.84.45.91.24 1.83.4 2.77.37 1.04.17 2.08.08 3.11-.02 2.16-.2 4.21-.81 6.18-1.68.04.28-.18.42-.33.6-.35.45-.7.9-1.03 1.36-.09.13-.2.23-.34.31-.32.02-.6.16-.9.25-1.31.37-2.65.55-4 .72-.68.01-1.37.01-2.05.04-.26.01-.53-.12-.8.01z" fill="#d21f2f"/><path d="m29.21 38.02c-2.08-.45-4.18-.49-6.29-.24-.1.01-.2.06-.3.09-.54.01-1.07.13-1.59.28-1.29.24-2.5.73-3.7 1.23-.03-.37.27-.58.45-.83.35-.49.72-.98 1.16-1.4.87-.22 1.74-.43 2.61-.65.55-.03 1.09-.14 1.63-.24 1.1-.06 2.21-.13 3.32-.07 1.4.08 2.77.28 4.13.65-.42.45-.95.78-1.42 1.18z" fill="#ed5e2f"/><path d="m30.07 58.91c-.94.03-1.86-.13-2.77-.37-1.24-1.11-2.32-2.37-3.28-3.73-.15-.29-.09-.61-.09-.92-.01-.48 0-.96 0-1.44 0-.15-.02-.32.14-.42.61 1.06 1.25 2.1 2.02 3.06 1.06 1.33 2.27 2.5 3.64 3.51.12.09.22.21.34.31z" fill="#31aadb"/><path d="m17.46 53.14c1.54 1.59 3.31 2.88 5.3 3.85.13.59.35 1.17.36 1.79-2.32-.97-4.38-2.35-6.19-4.09.04-.56.24-1.07.53-1.55z" fill="#d21f2f"/><path d="m41.61 40.46c-.72-2.09-1.78-3.98-3.11-5.73.52-.17 1.06-.27 1.61-.32 1.46 2.06 2.59 4.28 3.25 6.73-.6-.21-1.21-.37-1.75-.68z" fill="#a4509a"/><path d="m22.48 52.09c-.75-1.45-1.25-2.98-1.57-4.57.34-.5.77-.91 1.24-1.28.16.99.37 1.96.73 2.9-.14.98-.27 1.96-.4 2.95z" fill="#31aadb"/><path d="m32.53 37.43c1.47.52 2.86 1.22 4.16 2.08-.3.12-.61.04-.92.05-.69.01-1.37 0-2.06 0-.12-.07-.24-.15-.37-.21-.74-.35-1.51-.61-2.28-.89.42-.44.87-.84 1.47-1.03z" fill="#ed5e2f"/><path d="m16.3 51.82c-.2.54-.4 1.07-.6 1.61-.54-.69-1.15-1.34-1.58-2.12-.16-.85-.06-1.71-.06-2.56 0-.07.07-.14.1-.2.6 1.17 1.3 2.27 2.14 3.27z" fill="#d21f2f"/><path d="m45.64 52.49c1.11-1.17 1.99-2.51 2.72-3.95.27-.52.49-1.06.74-1.6.42.36.84.73 1.07 1.25-1.04 2.3-2.42 4.36-4.22 6.14-.09-.61-.2-1.23-.31-1.84z" fill="#d21f2f"/><path d="m43.83 43.1c.17 1.33.3 2.66.25 4.01-.01.23-.02.47-.02.7-.5-.85-.99-1.71-1.49-2.56-.04-.99-.23-1.96-.42-2.92.59.14 1.14.36 1.64.71.01.02.03.04.04.06z" fill="#a4509a"/><path d="m49.71 45.24c.36-1.26.6-2.55.72-3.86.49.84.88 1.73 1.1 2.68-.22.81-.39 1.64-.69 2.43-.4-.4-.9-.7-1.13-1.25z" fill="#d21f2f"/><path d="m37.31 61.97c2.16.46 4.33.48 6.51.22-.04.55-.27 1.03-.48 1.53-2.32.24-4.63.1-6.9-.41-.16-.04-.32-.1-.48-.15.12-.28.41-.39.61-.58.23-.21.49-.4.74-.61z" fill="#31aadb"/><path d="m45.56 61.85c1.29-.3 2.52-.78 3.74-1.28-.46.86-1.07 1.59-1.74 2.29-.13.03-.25.05-.38.08-.69.19-1.37.41-2.09.5.1-.55.24-1.08.47-1.59z" fill="#31aadb"/><path d="m21.04 38.14c.52-.15 1.05-.27 1.59-.28-.45 1.64-.69 3.3-.74 5-.01.49.03.99.05 1.48-.44.43-.85.9-1.37 1.23-.29-2.5-.13-4.98.47-7.43z" fill="#31aadb"/><path d="m29.91 60.49c.27-.13.53 0 .8-.01.68-.02 1.37-.03 2.05-.04.86.46 1.79.75 2.7 1.09-.43.41-.87.8-1.43 1.03-1.47-.5-2.85-1.16-4.12-2.07z" fill="#31aadb"/></svg>