<svg enable-background="new 0 0 300 100" viewBox="0 0 300 100" xmlns="http://www.w3.org/2000/svg"><g fill="#144f30"><path d="m95.78 46.36c-.48 0-.64-.16-1.04-1.12-.24-.56-.8-1.52-1.6-1.92-.48-.32-1.04-.4-1.68-.4s-.72.32-.72.72v10.31c0 1.28.08 2.24.32 2.72.48 1.2 1.6.96 1.6 1.76 0 .48-.4.72-1.04.72h-5.92c-.56 0-1.04-.24-1.04-.64 0-.72 1.04-.56 1.52-1.68.24-.56.32-1.44.32-2.88v-10.31c0-.4-.08-.72-.72-.72-.56 0-1.12.08-1.68.4-.88.48-1.28 1.36-1.6 1.92-.4.96-.56 1.12-1.04 1.12-.72 0-1.12-.32-1.12-.96 0-.4.08-1.52.08-2.24 0-.48 0-1.12.08-1.68.08-.72.32-.88 1.2-.88 1.12 0 3.12.16 5.12.16h3.6c2.08 0 4.08-.16 5.12-.16.8 0 1.12.16 1.2.88.08.64 0 1.2.08 1.84 0 .72.08 1.52.08 2.08s-.48.96-1.12.96z"/><path d="m109.21 55.64c0 .24-.08.48-.16.72-.4 1.28 0 2.88-1.44 2.88-.64 0-1.52-.16-3.44-.16h-5.36c-.4 0-.72-.16-.72-.48 0-.56.72-.4 1.12-1.2.16-.4.24-1.04.24-2.08v-6.88c0-.72 0-1.12-.56-1.44-.32-.24-.64-.24-.64-.64 0-.24.24-.4.64-.4h4.88c1.92 0 3.36-.16 4-.16.56 0 .72.16.8.64v1.36 1.44c0 .48-.32.72-.8.72-.32 0-.48-.08-.72-.8-.16-.4-.48-1.04-1.12-1.36s-1.44-.32-2.56-.32h-.4c-.4 0-.48.16-.48.48v3.04c0 .32 0 .48.56.48s1.04 0 1.76-.08c.72 0 1.2-.08 1.6-.08.32 0 .64.08.64.48 0 .16 0 .32-.08.48 0 .64-.08.88-1.04.88-.32 0-.8 0-1.2-.08-.56 0-1.04 0-1.92 0-.16 0-.24.08-.24.32v2.64c0 .88 0 1.36.4 1.52.16.08.48.08.88.08 1.68 0 2.8-.4 3.84-1.92.32-.48.56-.72.88-.72.24 0 .64.24.64.64z"/><path d="m123.68 58.67c0 .24-.24.4-.64.4h-4.64c-.4 0-.64-.16-.64-.4 0-.4.64-.48.64-.96 0-.4-.24-.8-.64-1.36l-1.76-2.64c0-.08-.08-.08-.08-.08-.08 0-.08 0-.16.08-.64.88-1.2 1.84-1.6 2.56-.16.32-.4.72-.4 1.12 0 .8.88.72.88 1.2 0 .32-.24.48-.64.48h-3.28c-.4 0-.64-.16-.64-.48s.32-.48.64-.8c.48-.4.96-.88 1.52-1.68.56-.72 1.68-2.32 2.56-3.76.08-.08.08-.16.08-.24s0-.16-.08-.24l-2.08-3.12c-.72-1.12-.96-1.52-1.68-1.92-.32-.16-.64-.24-.64-.64 0-.24.16-.4.64-.4h4.64c.4 0 .64.16.64.4 0 .48-.64.48-.64.96 0 .4.32.88.72 1.44l1.44 2.16c0 .08.08.08.08.08s.08 0 .08-.08c.56-.88 1.2-1.84 1.44-2.4.16-.24.24-.48.24-.88 0-.8-.88-.72-.88-1.2 0-.32.24-.48.64-.48h3.28c.4 0 .64.16.64.48s-.32.48-.64.8c-.48.4-.96.88-1.52 1.68-.48.72-1.44 2.08-2.24 3.36-.08.08-.08.16-.08.24s0 .08.08.24l2.4 3.52c.72 1.12 1.04 1.52 1.76 1.92.24.24.56.32.56.64z"/><path d="m137.27 57.87c.32.24.8.32.8.72 0 .24-.16.48-.72.48h-4.16c-.4 0-.64-.16-.64-.48 0-.56.88-.4.88-1.2 0-.16 0-.32-.08-.48-.16-.32-.56-1.52-.56-1.52-.08-.24-.16-.32-.48-.32h-4c-.16 0-.24.08-.32.24-.32.8-.4 1.36-.4 1.68 0 .56.32.8.48.96s.48.24.48.48c0 .32-.4.48-.72.48h-3.12c-.4 0-.72-.16-.72-.48 0-.24.08-.32.24-.4.32-.16.64-.4 1.04-1.12.32-.48.64-1.04.96-1.84l4.08-9.19c.08-.24.24-.32.48-.32h1.2c.24 0 .4.08.48.24.24.72 3.6 9.43 4 10.39.32 1.12.48 1.44.8 1.68zm-8.39-4.55c0 .08-.08.16-.08.16 0 .08.08.16.16.16h2.96c.08 0 .16-.08.16-.16 0 0 0-.08-.08-.16l-1.44-3.84s0-.08-.08-.08-.08 0-.08.08z"/><path d="m148.38 48.52c0 .56 0 1.28-.72 1.28-.56 0-.8-.56-1.44-1.2-.56-.64-1.28-1.36-2.4-1.36-.88 0-1.76.48-1.76 1.52 0 2.8 6.88 1.6 6.88 6.32 0 2.48-2.32 4.32-5.52 4.32-1.84 0-3.76-.56-4.32-1.44-.32-.48-.4-1.12-.4-1.68 0-.24 0-.48 0-.72 0-.56.32-.88.72-.88.64 0 .72.72 1.68 1.68.64.64 1.44 1.44 2.8 1.44.56 0 1.12-.16 1.52-.48.32-.32.64-.72.64-1.36 0-2.88-6.88-1.84-6.88-6.16 0-2.24 2.08-4.08 5.04-4.08 1.44 0 2.88.4 3.6 1.04.4.32.56 1.2.56 1.76z"/></g><path d="m173.49 58.43c0 .4-.4.64-1.04.64h-5.92c-.56 0-1.04-.24-1.04-.64s.32-.56.64-.72c.48-.32.8-.64.96-1.12.16-.32.24-.88.24-2.64v-3.12c0-.24-.16-.32-.4-.32h-6.4c-.16 0-.24.08-.24.24v3.28c0 1.76.16 2.32.24 2.64.16.4.4.8.96 1.12.32.24.64.32.64.72s-.4.64-.96.64h-5.92c-.56 0-.96-.24-.96-.64s.24-.56.64-.72c.48-.32.8-.64.96-1.12.16-.32.24-.88.24-2.64v-9.35c0-1.12 0-1.84-.72-2.32-.48-.32-.96-.32-.96-.88 0-.32.32-.56.88-.56h5.84c.56 0 .88.32.88.56 0 .48-.48.56-.96.88-.72.4-.72 1.12-.72 2.32v3.44c0 .24.16.32.4.32h6.4c.16 0 .24-.08.24-.24v-3.6c0-1.12 0-1.84-.72-2.32-.48-.32-.96-.32-.96-.88 0-.32.32-.56.88-.56h5.84c.56 0 .88.32.88.56 0 .48-.48.56-.96.88-.64.4-.72.96-.72 1.84v9.83c0 1.76.08 2.32.24 2.64.16.4.48.8.96 1.12.32.16.64.32.64.72z" fill="#c48e3d"/><path d="m188.12 57.87c.32.24.8.32.8.72 0 .24-.16.48-.72.48h-4.16c-.4 0-.64-.16-.64-.48 0-.56.88-.4.88-1.2 0-.16 0-.32-.08-.48-.16-.32-.56-1.52-.56-1.52-.08-.24-.16-.32-.48-.32h-4c-.16 0-.24.08-.32.24-.32.8-.4 1.36-.4 1.68 0 .56.32.8.48.96s.48.24.48.48c0 .32-.4.48-.72.48h-3.12c-.4 0-.72-.16-.72-.48 0-.24.08-.32.24-.4.32-.16.64-.4 1.04-1.12.32-.48.64-1.04.96-1.84l4.08-9.19c.08-.24.24-.32.48-.32h1.2c.24 0 .4.08.48.24.24.72 3.6 9.43 4 10.39.24 1.12.4 1.44.8 1.68zm-8.48-4.55c0 .08-.08.16-.08.16 0 .08.08.16.16.16h2.96c.08 0 .16-.08.16-.16 0 0 0-.08-.08-.16l-1.44-3.84s0-.08-.08-.08c0 0-.08 0-.08.08z" fill="#c48e3d"/><path d="m200.35 55.64c0 .24-.08.56-.16.72-.32 1.2 0 2.88-1.44 2.88-.72 0-1.52-.16-3.44-.16h-4.72c-.4 0-.72-.16-.72-.48s.24-.4.48-.56c.32-.16.56-.48.64-.72s.16-.64.16-1.92v-6.96c0-.72 0-1.2-.48-1.44-.32-.24-.72-.24-.72-.64 0-.24.24-.4.64-.4h4.24c.4 0 .64.24.64.4 0 .4-.32.4-.64.64-.48.32-.56.72-.56 1.44v7.03c0 1.12 0 1.76.4 1.92.16.08.32.08.56.08.4 0 .88-.08 1.12-.16 1.04-.32 1.68-.8 2.24-1.76.32-.48.56-.72.88-.72.48.17.88.33.88.81z" fill="#c48e3d"/><path d="m207.78 59.31c-4.16 0-6.72-2.8-6.72-6.8 0-3.76 2.88-6.8 6.72-6.8 4.16 0 6.72 2.88 6.72 6.8.08 3.77-2.8 6.8-6.72 6.8zm-3.44-7.35c0 2.16.88 5.76 3.6 5.76 2.32 0 3.2-2.4 3.2-4.56s-.88-5.76-3.6-5.76c-2.24-.08-3.2 2.48-3.2 4.56z" fill="#c48e3d"/><path d="m234.08 46.36c-.48 0-.72-.16-1.12-1.12-.24-.56-.64-1.44-1.6-1.92s-2.08-.48-3.84-.48h-.32c-.56 0-.72.24-.72.72v4.8c0 .48.08.8.72.8.56 0 1.52 0 2.32-.08.88-.08 1.68-.16 2.32-.16.56 0 .88.16.88.64 0 .24-.08.48-.08.72 0 .8-.24 1.2-1.12 1.2-.48 0-1.36-.08-2.08-.08s-1.92 0-2.56 0c-.24 0-.4.16-.4.4v2.16c0 1.76.08 2.48.4 3.04.48.88 1.44.72 1.44 1.52 0 .4-.4.64-.96.64h-5.92c-.56 0-.96-.24-.96-.64 0-.72.8-.56 1.36-1.44.32-.56.48-1.44.48-3.12v-9.83c0-.96-.08-1.52-.72-1.84-.48-.32-.96-.32-.96-.88 0-.32.32-.56.88-.56h6.8c2.72 0 4.64-.16 5.6-.16.72 0 1.04.16 1.12.88.08.48 0 1.12.08 1.84 0 .72.08 1.6.08 2.08 0 .63-.48.87-1.12.87z" fill="#144f30"/><path d="m250.39 46.44c0 .4-.48.48-.72.64-.48.24-.8.48-.96 2.08-.08.64-.08 4.08-.08 5.28 0 .72-.08 1.36-.32 1.92-.72 2-2.48 3.04-4.96 3.04-2.16 0-4.4-.64-5.2-2.88-.16-.56-.24-1.28-.24-2v-5.76c0-.8 0-1.28-.56-1.68-.32-.24-.64-.24-.64-.64 0-.24.24-.4.64-.4h4.24c.4 0 .64.24.64.4 0 .4-.32.4-.64.64-.48.32-.48.8-.48 1.68v5.28c0 .64.08 1.2.24 1.68.48 1.2 1.44 1.68 2.8 1.68 1.84 0 2.96-1.2 3.04-3.2 0-.48 0-1.36 0-2.16 0-.88 0-2.16-.08-2.88-.08-1.52-.48-1.76-.88-2s-.88-.32-.88-.72c0-.32.24-.48.8-.48h3.52c.56 0 .72.16.72.48z" fill="#144f30"/><path d="m265.66 46.44c0 .4-.48.48-.72.64-.48.24-.8.48-.96 2.08-.08 1.2-.08 9.19-.08 9.83 0 .16-.16.32-.32.32h-1.76c-.32 0-.48-.08-.64-.32l-6.08-8.79c0-.08-.08-.08-.16-.08 0 0-.08 0-.08.08v5.76c.08 1.44.64 1.76 1.04 2 .32.16.88.24.88.72 0 .32-.24.48-.8.48h-3.84c-.56 0-.72-.24-.72-.48 0-.4.48-.48.72-.64.48-.24.96-.48 1.04-2.08 0-.56.08-7.51.08-7.91 0-.16 0-.24-.08-.32s-.32-.32-.64-.48c-.56-.24-.96-.32-.96-.72s.32-.48.72-.48h3.04c.48 0 .72.16.96.48l5.84 8.47c0 .08.08.08.16.08s.08 0 .08-.08c0-2 0-4.48-.08-5.76-.08-1.52-.48-1.84-.88-2-.4-.24-.88-.32-.88-.72 0-.32.24-.48.8-.48h3.52c.56-.08.8.08.8.4z" fill="#144f30"/><path d="m280.45 52.44c0 3.52-2.24 6.72-7.83 6.72-1.52 0-4.56 0-4.56 0-.4 0-.72-.16-.72-.48 0-.48.64-.48.96-.96.24-.4.32-1.04.32-2.24v-7.03c0-.64 0-1.04-.48-1.36-.32-.24-.64-.24-.64-.64 0-.24.24-.4.64-.4h2.96c2.96 0 4.72.16 6.16.88 1.91.87 3.19 2.95 3.19 5.51zm-3.28.08c0-1.6-.4-3.52-2-4.56-.72-.4-1.52-.64-2.64-.64h-.32c-.4 0-.48.16-.48.48v7.51c0 1.12 0 1.68.24 1.84s.64.24 1.04.24h.72c1.12-.08 1.92-.72 2.4-1.36.56-.63 1.04-1.83 1.04-3.51z" fill="#144f30"/><path d="m44.19 37.7c1.92-1.83 4.22-2.35 6.79-2.35 1 0 2.05-.26 2.92.44.17.17.3.48.65.39.26.96.96 1.48 1.83 1.87.61.26 1.26.17 1.83.52-1 1.26-1.74 2.65-2 4.27-.04.3-.04.48.09.83.48 1.04 1.31 1.7 2.13 2.39.65.57 1.26 1.09 1.83 1.74.26.3.57.65.65 1.04.39 1.61 1.18 3.05 1.87 4.53.3.7.52 1.39.61 2.18.13 1.31.65 2.44 1.61 3.35.7.65 1.18 1.48 1.52 2.39.17.57.44 1.09.91 1.52.39.35.3.91.17 1.39-.13.44-.61.48-1 .48-1 0-1.96-.26-2.87-.7-.61-.26-.83-.78-.78-1.39.17-2.44-.48-4.53-2.31-6.22-.78-.7-1.44-1.52-1.7-2.57-.48.26-.61.65-.78 1-.35.83-.61 1.65-.91 2.48-.17.57-.44 1.04-1.04 1.31-.17.09-.48.22-.48.44 0 .26.35.3.52.39.52.22 1 .48 1.57.57 1.52.26 2.26 1.44 3.18 2.52.83 1 1.61 2.09 2.92 2.52 1.87.65 3.31 1.96 4.87 3.05.44.3.39 1.61-.04 1.96-.44.35-.7.96-1.44.87-.87-.13-1.57-.44-2.18-1.04-.83-.83-1.35-1.83-2.09-2.74-.78-1-1.61-1.92-3-2.13-.39-.04-.7-.35-1.04-.52-1.57-.91-3.26-1.57-5.01-2-1.48-.35-2.87-.87-4.13-1.74-1.18-.83-2.61-.78-3.92-1.18-.13-.04-.3-.04-.52-.13.35.83.87 1.44 1.48 2 .44.44.91.91 1.48 1.13 1.13.48 1.39 1.57 1.87 2.44.17.3.09.48-.26.48-1.09.04-2.18.04-3.26-.04-.48-.04-1.26-.96-1.22-1.7.04-1.22-.61-1.65-1.57-2.09-.78-.35-1-1.18-1.44-1.83-.13-.22-.22-.52-.39-.91-.22 1.13-.22 2.13.26 2.96 1.04 1.83.52 3.35-.65 4.83-1.09 1.39-1.92 2.92-2.57 4.53-.17.48-.52.61-.96.61-.83-.04-1.7 0-2.48-.26-.3-.09-.61-.22-.65-.57s.17-.57.44-.78c.09-.04.22-.09.22-.13-.09-.91.78-.87 1.22-1.22.96-.7 1.87-1.44 2.48-2.44.7-1.09.87-2-.39-3-1.74-1.35-2.92-3.18-3.79-5.18-.04-.09-.09-.22-.13-.3-1-3.7-1.48-7.44-.13-11.19.09-.17.09-.39.13-.57 0-.04.04-.13.04-.13-.09-.04-.09 0-.09.09-1.13.74-2.26 1.52-3.39 2.26-1.39.91-2.79 1.78-4.44 2.18-1.87.44-3.57.17-4.92-1.39-.91-1.09-1.78-2.22-2.48-3.44-.13-.22-.3-.44-.26-.74 1.35.04 2.7.22 3.87.91.96.52 1.65 1.31 1.78 2.39.09.52.35.65.78.65 1.22 0 2.31-.44 3.35-.96 1.7-.91 3.31-1.92 5.05-2.79.83-.39 1.35-.91 1.78-1.74.7-1.39 1.61-2.61 2.96-3.39.35.13.7.22 1.09.3.78.22 1.44.74 2.26.91.7.17 1.83-.26 2.13-.87.39-.83.61-1.74-.17-2.31-.22-.16-.26-.29-.26-.43zm11.53 6.84c-.04 0-.04 0-.09 0-.13.3-.26.65-.44.96-.91 2.05-2.13 3.87-3.96 5.22-.39.3-.83.57-1.35.44-.48-.13-.48-.65-.7-1.09-.22.87-.17 1.65.09 2.39s.78.91 1.48.57c.48-.22.87-.61 1.22-1 1.87-2 2.83-4.48 3.7-7.05.1-.14.05-.31.05-.44z" fill="#144f30"/><path d="m44.19 37.7c0 .13.09.26.17.35.78.57.57 1.48.17 2.31-.3.65-1.44 1.04-2.13.87-.83-.17-1.48-.7-2.26-.91-.35-.09-.7-.22-1.09-.3-1.22-.52-2.52-.87-3.61-1.65-1.13-.83-2.22-1.74-2.74-3.13.13-.26 0-.57 0-.83-.04-.57 0-.96.74-.65 2.09 2.13 4.92 2.61 7.62 3.31.83.22 1.61.39 2.39.65.26.03.48.16.74-.02z" fill="#c48e3d"/><path d="m58.16 38.62c-.57-.35-1.22-.26-1.83-.52-.87-.39-1.57-.87-1.83-1.87 1.61-.83 3.35-1.26 5.01-2 1.48-.65 2.92-1.35 3.96-2.65.7-.83 1.09-1.78 1.26-2.79.04-.17 0-.39.22-.61.44 2.22.22 4.22-1.04 6.09-1.22 1.83-2.96 2.92-4.92 3.7-.35.13-.57.43-.83.65z" fill="#c48e3d"/><path d="m33.44 33.7c-.74-.3-.74.13-.74.65 0 .26.13.57 0 .83-.7-1.39-.83-2.87-.7-4.4.35 1.05.74 2.05 1.44 2.92z" fill="#c48e3d"/><path d="m35.01 46.06c0-.04.04-.13.09-.09 0 0 0 .09-.04.13-.01 0-.05-.04-.05-.04z" fill="#2c623a"/></svg>