<svg enable-background="new 0 0 300 100" viewBox="0 0 300 100" xmlns="http://www.w3.org/2000/svg"><path d="m68.64 50.66c.13-.67.22-1.36.38-2.02.98-3.91 3.67-6.01 7.43-6.95 2.81-.7 5.67-.71 8.52-.37 2.02.25 4.01.7 6.02 1.05.46.08.64.28.64.79-.03 2.33-.01 4.66-.01 6.99v.59c-1-.27-1.95-.56-2.91-.78-2.13-.48-4.28-.9-6.49-.62-.41.05-.83.13-1.23.25-1.09.35-1.92 1-2.15 2.18-.25 1.26-.03 2.46 1.07 3.23.9.63 1.91 1.11 2.92 1.55 1.91.83 3.93 1.46 5.78 2.4 3.04 1.54 4.5 4.17 4.66 7.55.11 2.51-.18 4.94-1.36 7.2-1.51 2.88-3.99 4.51-7.04 5.36-3.04.84-6.13.84-9.22.36-2.04-.32-4.05-.87-6.07-1.31-.28-.06-.45-.15-.45-.49.01-2.68.01-5.35.01-8.03 0-.07.03-.14.04-.23 1.17.49 2.31.99 3.47 1.45 1.97.77 3.98 1.43 6.12 1.49.82.02 1.67-.12 2.46-.33.82-.21 1.36-.84 1.62-1.65.63-1.98.21-4.17-2.07-5.1-1.31-.53-2.68-.91-4.04-1.31-1.74-.52-3.42-1.16-4.81-2.37-1.71-1.49-2.56-3.46-2.97-5.64-.14-.72-.23-1.46-.34-2.19.02-1.01.02-2.03.02-3.05z"/><path d="m188.94 49.97c.19-.03.38-.07.57-.07 4.1.02 8.2.1 12.3.03 1.27-.02 2.23.55 3.25 1.05 3.78 1.84 7.16 4.28 10.28 7.09.13.12.28.23.49.4.49-.68 1.01-1.31 1.44-1.99 1.72-2.71 3.39-5.46 5.12-8.16.59-.93.53-1.91.39-2.9-.32-2.16-1.03-3.63-2.44-5.33 1.7 1.18 3.07 2.64 3.99 4.64 1.96-3.74 3.65-7.49 5.11-11.36-.12 1.06-.19 2.13-.36 3.18-.37 2.17-.73 4.34-1.2 6.49-.85 3.83-1.98 7.59-3.36 11.27-1.12 2.98-2.38 5.9-3.8 8.74-.08.16 0 .5.13.65 4.03 4.73 7.46 9.86 10.28 15.4.08.16.15.32.26.55-.22.02-.4.04-.57.04-3.48 0-6.96 0-10.44.01-.33 0-.47-.13-.62-.4-1.29-2.32-2.59-4.62-3.9-6.93-.1-.17-.22-.33-.38-.58-.14.2-.26.35-.35.5-1.45 2.4-2.89 4.8-4.35 7.19-.08.12-.27.25-.41.25-7-.02-13.99-.05-20.99-.08-.07 0-.13-.03-.25-.05 6.35-1.22 11.36-4.75 15.96-8.94 1.77-1.61 3.38-3.41 5.07-5.11.27-.27.31-.46.03-.77-2.89-3.27-6.07-6.22-9.63-8.75-3.35-2.37-6.91-4.36-10.8-5.71-.26-.09-.52-.16-.77-.25-.04-.03-.05-.06-.05-.1z" fill="#006d32"/><path d="m118.85 57.52c-.02-.18-.04-.3-.04-.43 0-1.77.01-3.53-.01-5.3 0-.34.08-.51.44-.6 3.8-.95 7.65-1.44 11.57-1.16 1.8.13 3.56.5 5.23 1.22 3.54 1.52 5.41 4.27 5.86 8.04.08.67.1 1.34.1 2.02.01 5.9 0 11.8.02 17.7 0 .52-.15.63-.64.63-2.39-.02-4.77-.01-7.16-.01-.18 0-.36 0-.6 0 0-1.43 0-2.82 0-4.24-.11.02-.19.01-.2.04-1.28 2.25-3.34 3.38-5.79 3.89-1.98.42-3.99.51-5.97.04-3.04-.73-4.7-2.82-5.34-5.78-.35-1.59-.45-3.22-.06-4.81.56-2.26 2.17-3.7 4.12-4.78 2.28-1.26 4.75-1.9 7.32-2.19 1.9-.21 3.8-.44 5.69-.64.31-.03.39-.18.4-.46.06-1.61-.61-2.81-2.02-3.59-1.54-.85-3.23-.95-4.93-.91-2.51.06-4.94.56-7.36 1.17-.18.05-.39.1-.63.15zm15.38 7.64c-.65.09-1.32.17-1.98.26-1.48.2-2.96.4-4.44.59-2.97.39-4.04 2.69-3.33 5.36.33 1.26 1.28 2.08 2.57 2.07 1.15-.01 2.31-.21 3.46-.39.38-.06.75-.28 1.09-.49 2.09-1.26 3.35-4.78 2.63-7.4z"/><path d="m105.23 40.92v9.08h6.7v6.54c-3.31 0-6.61 0-9.9 0-.01.04-.02.08-.04.12.72.32 1.41.71 2.15.95.89.28 1.15.76 1.12 1.69-.09 2.69-.08 5.39-.06 8.08.01.79.09 1.6.27 2.38.53 2.29 2.2 3.32 4.49 2.81.65-.14 1.28-.37 1.96-.57.01.15.03.31.03.46 0 1.84-.01 3.68.01 5.52.01.43-.13.72-.53.83-.94.27-1.88.59-2.84.72-1.97.28-3.96.39-5.93-.06-3.33-.76-5.33-2.94-6.21-6.14-.29-1.13-.45-2.33-.45-3.5-.04-8.58-.02-17.15-.03-25.73 0-.48.16-.64.6-.76 2.77-.76 5.53-1.55 8.29-2.33.09-.04.19-.05.37-.09z"/><path d="m177.03 56.68c.91.4 1.82.82 2.74 1.2.34.14.44.33.44.69-.02 3.02-.03 6.05.01 9.07.01.75.11 1.53.31 2.26.59 2.2 2.21 3.16 4.45 2.66.67-.15 1.32-.38 2.01-.58 0 2.11.01 4.2-.02 6.29 0 .16-.22.4-.38.45-.99.3-1.97.65-2.98.8-1.97.29-3.96.4-5.93-.06-3.52-.82-5.49-3.19-6.31-6.58-.23-.96-.34-1.98-.34-2.97-.03-8.61-.01-17.23-.03-25.84 0-.44.12-.62.55-.74 2.79-.76 5.56-1.56 8.34-2.35.08-.02.17-.03.32-.05v9.07h6.74v6.53c-3.29 0-6.6 0-9.9 0-.01.05-.01.1-.02.15z"/><path d="m168.11 56.48c-1.39.07-2.72.04-4.04.21-3.05.39-5.67 1.59-7.34 4.33-.83 1.36-1.25 2.86-1.25 4.46v13.44.7c-2.89 0-5.75 0-8.65 0 0-9.88 0-19.74 0-29.65h8.51v1.59c4.17-1.68 8.41-1.96 12.77-1.45z"/><g fill="#006d32"><path d="m220.89 20.39c2.7-.71 6.55 1 8.55 3.67 1.77 2.36 1.22 6.24.06 8.56-.34-1.24-.71-2.52-1.02-3.82-.07-.28.08-.61.14-1.01-.16.1-.28.18-.39.25-.4-.81-.81-1.61-1.19-2.44-.06-.14 0-.38.08-.53.22-.42.48-.81.72-1.22-.07-.05-.14-.09-.21-.14-.29.43-.59.86-.9 1.31-.21-.26-.41-.49-.6-.73-.04.02-.07.04-.11.06.03.15.06.3.09.49-.71-.01-1.44-.42-2.14-.03v.19h.88c1.05-.01 1.88.33 2.27 1.41.18.51.45.98.72 1.56-.63-.15-1.15-.28-1.67-.41-.02.06-.04.13-.06.19.13.06.25.14.38.16 1.17.15 1.82.77 2.02 1.96.16 1 .46 1.98.71 3.05-1.17-.09-2.18-.44-3.1-1.06-1.85-1.25-2.83-3.09-3.48-5.14-.41-1.29-.62-2.61-.62-3.97.02-1.17-.18-1.49-1.13-2.36z"/><path d="m208.61 34.08c1.93-1.47 4.09-1.84 6.37-1.25 3.15.81 4.2 2.33 5.11 7.07-1.9.96-3.75.75-5.56-.26-1.75-.98-3.11-2.38-4.1-4.12-.41-.74-.92-1.3-1.82-1.44z"/></g></svg>