<svg enable-background="new 0 0 300 100" viewBox="0 0 300 100" xmlns="http://www.w3.org/2000/svg"><path d="m59.98 86.49c-20.18-.02-36.47-16.35-36.44-36.54.03-20.3 16.39-36.6 36.83-36.44 20.42.16 36.23 16.82 36.17 36.55-.07 20.23-16.35 36.45-36.56 36.43zm5.51-23.57c.15-.09.26-.14.35-.23 1.07-1.05 2.18-2.06 3.21-3.15 7.97-8.49 12.96-18.51 15.29-29.9.14-.67.12-1.23-.43-1.79-8.97-9.13-19.75-12.44-32.12-9.3-16.2 4.1-26.3 19.59-23.95 36.15 1.23 8.63 5.43 15.59 12.22 21.02.48.39.92.53 1.54.31 2.53-.9 5.11-1.66 7.6-2.66 2.15-.87 4.2-2 6.53-3.14-.95-.68-1.65-1.18-2.35-1.68-.84-.61-1.28-1.41-1.29-2.47-.01-1.64.9-2.74 2.09-3.68.8-.63 1.63-1.21 2.51-1.87-.49-.39-.87-.66-1.22-.96-2.29-2.03-4.65-3.98-6.82-6.13-1.55-1.53-2.85-3.33-3.53-5.47-.61-1.92.15-3.7 1.91-4.57 3.32-1.63 6.96-.89 9.4 1.89.45.51.84 1.13.4 1.66-.33.4-1.06.68-1.6.67-1.08-.02-2.19-.18-3.23-.48-.77-.22-1.52-.67-2.17-1.17-.53-.41-1.2-.49-1.47.17-.19.45-.28 1.1-.1 1.51.42.93.94 1.84 1.59 2.62 2.26 2.75 5.07 4.91 7.9 7.02.1.08.26.08.49.15-.33-6.38-.66-12.67-.98-18.95-.21 0-.28-.02-.33 0-.25.12-.5.25-.76.37-3.21 1.5-6.44 1.65-9.65.02-.32-.16-.5-.61-.75-.93.3-.17.57-.4.89-.51.96-.32 1.93-.59 2.9-.88-.02-.09-.05-.18-.07-.27-.26.05-.52.14-.78.15-1.2.08-2.42.3-3.61.18-1.55-.16-2.94-.86-4-2.05-.19-.21-.27-.65-.19-.92.05-.17.49-.31.76-.31.72 0 1.43.13 2.15.13 1.01-.01 2.03-.09 3.04-.14-.82-.28-1.62-.35-2.43-.43-2.67-.28-4.88-1.5-6.63-3.49-.24-.27-.16-.83-.23-1.25.37-.04.75-.18 1.1-.12.89.16 1.75.48 2.64.61 3.42.48 6.79.09 10.14-.61 1.18-.25 1.41-.03 2.02.96.55.88 1.2 1.79 2.02 2.4 3.28 2.44 7.82 1.3 9.73-2.4.46-.9 1.05-1.27 2.03-.97.24.07.49.1.74.14 4.09.76 8.16 1.18 12.22-.2.26-.09.85.09.92.28.12.3.06.84-.15 1.07-1.8 2.04-4.04 3.31-6.79 3.58-.77.08-1.55.15-2.32.23 1.69.19 3.36.18 5.04.21.32.01.83.16.9.36.09.26-.09.73-.31.97-1.04 1.11-2.38 1.82-3.86 1.93-1.55.12-3.12-.09-4.75-.16 1.04.32 2.09.63 3.12.99.33.12.61.39.91.59-.24.29-.43.69-.73.84-3.18 1.61-6.37 1.5-9.57.02-.35-.16-.7-.33-1.16-.54-.34 6.48-.67 12.79-1.01 19.3.44-.28.69-.4.89-.58 1.91-1.61 3.9-3.14 5.69-4.87 1.2-1.16 2.2-2.54 3.15-3.93.32-.47.33-1.25.27-1.87-.03-.31-.52-.65-.87-.8-.16-.07-.5.3-.76.46-.5.31-.96.75-1.5.89-1.3.32-2.63.51-3.96.71-.29.04-.63-.04-.91-.16-.7-.29-1.02-.94-.62-1.52 1.03-1.49 2.17-3.1 4.13-3.24 1.71-.12 3.51.05 5.19.45 2.15.51 3.18 2.63 2.42 4.72-.44 1.21-1.1 2.38-1.84 3.45-2.3 3.34-5.37 5.9-8.57 8.33-.31.24-.6.49-.98.81 1.2.89 2.25 1.66 3.31 2.43zm-6.92.22c-1.38.79-2.41 1.44-3.08 2.53-.36.59-.27 1.17.27 1.59.59.46 1.22.86 1.86 1.25.49.3.91.1.93-.46.05-1.54.02-3.09.02-4.91zm1.64 4.11c1.07-.81 1.92-1.45 2.93-2.21-.96-.69-1.78-1.28-2.78-2-.06 1.26-.1 2.23-.14 3.21-.02.24-.01.48-.01 1zm-6.02-21.73c-.19-1.13-.9-1.56-2.06-1.3.2.91.73 1.26 2.06 1.3zm10.3-.08c1.2.19 2.01-.33 2.06-1.28-1.25-.07-1.68.18-2.06 1.28z" fill="#29439a"/><path d="m64.46 26.13c0 2.84-2.27 5.1-5.12 5.08-2.81-.01-5.03-2.24-5.05-5.06-.02-2.86 2.22-5.13 5.07-5.13s5.1 2.25 5.1 5.11z" fill="#29439a"/><path d="m113.18 47.72c1.59 0 3.15-.02 4.7.02.22.01.49.29.65.51 2.12 2.88 4.22 5.78 6.32 8.67.15.21.32.41.56.72.74-1 1.43-1.93 2.12-2.87 1.57-2.15 3.11-4.32 4.7-6.45.22-.3.69-.55 1.05-.57 1.41-.07 2.82-.03 4.3-.03v23.13c-1.38 0-2.78 0-4.29 0 0-5.46 0-10.91 0-16.36-.07-.03-.14-.05-.2-.08-.28.36-.56.72-.83 1.08-2.02 2.7-4.03 5.41-6.05 8.1-.69.93-1.14.91-1.83-.04-2.12-2.92-4.25-5.83-6.37-8.75-.1-.14-.22-.26-.47-.56v16.61c-1.51 0-2.9 0-4.36 0 0-7.67 0-15.35 0-23.13z"/><path d="m176.01 70.87c-1.29 0-2.52 0-3.76 0-.09-.66-.18-1.27-.28-2.02-1.56 1.96-3.58 2.57-5.9 2.41-2.31-.16-4.3-.98-5.84-2.76-2.72-3.15-2.5-9.22.37-12.11 2.39-2.4 7.82-3.46 11.34.09 0-2.95 0-5.79 0-8.7h4.07zm-13.6-8.21c-.01 2.81 1.87 4.84 4.52 4.86 2.75.02 4.74-1.96 4.77-4.74.03-2.7-1.98-4.78-4.63-4.78-2.8-.01-4.64 1.83-4.66 4.66z"/><path d="m156.81 64.22c-4.26 0-8.41 0-12.73 0 .26 1.3.86 2.22 1.94 2.75 2.25 1.1 4.46.83 6.61-.33.21-.11.4-.25.6-.38.02-.01.06-.01.18-.02.73.8 1.51 1.64 2.38 2.59-.41.32-.87.77-1.41 1.07-2.91 1.61-5.99 1.94-9.14.86-3.41-1.16-5.29-4.02-5.35-7.95-.08-5.5 4-9.27 9.47-8.73 5.01.49 7.63 3.52 7.53 8.69-.01.44-.04.88-.08 1.45zm-4-3.44c-.16-1.93-1.54-2.97-3.95-3.09-2.3-.12-4.23 1.17-4.57 3.09z"/><path d="m242.23 64.24c-4.27 0-8.42 0-12.69 0 .29 1.55 1.14 2.49 2.47 2.98 2.13.79 4.18.49 6.13-.62.2-.12.39-.26.69-.45.76.87 1.51 1.74 2.36 2.72-.42.31-.95.81-1.57 1.14-3.17 1.64-6.44 1.87-9.73.44-2.61-1.13-3.98-3.29-4.41-6.02-.49-3.11.09-5.97 2.48-8.21 1.76-1.65 3.95-2.24 6.28-2.14 1.27.06 2.6.32 3.78.8 2.72 1.11 3.89 3.41 4.19 6.21.11.99.02 2 .02 3.15zm-3.98-3.41c-.15-1.96-1.57-3.04-3.94-3.14-2.33-.1-4.28 1.19-4.58 3.06.17.03.33.08.5.08z"/><path d="m211.29 70.88c-1.36 0-2.62 0-3.95 0 0-5.41 0-10.81 0-16.28h3.5c.1.63.21 1.28.3 1.8 1.19-.63 2.29-1.45 3.53-1.82 4.01-1.19 7.87 1.34 8.54 5.59.25 1.57.19 3.18.22 4.78.03 1.95.01 3.9.01 5.91-1.38 0-2.69 0-4.1 0 0-1.14 0-2.26 0-3.37 0-1.75.01-3.5 0-5.24-.01-2.55-1.44-4.14-3.79-4.24-2.16-.09-4.08 1.63-4.18 3.97-.12 2.6-.05 5.21-.07 7.82-.01.34-.01.68-.01 1.08z"/><path d="m196.64 59.22c-2.39-1.74-5.02-1.67-6.68.11-1.65 1.78-1.78 4.79-.27 6.61 1.63 1.96 4.38 2.09 7.15.33.82.9 1.65 1.8 2.49 2.72-2.61 3.12-8.89 3.35-12.15.3-3.47-3.25-3.49-9.7-.04-13.05 3.08-2.98 9.19-2.86 11.97.32-.8.87-1.62 1.74-2.47 2.66z"/><path d="m178.78 54.55h3.92v16.3c-1.29 0-2.57 0-3.92 0 0-5.39 0-10.79 0-16.3z"/><path d="m200.52 70.85c0-.32 0-.58 0-.85 0-5.12 0-10.24 0-15.42h3.97v16.27c-1.29 0-2.57 0-3.97 0z"/><path d="m184.21 34.46c0-1.85 0-3.71 0-5.64h1.84v9.69c-.68.24-1.17.08-1.61-.51-1.27-1.71-2.59-3.38-3.89-5.06-.19-.25-.4-.47-.75-.88v6.49c-.67 0-1.24 0-1.87 0 0-3.27 0-6.48 0-9.71.97-.26 1.66-.08 2.29.79 1.2 1.68 2.53 3.26 3.81 4.89.06-.01.12-.03.18-.06z"/><path d="m218.92 38.51c-.75.27-1.24.03-1.69-.57-1.29-1.73-2.63-3.42-3.95-5.13-.15-.2-.32-.38-.65-.75v6.51c-.65 0-1.2 0-1.8 0 0-3.26 0-6.47 0-9.73.83-.16 1.52-.17 2.13.67 1.24 1.72 2.61 3.34 4.11 5.24 0-2.15 0-4.04 0-5.96h1.86c-.01 3.26-.01 6.5-.01 9.72z"/><path d="m165.01 38.79c-3.03 0-5.05-2.02-5.05-5.05.01-3.06 2.08-5.18 5.07-5.2 3.02-.01 5.14 2.13 5.1 5.16-.03 3.09-2.04 5.09-5.12 5.09zm-.04-1.69c1.98.03 3.25-1.27 3.29-3.36.04-2.05-1.24-3.47-3.17-3.5-1.87-.03-3.21 1.34-3.25 3.33-.05 2.07 1.23 3.5 3.13 3.53z"/><path d="m113.15 28.78h7.3v1.74c-1.79 0-3.54 0-5.38 0v2.31h5.14v1.7c-1.72 0-3.41 0-5.16 0v2.19h5.39v1.84c-2.43 0-4.83 0-7.29 0 0-3.25 0-6.47 0-9.78z"/><path d="m197.05 34.54c0 .58-.01.99 0 1.4.01.23.04.46.07.81h5.42v1.81c-2.42 0-4.8 0-7.24 0 0-3.24 0-6.45 0-9.73h7.25v1.71c-1.45 0-2.85 0-4.26 0-1.23 0-1.23 0-1.23 1.25v1.03h5.27v1.72c-1.75 0-3.45 0-5.28 0z"/><path d="m251.73 38.51c.62-1.39 1.23-2.76 1.84-4.13.76-1.7 1.55-3.39 2.28-5.11.21-.49.54-.6.97-.52.53.1 1.2-.35 1.55.44 1.34 3.02 2.7 6.04 4.05 9.07.03.07 0 .17 0 .34-.51 0-1.03.1-1.49-.03-.31-.09-.66-.47-.76-.8-.26-.85-.73-1.15-1.62-1.07-1.06.09-2.13.04-3.19.01-.52-.01-.85.1-1.09.64-.64 1.46-.67 1.45-2.54 1.16zm7.18-3.54c-.6-1.39-1.15-2.66-1.78-4.12-.65 1.48-1.2 2.75-1.8 4.12z"/><path d="m146.9 35.71v2.85c-.62 0-1.17 0-1.79 0 0-3.22 0-6.44 0-9.72 1.85 0 3.74-.17 5.59.05 1.81.22 2.76 1.87 2.56 3.85-.17 1.64-1.55 2.9-3.32 2.97-.98.03-1.95 0-3.04 0zm.07-1.77c.98 0 1.91.03 2.85-.01.96-.04 1.6-.72 1.62-1.65s-.59-1.69-1.53-1.75c-.96-.06-1.93-.01-2.94-.01z"/><path d="m132.73 34.92c-.61.91-1.24 1.64-1.65 2.48-.62 1.28-1.59 1.39-2.93 1.1 1.14-1.66 2.24-3.27 3.36-4.9-1.09-1.57-2.15-3.12-3.23-4.69 1.58-.43 1.96-.29 2.8.98.52.79 1.04 1.58 1.64 2.48.54-.79 1.11-1.46 1.49-2.24.61-1.27 1.53-1.69 2.96-1.26-.15.24-.3.51-.47.75-.79 1.14-1.56 2.3-2.4 3.41-.34.45-.3.72.01 1.14.84 1.14 1.63 2.32 2.43 3.49.18.26.34.53.52.82-1.72.38-1.96.29-2.83-1.03-.53-.82-1.08-1.62-1.7-2.53z"/><path d="m231.67 30.4v8.17c-.65 0-1.2 0-1.87 0 0-2.7 0-5.37 0-8.14-1.08 0-2.04 0-3.06 0 0-.58 0-1.07 0-1.62h7.98v1.59c-.98 0-1.94 0-3.05 0z"/><path d="m269.64 28.78h1.78v2.75c0 1.51.03 3.02-.01 4.52-.02.65.16.89.84.87 1.38-.05 2.77-.01 4.21-.01v1.65c-2.27 0-4.52 0-6.82 0 0-3.25 0-6.46 0-9.78z"/><path d="m200.17 49.94c0-1.44.94-2.34 2.41-2.33 1.37.01 2.33.97 2.35 2.34.02 1.41-.97 2.39-2.4 2.4-1.41 0-2.36-.97-2.36-2.41z"/><path d="m178.37 49.89c.02-1.43.97-2.32 2.45-2.29 1.38.03 2.33 1.01 2.31 2.38-.02 1.41-1.02 2.37-2.44 2.35-1.44-.03-2.34-.97-2.32-2.44z"/><path d="m244.28 38.57c-.59 0-1.11 0-1.69 0 0-3.26 0-6.47 0-9.75h1.69z"/></svg>