<svg enable-background="new 0 0 100 100" viewBox="0 0 100 100" xmlns="http://www.w3.org/2000/svg" xmlns:xlink="http://www.w3.org/1999/xlink"><clipPath id="a"><path d="m7.4 25.9h85.1v48.2h-85.1z"/></clipPath><g style="clip-path:url(#a);fill:none;stroke:#000;stroke-width:2;stroke-linecap:round;stroke-linejoin:round"><path d="m76 71.5h-62c-3.6 0-6.6-2.9-6.6-6.5v-32.6c0-3.6 3-6.5 6.6-6.5h62c3.6 0 6.6 2.9 6.6 6.5v32.6c0 3.6-2.9 6.5-6.6 6.5z" transform="translate(1.347 1.318)"/><path d="m7.4 39.6h5.9c.6 0 1.1-.5 1.1-1.1v-11.5c0-.6-.5-1.1-1.1-1.1h-5.9z" transform="translate(76.764 17.229)"/><path d="m26.8 38h-8.7l1.9-12.1-12.6 17.6h8.7l-1.9 12.1z" transform="translate(29.27 9.721)"/></g></svg>