<svg enable-background="new 0 0 100 100" viewBox="0 0 100 100" xmlns="http://www.w3.org/2000/svg" xmlns:xlink="http://www.w3.org/1999/xlink"><clipPath id="a"><path d="m17.1 17.9h65.9v64.2h-65.9z"/></clipPath><g style="clip-path:url(#a);fill:none;stroke:#000;stroke-width:2;stroke-linecap:round;stroke-linejoin:round"><path d="m25.8 17.9c1.3 1.8 2.4 3.3 3.4 4.9 1.7 2.8 3.3 5.7 4.7 8.7 1.5 3.5.3 7.6-2.9 9.8-3.1 2.3-7.3 2.3-10.4.1-3.2-2.2-4.4-6.2-3-9.8 1.9-4.9 5-9.1 8.2-13.7z" transform="translate(23.608 10.449)"/><path d="m22.7 17.9c.8 1.2 1.6 2.1 2.2 3.2 1.1 1.8 2.1 3.7 3 5.6 1 2.3.2 4.9-1.8 6.3-2 1.5-4.7 1.5-6.7 0-2-1.4-2.8-4-1.9-6.3 1.3-3.2 3.1-6.1 5.2-8.8z" transform="translate(6.189 1.378)"/><path d="m21.2 17.9c.6.9 1.1 1.6 1.6 2.3.8 1.3 1.6 2.7 2.2 4.1.7 1.7.2 3.6-1.3 4.6-1.5 1.1-3.4 1.1-4.9 0-1.5-1-2.1-2.9-1.4-4.6 1-2.3 2.2-4.4 3.8-6.4z" transform="translate(47.769 5.647)"/><path d="m17.1 17.9 31.3 30.8 30-29" transform="translate(1.399 28.575)"/><path d="m17.1 17.9h9.9v9.5" transform="translate(54.54 28.868)"/><path d="m17.1 17.9h41.7" transform="translate(10.602 62.869)"/></g></svg>