<svg enable-background="new 0 0 100 100" viewBox="0 0 100 100" xmlns="http://www.w3.org/2000/svg"><g fill="#fff"><path d="m79.1 47.7c-.3 0-.5-.1-.7-.3 0 0-.1-.1-.1-.1l-.3-.3c-15.6-15.5-40.9-15.3-56.3.3-.2.2-.4.3-.7.3-.3 0-.5-.1-.7-.3l-7.3-7.3c-.4-.4-.4-1 0-1.4l.4-.4c9.8-9.7 22.8-15.1 36.6-15.1h.3c13.9.1 26.9 5.6 36.7 15.4l.1.1c.4.4.4 1 0 1.4l-7.3 7.3c-.2.3-.4.4-.7.4zm-29.1-14.3c11 0 21.3 4.2 29.1 11.8l5.8-5.9c-19.3-18.9-50.4-19-69.9-.1l5.8 5.9c7.8-7.5 18-11.7 28.8-11.7z"/><path d="m64.6 62.3c-.3 0-.5-.1-.7-.3 0 0-.1-.1-.1-.1l-.2-.2c-3.7-3.6-8.5-5.6-13.7-5.6h-.1c-5.2 0-10.1 2.1-13.7 5.8-.2.2-.4.3-.7.3-.3 0-.5-.1-.7-.3l-7.3-7.3c-.4-.4-.4-1 0-1.4l.3-.3c6-5.9 13.9-9.1 22.2-9.1h.2c8.4 0 16.4 3.4 22.3 9.4l.1.1c.4.4.4 1.1 0 1.4l-7.2 7.3c-.2.2-.4.3-.7.3zm-14.6-8.2c5.5 0 10.6 2 14.6 5.8l5.8-5.9c-5.5-5.3-12.7-8.2-20.3-8.2-7.7 0-15 2.8-20.5 8.1l5.9 5.9c4-3.6 9-5.6 14.4-5.7z"/><path d="m50.1 76.9c-.3 0-.5-.1-.7-.3l-7.4-7.4c-.4-.4-.4-1 0-1.4 0 0 .1-.1.1-.1 2.1-2.1 4.9-3.2 7.9-3.2h.1c3 0 5.8 1.2 7.9 3.3 0 0 .1.1.1.1.3.4.4 1 0 1.4l-7.3 7.3c-.2.2-.5.3-.7.3zm-6-8.4 5.9 6 5.8-5.9c-1.7-1.4-3.7-2.2-5.9-2.2 0 0 0 0-.1 0-2 0-4 .8-5.7 2.1z"/></g></svg>