<svg enable-background="new 0 0 100 100" viewBox="0 0 100 100" xmlns="http://www.w3.org/2000/svg" xmlns:xlink="http://www.w3.org/1999/xlink"><clipPath id="a"><path d="m26.7 3.4h46.6v93.2h-46.6z"/></clipPath><g clip-path="url(#a)" fill="none" stroke="#000" stroke-width="2"><path d="m45.2 4.1c-2.5-1.3-5.6-.8-7.5 1.3-1.9-2.1-5-2.7-7.5-1.3-2.6 1.5-3.9 4.5-3.3 7.4 1 5.2 10.1 10 10.5 10.2.1 0 .2.1.3.1s.2 0 .3-.1c.4-.2 9.5-4.9 10.5-10.2.6-2.8-.7-5.9-3.3-7.4z" stroke-linejoin="round" transform="translate(12.347 37.521)"/><path d="m67.1 49.8h-36.8c-2 0-3.6-1.6-3.6-3.6v-39.2c0-2 1.6-3.6 3.6-3.6h36.8c2 0 3.6 1.6 3.6 3.6v39.2c0 2-1.6 3.6-3.6 3.6z" transform="translate(1.282 23.381)"/><g stroke-linejoin="round"><path d="m48.3 3.4h-15.9c-1.3 0-2.4.9-2.6 2.2l-3.1 19.7h27.3l-3.1-19.7c-.2-1.2-1.3-2.2-2.6-2.2z" transform="translate(9.645 1.287)"/><path d="m32.4 25.4h15.8c1.3 0 2.4-.9 2.6-2.2l3.2-19.8h-27.3l3.1 19.7c.3 1.3 1.4 2.3 2.6 2.3z" transform="translate(9.645 69.925)"/></g></g></svg>