<svg enable-background="new 0 0 100 100" viewBox="0 0 100 100" xmlns="http://www.w3.org/2000/svg"><path d="m29.4 9.6h41.3c4.4 0 8 3.6 8 8v64.7c0 4.4-3.6 8-8 8h-41.3c-4.4 0-8-3.6-8-8v-64.7c0-4.4 3.6-8 8-8z" fill="none"/><path d="m70.7 90.4h-41.3c-4.4 0-8-3.6-8-8v-64.8c0-4.4 3.6-8 8-8h41.3c4.4 0 8 3.6 8 8v64.7c0 4.5-3.6 8.1-8 8.1zm-41.3-78.8c-3.3 0-6 2.7-6 6v64.7c0 3.3 2.7 6 6 6h41.3c3.3 0 6-2.7 6-6v-64.7c0-3.3-2.7-6-6-6z" fill="#364759"/><circle cx="50.008" cy="79.977" fill="none" r="4.3"/><g fill="#364759"><path d="m25.7 18.3c-2.4 0-4.3-1.9-4.3-4.3s1.9-4.3 4.3-4.3 4.3 1.9 4.3 4.3c.1 2.4-1.9 4.3-4.3 4.3zm0-6.7c-1.3 0-2.3 1-2.3 2.3s1.1 2.3 2.3 2.3c1.3 0 2.3-1.1 2.3-2.3s-1-2.3-2.3-2.3z" transform="translate(24.308 65.977)"/><path d="m456.6 3777.5c-.4 0-.7-.3-.8-.6l-3.2-17.9-2.2 9.5c-.1.3-.4.6-.7.6s-.7-.2-.8-.5l-1-3.1-.7 1c-.1.2-.4.3-.6.3h-2.3c-.4 0-.8-.4-.7-.8 0-.4.3-.7.7-.7h1.9l1.3-2c.2-.4.7-.5 1.1-.2.1.1.3.2.3.4l.7 2 2.5-10.5c.1-.4.4-.6.8-.6s.7.3.7.6l3.2 17.7 2.3-10.8c.1-.3.4-.6.7-.6s.7.2.8.5l1.5 4.4.1-.5c.1-.3.4-.6.7-.6h3.1c.4 0 .8.4.7.8 0 .4-.3.7-.7.7h-2.5l-.6 2.5c-.1.4-.5.7-.9.6-.3-.1-.5-.3-.5-.5l-1.4-4.2-2.5 11.9c-.4.4-.7.6-1 .6" transform="translate(-405 -3720.45)"/></g></svg>