<svg enable-background="new 0 0 100 100" viewBox="0 0 100 100" xmlns="http://www.w3.org/2000/svg"><g fill="#364759"><path d="m37.7 22.8c-.3 0-.5-.1-.8-.2-1.7-.9-10-5.5-11-10.9-.7-3.4.8-6.8 3.8-8.5 2.6-1.4 5.8-1 8 .8 2.2-1.8 5.4-2.2 8-.8 3 1.7 4.5 5.1 3.8 8.5-1.1 5.5-10 10.3-11 10.8-.3.3-.6.3-.8.3zm-4.6-18.4c-.8 0-1.7.2-2.4.6-2.2 1.3-3.3 3.8-2.8 6.3.7 3.7 6.4 7.6 9.8 9.4 3.2-1.7 9.1-5.7 9.8-9.4.6-2.5-.6-5.1-2.8-6.4-2.1-1.1-4.7-.6-6.3 1.1-.2.2-.5.3-.7.3-.3 0-.6-.1-.7-.3-1.1-1-2.5-1.6-3.9-1.6z" transform="translate(12.347 37.521)"/><path d="m67.1 50.8h-36.8c-2.5 0-4.6-2.1-4.6-4.6v-39.2c0-2.5 2.1-4.6 4.6-4.6h36.8c2.5 0 4.6 2.1 4.6 4.6v39.2c0 2.5-2 4.6-4.6 4.6zm0-46.4h-36.8c-1.4 0-2.6 1.2-2.6 2.6v39.2c0 1.4 1.2 2.6 2.6 2.6h36.8c1.4 0 2.6-1.2 2.6-2.6v-39.2c0-1.4-1.1-2.6-2.6-2.6z" transform="translate(1.282 23.381)"/><path d="m54 26.4h-27.3c-.3 0-.6-.1-.8-.4s-.3-.5-.2-.8l3.1-19.7c.3-1.8 1.8-3.1 3.6-3.1h15.8c1.8 0 3.3 1.3 3.6 3.1l3.2 19.7c0 .3 0 .6-.2.8s-.5.4-.8.4zm-26.1-2h24.9l-3-18.6c-.1-.8-.8-1.4-1.6-1.4h-15.7c-.8 0-1.5.6-1.6 1.4z" transform="translate(9.645 1.287)"/><path d="m48.3 26.4h-15.8c-1.8 0-3.3-1.3-3.6-3.1l-3.2-19.7c0-.3 0-.6.2-.8s.5-.4.8-.4h27.3c.3 0 .6.1.8.4s.3.5.2.8l-3.1 19.7c-.3 1.8-1.8 3.1-3.6 3.1zm-15.8-2h15.8c.8 0 1.5-.6 1.6-1.4l3-18.6h-25l3 18.6c.1.8.8 1.4 1.6 1.4z" transform="translate(9.645 69.925)"/></g></svg>