<svg enable-background="new 0 0 100 100" viewBox="0 0 100 100" xmlns="http://www.w3.org/2000/svg" xmlns:xlink="http://www.w3.org/1999/xlink"><clipPath id="a"><path d="m12.3 22.7h75.5v54.6h-75.5z"/></clipPath><g style="clip-path:url(#a);fill:none;stroke:#000;stroke-width:2;stroke-linecap:round;stroke-linejoin:round"><path d="m19.5 45.2c15.9-16 41.7-16.2 57.8-.3.1.1.2.2.3.3 0 0 .1.1.1.1l7.3-7.3-.1-.1c-19.8-20-52.1-20.2-72.2-.4-.1.1-.3.3-.4.4z" transform="translate(1.394 1.403)"/><path d="m19.5 39.1c7.9-8 20.9-8.1 28.9-.2l.2.2s.1.1.1.1l7.3-7.3s-.1-.1-.1-.1c-11.9-12-31.3-12.1-43.3-.2-.1.1-.2.1-.2.2z" transform="translate(15.908 22.071)"/><path d="m19.6 33.2 7.3-7.3s-.1-.1-.1-.1c-4-4-10.4-4-14.4-.1 0 0-.1.1-.1.1z" transform="translate(30.421 42.735)"/></g></svg>