<svg enable-background="new 0 0 100 100" viewBox="0 0 100 100" xmlns="http://www.w3.org/2000/svg" xmlns:xlink="http://www.w3.org/1999/xlink"><clipPath id="a"><path d="m19.5 16.3h61v67.5h-61z"/></clipPath><g clip-path="url(#a)"><path clip-rule="evenodd" d="m53.6 17.6c1.8-.9 3.7-1.3 5.7-1.3 3.4 0 6.6 1.3 9.1 3.7 2.4 2.3 3.8 5.5 3.8 8.8v1c.2.1.3.1.5.2 2.1.8 3.9 2.2 5.3 4 1.7 2.1 2.6 4.8 2.6 7.5 0 1.8-.4 3.6-1.2 5.2-.6 1.2-1.4 2.3-2.4 3.3 1 1 1.8 2.1 2.4 3.4.8 1.6 1.2 3.4 1.2 5.2 0 2.7-.9 5.4-2.6 7.5-1.5 1.9-3.5 3.4-5.8 4.2.3 3.7-1.1 7.2-3.7 9.8-2.4 2.4-5.7 3.7-9.1 3.7-2 0-3.9-.4-5.7-1.3-1.3-.6-2.5-1.5-3.6-2.6-1 1.1-2.2 1.9-3.6 2.6-1.8.9-3.7 1.3-5.7 1.3-3.4 0-6.6-1.3-9.1-3.7-2.4-2.3-3.8-5.5-3.8-8.8 0-.3 0-.6 0-1-2.3-.8-4.3-2.3-5.8-4.2-1.7-2.1-2.6-4.8-2.6-7.5 0-1.8.4-3.6 1.2-5.2.6-1.3 1.4-2.4 2.4-3.4-1-1-1.8-2.1-2.4-3.4-.8-1.6-1.2-3.4-1.2-5.2 0-2.7.9-5.4 2.6-7.5 1.5-1.9 3.5-3.4 5.8-4.2-.3-3.7 1.1-7.2 3.7-9.8 2.4-2.4 5.7-3.7 9.1-3.7 2 0 3.9.4 5.7 1.3 1.3.6 2.5 1.5 3.6 2.6 1.1-1 2.3-1.9 3.6-2.5m13.7 30.6c1 0 1.9.8 1.9 1.8 0 1-.9 1.9-1.9 1.8-1 0-1.9-.8-1.9-1.8s.8-1.9 1.9-1.8zm-9.1-8.7c1 0 1.9.8 1.9 1.8 0 1-.9 1.9-1.9 1.8-1 0-1.9-.8-1.9-1.8.1-1 .9-1.9 1.9-1.8m-16.4 17.4c-1 0-1.9.8-1.9 1.8s.9 1.9 1.9 1.8c1 0 1.9-.8 1.9-1.8 0-1-.9-1.9-1.9-1.8 0-.1 0 0 0 0m-2.4-30c-1 0-1.9.8-1.9 1.8 0 1 .9 1.9 1.9 1.8.5 0 1-.2 1.3-.5.4-.3.6-.8.6-1.3 0-1-.8-1.8-1.9-1.8zm4.1.7c-.6-1.8-2.2-3-4.1-3-2.3 0-4.2 1.8-4.3 4.2 0 2.3 2 4.2 4.3 4.2 1.1 0 2.2-.4 3-1.2.5-.5.9-1.1 1.1-1.8h5.3v27.6h-2.9c-.6-1.8-2.2-3-4.1-3-2.3 0-4.2 1.8-4.3 4.2 0 2.3 2 4.2 4.3 4.2 1.9 0 3.6-1.2 4.1-3h2.9v17.8c-.9 1.1-2.1 2-3.5 2.7-1.5.7-3 1.1-4.7 1.1-2.8 0-5.4-1.1-7.4-3s-3.1-4.5-3.1-7.2c0-.1 0-.2 0-.4.7.1 1.4.2 2.1.2 1.7 0 3.3-.3 4.9-.9s3-1.5 4.2-2.7l-1.7-1.6c-1 .9-2.1 1.7-3.4 2.2s-2.6.8-4 .8c-3.2 0-6.3-1.5-8.3-4-1.4-1.7-2.1-3.9-2.1-6.1 0-1.5.3-2.9 1-4.2.6-1.2 1.4-2.3 2.4-3.2h3.4c.2.7.6 1.3 1.1 1.8.8.8 1.9 1.2 3 1.2s2.2-.4 3-1.2 1.3-1.8 1.3-2.9-.5-2.2-1.3-2.9c-.8-.8-1.9-1.2-3-1.2s-2.2.4-3 1.2c-.5.5-.9 1.1-1.1 1.8h-3.4c-1-.9-1.8-2-2.4-3.2-.6-1.3-1-2.8-1-4.2 0-2.2.7-4.4 2.1-6.1 1.1-1.4 2.6-2.6 4.3-3.2.6 2.1 1.7 4 3.3 5.5 2.4 2.4 5.7 3.7 9.1 3.7v-2.3c-2.8 0-5.4-1.1-7.4-3-4-3.8-4.1-10.1-.3-14.1.1-.1.2-.2.3-.3 2-1.9 4.6-3 7.4-3 1.6 0 3.2.4 4.7 1.1 1.3.6 2.5 1.6 3.5 2.7v5.2zm17.1 41.8c1 0 1.9.8 1.9 1.8 0 1-.9 1.9-1.9 1.8-1 0-1.8-.8-1.8-1.8-.1-1 .8-1.8 1.8-1.8zm-4.1 3h-5.3v5.2c.9 1.1 2.1 2 3.5 2.7 1.5.7 3 1.1 4.7 1.1 2.8 0 5.4-1.1 7.4-3 4-3.8 4.1-10.1.3-14.1-.1-.1-.2-.2-.3-.3-2-1.9-4.6-3-7.4-3v-2.3c3.4 0 6.6 1.3 9.1 3.7 1.6 1.5 2.7 3.4 3.3 5.5 1.7-.7 3.2-1.8 4.3-3.2 1.4-1.8 2.1-3.9 2.1-6.1 0-1.5-.3-2.9-.9-4.2-.6-1.2-1.4-2.3-2.4-3.2h-3.4c-.6 1.8-2.2 3-4.1 3-2.3 0-4.2-1.8-4.3-4.2 0-2.3 2-4.2 4.3-4.2 1.9 0 3.6 1.2 4.1 3h3.4c1-.9 1.8-2 2.4-3.2.6-1.3 1-2.8.9-4.2 0-2.2-.7-4.4-2.1-6.1-2-2.5-5.1-4-8.3-4-1.4 0-2.7.3-4 .8s-2.4 1.3-3.4 2.2l-1.7-1.6c1.2-1.2 2.6-2.1 4.2-2.7s3.2-.9 4.9-.9c.7 0 1.4.1 2.1.2 0-.1 0-.2 0-.4 0-2.7-1.1-5.3-3.1-7.2s-4.6-3-7.4-3c-1.6 0-3.2.4-4.7 1.1-1.3.6-2.5 1.6-3.5 2.7v17.8h2.9c.6-1.8 2.2-3 4.1-3 2.3 0 4.2 1.8 4.3 4.2 0 2.3-2 4.2-4.3 4.2-1.9 0-3.6-1.2-4.1-3h-2.9v27.6h5.3c.6-1.8 2.2-3 4.1-3 2.3 0 4.2 1.8 4.3 4.2 0 2.3-2 4.2-4.3 4.2-1.9-.3-3.5-1.5-4.1-3.3m-23.7-24.2c-.5 0-1 .2-1.3.5-.4.3-.6.8-.6 1.3s.2 1 .6 1.3.8.5 1.3.5 1-.2 1.3-.5c.4-.3.6-.8.6-1.3s-.2-1-.6-1.3c-.3-.4-.8-.6-1.3-.5" fill-rule="evenodd"/></g></svg>