<svg enable-background="new 0 0 305 280" viewBox="0 0 305 280" xmlns="http://www.w3.org/2000/svg"><g fill="#2579d0"><path d="m174.92 161.43c-13.41 0-26.82-.02-40.23.03-1.2 0-1.5-.28-1.51-1.5-.02-3.72.69-7.16 3.14-10.07 4.67-5.54 14.04-7.37 20.63-1.67 1.35 1.17 2.58 2.44 3.71 3.81 1.52 1.84 4.13 2.46 5.75 1.29 2.16-1.57 2.55-4.04 1.03-6.31-5.21-7.78-12.64-11.12-21.81-10.63-11.35.61-19.29 8.55-20.82 19.31-.22 1.54-.28 3.07-.2 4.6.05 1.01-.32 1.28-1.22 1.16-.14-.02-.29 0-.43 0-21.52 0-43.03-.01-64.55.03-1.44 0-1.65-.36-1.27-1.65.38-1.26.85-2.42 1.63-3.5 14.48-19.99 28.94-40 43.42-59.99 4.07-5.63 12.67-5.59 16.73.01 7.58 10.46 15.18 20.91 22.73 31.4.77 1.07 1.06.87 1.73-.06 11.59-16.01 23.24-31.98 34.8-48.01 1.77-2.46 7.46-4.54 10.32-3.81 3.29.84 5.68 2.5 7.64 5.2 17.6 24.34 35.23 48.66 52.91 72.94 1.45 1.99 2.17 4.14 2.66 6.47.16.76 0 1-.81 1-8.1-.02-16.21-.02-24.31-.01-.62 0-.88-.09-.97-.83-1.14-8.67-7.09-14.96-15.61-16.59-.28-.05-.57-.24-.84-.21-2.96.3-3.91-1.58-4.91-3.96-2.99-7.14-8.13-12.43-15-15.96-3.04-1.56-6.36-2.48-9.77-2.67-5.25-.29-10.47.01-15.42 2.08-4.67 1.95-8.48 5.04-11.64 8.97-.52.64-.49 1.11.42 1.3 2.36.5 4.58 1.36 6.64 2.61.56.34.85-.02 1.23-.34 2.36-1.97 4.66-4.02 7.6-5.13 3.71-1.4 7.55-1.93 11.43-1.09 8.92 1.92 14.77 7.34 17.62 15.99.34 1.03.52 2.12.73 3.19.47 2.39 1.98 3.5 4.41 3.27 3.26-.31 6.39.03 9.33 1.67 2.64 1.47 3.91 3.86 4.76 6.56.39 1.23-.51 1.11-1.3 1.11-12.69-.01-25.38-.01-38.06-.01-.78 0-1.55 0-2.32 0z"/><path d="m143.94 178.39c0-3.2.03-6.24-.02-9.27-.02-1.16.35-1.7 1.58-1.63 1.3.07 2.6.06 3.9 0 1.16-.05 1.51.47 1.5 1.56-.02 10.7-.02 21.39 0 32.09 0 1.04-.37 1.51-1.44 1.45-1.01-.05-2.02-.01-3.04-.01-1.98 0-1.98 0-2.21-2.06-1.74 1.52-3.6 2.64-5.94 2.64-4.02-.01-6.65-2.25-8.17-5.65-2.33-5.21-2.34-10.62-.04-15.83 2.66-6.02 9.55-6.93 13.33-3.53.1.08.25.11.55.24zm-8.34 11.04c-.05 1.55.08 3.09.64 4.54.59 1.54 1.64 2.64 3.38 2.73 1.77.08 2.93-.97 3.54-2.48 1.25-3.12 1.18-6.31-.06-9.41-.55-1.37-1.66-2.22-3.24-2.25-1.57-.03-2.63.81-3.35 2.11-.82 1.49-.97 3.11-.91 4.76z"/><path d="m252.42 192.29c-2.02 0-4.05.03-6.07-.01-.84-.02-1.13.19-.87 1.08.27.94.61 1.81 1.32 2.52 1.93 1.9 4.54 1.39 5.36-1.17.35-1.1.83-1.32 1.84-1.08 1.31.31 2.63.58 3.97.78 1.18.17 1.48.77 1.1 1.81-1.32 3.59-3.65 6.17-7.56 6.78-4 .62-7.72-.01-10.46-3.39-3.89-4.82-3.88-14.76-.01-19.57 4.63-5.75 13.35-4.92 16.78 1.62 1.62 3.08 1.81 6.44 1.85 9.83.01.78-.46.82-1.04.82-2.06-.02-4.14-.02-6.21-.02zm-6.93-5.39c2.17 0 4.33-.01 6.48.01.48 0 .66-.15.64-.67-.05-1.57-1.36-3.27-2.84-3.61-1.54-.35-3.09.49-3.84 2.11-.31.65-.47 1.34-.44 2.16z"/><path d="m200.71 203.16c-5.16-.01-9.38-2.98-10.92-7.88-1.2-3.82-1.28-7.67.19-11.47 1.8-4.63 5.54-7.43 10.12-7.57 5.08-.15 9.16 2.27 11.11 6.99 2.22 5.38 1.93 10.66-1.56 15.5-2.16 3.02-5.21 4.44-8.94 4.43zm-4.65-13.5c-.03 1.56.14 3.08.91 4.47 1.69 3.06 5.37 3.25 7.29.38 1.57-2.34 1.55-7.37-.04-9.66-1.83-2.65-5.16-2.66-6.98-.01-.99 1.46-1.2 3.12-1.18 4.82z"/><path d="m90.68 203.17c-5.38-.02-9.57-3.11-11.06-8.27-1.08-3.75-1.11-7.5.35-11.2 1.76-4.45 4.98-7.06 9.77-7.43 4.9-.38 8.58 1.76 10.99 6.01 2.86 5.04 2.2 12.41-1.46 16.87-2.22 2.71-5.09 4.04-8.59 4.02zm-4.7-13.38c.03 1.28.1 2.78.82 4.14.81 1.53 1.97 2.57 3.85 2.59s3.15-.97 3.85-2.55c1.26-2.86 1.29-5.81-.07-8.65-.73-1.53-2.03-2.45-3.79-2.44-1.7.01-2.86.97-3.7 2.38-.8 1.33-.91 2.82-.96 4.53z"/><path d="m163.78 203.16c-5.76 0-9.42-2.37-10.88-6.9-.49-1.51-.26-1.89 1.27-2.15 1.38-.23 2.75-.47 4.12-.75.71-.15 1.1-.09 1.35.76.8 2.78 3.73 3.92 6.36 2.56.65-.33 1.11-.81 1.07-1.57-.04-.77-.68-1-1.29-1.18-2.07-.62-4.19-1.13-6.23-1.83-4.86-1.67-6.77-4.65-6.04-9.25.62-3.93 3.93-6.48 8.61-6.62 1.4-.04 2.79.01 4.18.24 3.57.58 5.74 2.7 6.81 6.08.31.97-.09 1.47-1 1.67-1.41.31-2.83.58-4.24.89-.65.14-1.01.05-1.29-.69-.8-2.12-4.21-3-6.12-1.64-.78.55-.68 1.29.36 1.71 1.25.5 2.55.87 3.84 1.24 1.44.4 2.87.8 4.27 1.34 3.07 1.18 4.98 3.27 5.12 6.65.15 3.65-1.39 6.44-4.6 8.22-1.82 1.02-3.83 1.27-5.67 1.22z"/><path d="m221.64 179.09c2.44-2.35 5.13-3.33 8.31-2.64 3.33.72 5.36 2.92 5.81 6.34.49 3.79.16 7.61.24 11.41.04 2.31-.02 4.63.02 6.94.02 1.03-.36 1.51-1.44 1.46-1.35-.06-2.7-.06-4.05 0-1.17.06-1.5-.47-1.49-1.56.04-4.05.03-8.1.01-12.15-.01-1.06-.07-2.12-.17-3.17-.17-1.88-.91-2.86-2.26-3.12-1.5-.29-3.18.61-3.93 2.11-.39.79-.51 1.64-.58 2.52-.34 4.57-.19 9.15-.18 13.73 0 1.27-.41 1.73-1.67 1.65-1.3-.09-2.6-.05-3.9-.01-.92.03-1.33-.36-1.33-1.27.01-7.76 0-15.52.01-23.29 0-.89.42-1.31 1.35-1.27 1.01.04 2.02.01 3.04.01 2.08 0 2.08 0 2.21 2.31z"/><path d="m119.24 200.29c-2.3 2.2-4.81 3.19-7.79 2.82-3.79-.47-6.32-3.37-6.47-8-.18-5.68-.06-11.37-.08-17.06 0-.91.41-1.3 1.33-1.28 1.35.04 2.7.05 4.05 0 1.22-.05 1.59.52 1.58 1.66-.03 4.29-.02 8.58-.01 12.87 0 .82 0 1.64.1 2.45.24 2.13 1.07 3.05 2.72 3.12 1.76.08 3.42-1.16 3.83-2.89.37-1.56.33-3.16.33-4.75.02-3.57.04-7.13-.01-10.7-.02-1.31.45-1.84 1.78-1.76 1.25.08 2.51.05 3.76.01.96-.03 1.44.32 1.44 1.32-.01 7.76-.01 15.52 0 23.28 0 .85-.37 1.24-1.23 1.21-1.01-.03-2.02-.01-3.04-.01-2.1 0-2.1 0-2.29-2.29z"/><path d="m52.67 189.34c.09 1.68.1 3.18.65 4.6.69 1.78 1.93 2.63 3.75 2.56 1.6-.06 2.45-.85 3.03-2.79.57-1.9.57-1.9 2.48-1.55 1.09.2 2.17.42 3.26.62 1.1.21 1.5.71 1.2 1.92-1.4 5.68-4.98 8.54-10.76 8.46-5.32-.08-9.22-3.51-10.34-9.29-.76-3.95-.63-7.88 1.08-11.61 1.93-4.22 5.75-6.33 10.71-6.02 4.45.27 7.43 2.71 8.91 7.21.39 1.2.24 1.93-1.16 2.14-1.33.2-2.65.48-3.96.79-.81.19-1.23-.02-1.52-.83-.8-2.29-1.66-2.93-3.57-2.8-1.74.11-2.89 1.19-3.39 3.21-.09.37-.19.75-.23 1.13-.07.81-.1 1.62-.14 2.25z"/><path d="m177.32 190.39c0-1.98-.04-3.95.02-5.93.02-.86-.2-1.26-1.12-1.15-1.14.13-1.56-.46-1.51-1.55.04-1.16.04-2.31 0-3.47-.04-1.1.43-1.66 1.55-1.51.97.13 1.22-.35 1.06-1.16-.51-2.59.5-4.29 2.9-5.32.83-.36 1.53-.99 2.3-1.48.39-.25.74-.65 1.3-.36.55.29.46.79.46 1.26 0 1.98.05 3.95-.02 5.93-.03.89.23 1.18 1.13 1.14 3.23-.17 2.83.13 2.85 2.93v.29c0 3.04 0 3.07-3.07 3.29-.69.05-.92.28-.91.96.08 3.61-.11 7.23.12 10.84.08 1.32.73 1.51 1.84 1.19 1.81-.52 1.9-.45 2.1 1.45.1.96.08 1.94.31 2.87.28 1.16-.17 1.65-1.22 1.98-1.64.52-3.3.71-4.99.52-2.76-.31-4.47-2.08-4.85-4.91-.34-2.6-.23-5.21-.25-7.81z"/><path d="m76.29 185.18c0 5.2-.04 10.4.03 15.61.02 1.39-.42 1.93-1.82 1.82-1.24-.1-2.5-.05-3.76-.01-.97.03-1.41-.33-1.41-1.34.01-10.79.01-21.58 0-32.37 0-.97.38-1.42 1.37-1.39 1.2.04 2.41.01 3.61.01 1.94 0 1.97.03 1.97 1.92.01 5.25.01 10.5.01 15.75z"/></g></svg>