<svg enable-background="new 0 0 305 280" viewBox="0 0 305 280" xmlns="http://www.w3.org/2000/svg"><path d="m268.9 204.4c-.9.5-1.8.5-2.8.5-76.1 0-152.2 0-228.3 0-1.8 0-2.8-.2-2.7-2.3.1-1.5.4-2.1 2-2 1.5.1 3 0 4.5 0h223.8c1.2 0 2.5-.2 3.5.6z" fill="#306478"/><path d="m192.4 168.4c.6-.4.7.1.8.5-.4.1-.7-.1-.8-.5z" fill="#2c5d72"/><g fill="#b82e3e"><path d="m44.6 193c-.5 1.8-1.9 2.9-4.2 2.9-2.6 0-4.6-1.9-4.6-4.7s2-4.7 4.6-4.7c2.1 0 3.4 1 4 2.6l-1.6.8c-.3-1-1.1-1.8-2.4-1.8-1.6 0-2.7 1.2-2.7 3.1s1.1 3.1 2.7 3.1c1.5 0 2.3-.8 2.5-2z"/><path d="m51.6 193.6h-3.8l-.8 2.2h-1.8l3.6-9.1h2l3.6 9.1h-1.9zm-3.3-1.4h2.7l-1.4-3.5h-.1z"/><path d="m57.8 195.8v-7.5h-3.6v-1.6h8.9v1.6h-3.6v7.5z"/><path d="m69.5 193.6h-3.8l-.8 2.2h-1.8l3.6-9.1h2l3.6 9.1h-1.9zm-3.2-1.4h2.7l-1.4-3.5h-.1z"/><path d="m75.6 186.7v7.5h5.3v1.6h-7.2v-9.1z"/><path d="m86.9 186.7h2l-3.4 5.3v3.8h-1.8v-3.8l-3.5-5.3h2.1l2.3 3.6z"/><path d="m93.3 195.8v-7.5h-3.6v-1.6h8.9v1.6h-3.6v7.5z"/><path d="m102.2 186.7v9.1h-1.8v-9.1z"/><path d="m112.8 193c-.5 1.8-1.9 2.9-4.2 2.9-2.6 0-4.6-1.9-4.6-4.7s2-4.7 4.6-4.7c2.1 0 3.4 1 4 2.6l-1.6.8c-.3-1-1.1-1.8-2.4-1.8-1.6 0-2.7 1.2-2.7 3.1s1.1 3.1 2.7 3.1c1.5 0 2.3-.8 2.5-2z"/><path d="m119.9 186.7v9.1h-1.8v-9.1z"/><path d="m126.6 195.8-2.7-7.3h-.1v7.3h-1.7v-9.1h2.8l2.2 6.1 2.1-6.1h2.9v9.1h-1.9v-7.3h-.1l-2.6 7.3z"/><path d="m136.2 192.4v3.4h-1.8v-9.1h4.1c2.3 0 3.6 1 3.6 2.8s-1.3 2.8-3.6 2.8h-2.3zm2.2-1.5c1.3 0 2-.4 2-1.4 0-.9-.7-1.4-2-1.4h-2.3v2.7h2.3z"/><path d="m148.7 193.6h-3.8l-.8 2.2h-1.8l3.6-9.1h2l3.6 9.1h-1.9zm-3.3-1.4h2.7l-1.4-3.5h-.1z"/><path d="m160.9 193c-.5 1.8-1.9 2.9-4.2 2.9-2.6 0-4.6-1.9-4.6-4.7s2-4.7 4.6-4.7c2.1 0 3.4 1 4 2.6l-1.6.8c-.3-1-1.1-1.8-2.4-1.8-1.6 0-2.7 1.2-2.7 3.1s1.1 3.1 2.7 3.1c1.5 0 2.3-.8 2.5-2z"/><path d="m165 195.8v-7.5h-3.6v-1.6h8.9v1.6h-3.6v7.5z"/><path d="m175.8 195.8v-9.1h7.1v1.5h-5.3v2.3h4.1v1.5h-4.1v3.7h-1.8z"/><path d="m188.5 196c-2.6 0-4.7-1.9-4.7-4.7s2-4.7 4.7-4.7c2.6 0 4.7 1.9 4.7 4.7-.1 2.7-2.1 4.7-4.7 4.7zm0-7.9c-1.7 0-2.8 1.2-2.8 3.1s1.1 3.1 2.8 3.1 2.8-1.2 2.8-3.1c0-1.8-1.2-3.1-2.8-3.1z"/><path d="m194.8 192.1v-5.3h1.8v5.1c0 1.7.8 2.6 2.2 2.6s2.2-.9 2.2-2.6v-5.1h1.8v5.3c0 2.6-1.9 3.9-4 3.9s-4-1.3-4-3.9z"/><path d="m211.4 192.9v-6.2h1.7v9.1h-1.6l-4.8-6.7v6.7h-1.7v-9.1h2z"/><path d="m215.3 186.7h3.7c3 0 4.9 1.7 4.9 4.5s-1.9 4.5-4.9 4.5h-3.7zm3.5 7.6c2 0 3.1-1.1 3.1-3.1 0-1.9-1.1-3.1-3.1-3.1h-1.7v6.2z"/><path d="m230.9 193.6h-3.8l-.8 2.2h-1.8l3.6-9.1h2l3.6 9.1h-1.9zm-3.3-1.4h2.7l-1.4-3.5h-.1z"/><path d="m237.1 195.8v-7.5h-3.6v-1.6h8.9v1.6h-3.6v7.5z"/><path d="m246 186.7v9.1h-1.8v-9.1z"/><path d="m252.5 196c-2.6 0-4.7-1.9-4.7-4.7s2-4.7 4.7-4.7c2.6 0 4.7 1.9 4.7 4.7-.1 2.7-2.1 4.7-4.7 4.7zm0-7.9c-1.7 0-2.8 1.2-2.8 3.1s1.1 3.1 2.8 3.1 2.8-1.2 2.8-3.1c0-1.8-1.2-3.1-2.8-3.1z"/><path d="m265.3 192.9v-6.2h1.7v9.1h-1.6l-4.8-6.7v6.7h-1.7v-9.1h2z"/></g><path d="m35.2 178h233.7v4.2h-233.7z" fill="#2c5d72"/><path d="m35.2 200.6h233.7v4.2h-233.7z" fill="#2c5d72"/><path d="m261.4 76c-22 0-43.9 0-65.9 0-3.8 0-3.9.1-3.9 3.9v85.3c0 .9-.2 1.8.2 2.6.1.1.2.3.3.4 0 .1.1.2.2.2.6-.4.7.1.8.5.4 0 .7 0 1.1.1 4.9 0 9.7.1 14.6.1 3.7 0 4-.2 4-3.8 0-9.3.1-18.7-.1-28 0-2 .5-2.6 2.6-2.6 13.8.1 27.5.1 41.3 0 3 0 3.7-.8 3.8-3.7 0-3.3 0-6.5 0-9.8 0-3.6-.6-4.2-4.3-4.2-13.6 0-27.2 0-40.8 0-1.9 0-2.6-.3-2.6-2.4.2-6.2.1-12.3 0-18.5 0-2 .5-2.5 2.5-2.5 15.6.1 31.2.1 46.8 0 2.9 0 3.6-.7 3.6-3.6 0-3.3 0-6.5 0-9.8.1-3.8-.4-4.2-4.2-4.2zm-67.7 2.7c-.2 0-.4 0-.5 0zm-1 0v88.8c0-29.6 0-59.2 0-88.8z" fill="#2c5e72"/><path d="m166.1 75.9c-4.8.1-9.5 0-14.3 0-3.1 0-3.5.4-3.5 3.5v23.5 62.1c0 3.7.3 4 3.8 4h13.8c3.4 0 3.6-.2 3.6-3.6 0-14.3 0-28.5 0-42.8 0-14.4 0-28.9 0-43.3 0-2.5-.8-3.4-3.4-3.4z" fill="#2c5e72"/><path d="m82.3 92.2c13.2-1 25.7 6 27.7 18.9.3 1.8 1.4 2.5 3.1 2.5 4.9 0 9.9-.1 14.8 0 2.4 0 3.4-1.1 3.2-3.4-.4-3.9-1.1-7.7-2.7-11.2-5.3-11.6-14.6-18.3-26.1-22-.2-.1-.4-.1-.6-.2-.1 0-.1 0-.2-.1-.3-.1-.7-.2-1-.3-.4-.1-.9-.3-1.3-.4-.2 0-.5-.1-.9-.1-3.6-.7-8.2-1.1-13.3-1.1-3.4 0-6.6.2-9.4.5-.7 0-1.2 0-1.3 0-.8.2-1.6.3-2.4.5-2.2.4-4 .9-5.3 1.5-18.3 6.2-30.1 21-31.8 41.3-1.2 14.4 2.9 27.1 13.2 37.6 19.1 19.5 53.6 17.7 70.8 3.8 7.3-5.9 11.7-13.5 12.4-23 .2-3.3-.4-4.1-3.8-4.1-4.4 0-8.8.1-13.2 0-2.6-.1-3.8.8-4.3 3.4-1.2 6.5-5.3 11-11.2 13.8-6.3 2.9-12.9 3.6-19.6 2.3-12.8-2.4-21.1-11.3-23-25.2-2.8-19 9.3-33.8 26.2-35z" fill="#2c5e72"/></svg>