<svg enable-background="new 0 0 305 280" viewBox="0 0 305 280" xmlns="http://www.w3.org/2000/svg"><g fill="#355481"><path d="m39.6 103.1c1-.1 1.6-.3 1.9-.5.3-.3.4-.9.4-1.9v-12.2c0-1-.1-1.6-.4-1.9s-.9-.5-2-.6v-.5h14.4l.1 3.9h-.7c-.2-1.2-.6-2-1-2.3-.5-.4-1.5-.5-3.1-.5h-3.7c-.4 0-.6.1-.7.2s-.1.4-.1.7v6.1h4.3c1.2 0 1.9-.2 2.2-.5s.6-1 .8-2.1h.6v6.3h-.6c-.2-1.1-.5-1.7-.8-2.1-.3-.3-1.1-.5-2.2-.5h-4.2v6.7c0 .5.2.9.5 1s1.4.1 3.1.1c1.8 0 3.2-.2 4.1-.6s1.7-1.4 2.4-2.9h.8l-1.2 4.6h-14.9z"/><path d="m56.3 103.1c1.1-.1 1.8-.4 2.2-.8.3-.4.5-1.3.5-2.7v-11c0-1-.2-1.6-.5-1.9s-1-.5-2.1-.5v-.5h5.4l6.2 13.5 6-13.6h5.4v.5c-1 .1-1.7.3-2 .6s-.4.9-.4 1.9v12.1c0 1 .1 1.6.4 1.9s.9.5 2 .6v.5h-7.6v-.5c1.1-.1 1.8-.3 2.1-.6s.4-1 .4-2.2v-12.3l-7 15.5h-.4l-6.8-14.8v10.8c0 1.5.2 2.5.7 2.9.3.3.9.5 1.9.6v.5h-6.4z"/><path d="m80.4 103.1c1-.1 1.6-.3 1.9-.5.3-.3.4-.9.4-1.9v-12.2c0-1-.1-1.6-.4-1.9s-.9-.5-2-.6v-.5h14.4l.1 3.9h-.7c-.2-1.2-.6-2-1-2.3-.5-.4-1.5-.5-3.1-.5h-3.7c-.4 0-.6.1-.7.2s-.1.4-.1.7v6.1h4.2c1.2 0 1.9-.2 2.2-.5s.6-1 .8-2.1h.6v6.3h-.6c-.2-1.1-.5-1.7-.8-2.1-.3-.3-1.1-.5-2.2-.5h-4.2v6.7c0 .5.2.9.5 1s1.4.1 3.1.1c1.8 0 3.2-.2 4.1-.6s1.7-1.4 2.4-2.9h.8l-1.2 4.6h-14.8z"/><path d="m97 103.1c1-.1 1.7-.3 2-.6s.4-1 .4-2.2v-11.8c0-1-.1-1.6-.4-1.9s-.9-.5-1.9-.6v-.5h7.5c1.6 0 2.9.2 3.9.6 2 .8 3 2.1 3 4.1 0 1.4-.4 2.4-1.3 3.1s-2.1 1.2-3.6 1.4l5.6 6.9c.3.4.7.7 1 .9s.8.3 1.3.4v.5h-4.4l-6.8-8.4-1.2.1v5.4c0 1 .2 1.6.5 1.9s1 .4 2 .5v.5h-7.6zm9.3-9.5c1.4-.6 2.2-1.7 2.2-3.3s-.6-2.6-1.9-3.2c-.7-.3-1.6-.5-2.7-.5-.8 0-1.2.1-1.4.2s-.3.4-.3.8v6.7c1.9-.1 3.3-.3 4.1-.7z"/><path d="m128 85.7c1 .3 1.6.4 1.8.4.4 0 .7-.1.8-.2.2-.2.3-.4.4-.7h.6l.2 5.7h-.6c-.6-1.3-1.1-2.3-1.7-2.9-1.1-1.1-2.5-1.7-4.2-1.7s-3.3.7-4.6 2-2 3.5-2 6.5c0 2.5.7 4.5 2 5.9s2.9 2.1 4.9 2.1c.3 0 .7 0 1.2-.1.4-.1.9-.2 1.3-.3.6-.2 1-.4 1.2-.5.2-.2.2-.4.2-.7v-4.3c0-1-.1-1.7-.4-2s-.9-.4-1.9-.5v-.5h6.9v.5c-.7 0-1.1.2-1.3.3-.4.3-.6.9-.6 1.8v5.4c0 .3-.8.7-2.3 1.3-1.6.5-3.1.8-4.5.8-2.7 0-4.9-.8-6.7-2.3-2-1.7-3-4-3-6.9 0-2.5.8-4.7 2.4-6.5 1.8-2 4.1-3 7-3 .9 0 1.9.1 2.9.4z"/><path d="m135 103.1c1.1-.1 1.8-.2 2.2-.5.3-.3.5-.9.5-1.9v-12.2c0-1-.2-1.6-.5-1.9s-1-.5-2.2-.5v-.5h8v.5c-1.1.1-1.8.2-2.2.5-.3.3-.5.9-.5 1.9v12.1c0 1 .2 1.7.5 1.9.3.3 1 .4 2.2.5v.5h-8z"/><path d="m143.9 103.1c1.1-.1 1.8-.4 2.2-.8.3-.4.5-1.3.5-2.7v-12l-.4-.4c-.4-.5-.7-.8-1-.9s-.7-.2-1.3-.2v-.5h4.6l10.5 13v-9c0-1.5-.2-2.5-.7-2.9-.3-.3-.9-.5-1.9-.6v-.5h6.4v.5c-1 .1-1.7.4-2.1.8-.3.4-.5 1.3-.5 2.7v14.3h-.5l-12-14.9v10.6c0 1.5.2 2.5.7 2.9.3.3.9.5 1.9.6v.5h-6.4z"/><path d="m176.4 85.7c1 .3 1.6.4 1.8.4.4 0 .7-.1.8-.2.2-.2.3-.4.4-.7h.6l.2 5.7h-.6c-.6-1.3-1.1-2.3-1.7-2.9-1.1-1.1-2.5-1.7-4.2-1.7s-3.3.7-4.6 2-2 3.5-2 6.5c0 2.5.7 4.5 2 5.9s2.9 2.1 4.9 2.1c.3 0 .7 0 1.2-.1.4-.1.9-.2 1.3-.3.6-.2 1-.4 1.2-.5.2-.2.2-.4.2-.7v-4.3c0-1-.1-1.7-.4-2s-.9-.4-1.9-.5v-.5h6.9v.5c-.7 0-1.1.2-1.3.3-.4.3-.6.9-.6 1.8v5.4c0 .3-.8.7-2.3 1.3-1.6.5-3.1.8-4.5.8-2.7 0-4.9-.8-6.7-2.3-2-1.7-3-4-3-6.9 0-2.5.8-4.7 2.4-6.5 1.8-2 4.1-3 7-3 .8 0 1.9.1 2.9.4z"/><path d="m39.9 118.2h15.4l.1 4.6h-.7c-.3-1.5-.7-2.4-1.2-2.8s-1.5-.7-3.1-.7h-1.5v13.9c0 1 .2 1.7.5 1.9.3.3 1 .4 2.2.5v.5h-7.9v-.5c1.2-.1 1.9-.3 2.2-.6s.4-1 .4-2.2v-13.6h-1.5c-1.5 0-2.5.2-3.1.7-.5.4-1 1.4-1.2 2.8h-.7z"/><path d="m56.3 135.7c1-.1 1.6-.3 1.9-.5.3-.3.4-.9.4-1.9v-12.1c0-1-.1-1.6-.4-1.9s-.9-.5-2-.6v-.5h14.4l.1 3.9h-.7c-.2-1.2-.6-2-1-2.3-.5-.4-1.5-.5-3.1-.5h-3.7c-.4 0-.6.1-.7.2s-.1.4-.1.7v6.1h4.2c1.2 0 1.9-.2 2.2-.5s.6-1 .8-2.1h.6v6.3h-.6c-.2-1.1-.5-1.7-.8-2.1s-1.1-.5-2.2-.5h-4.2v6.7c0 .5.2.9.5 1s1.4.1 3.1.1c1.8 0 3.2-.2 4.1-.6s1.7-1.4 2.4-2.9h.8l-1.2 4.6h-14.8z"/><path d="m85.7 118.3c1 .3 1.6.4 1.7.4.3 0 .5-.1.7-.2s.4-.4.5-.7h.6l.3 6.1h-.6c-.4-1.2-.8-2.2-1.4-2.9-1.1-1.4-2.6-2.1-4.5-2.1s-3.5.8-4.7 2.3-1.8 3.6-1.8 6.2c0 2.4.6 4.4 1.9 5.8s2.9 2.2 4.8 2.2c1.4 0 2.7-.3 3.9-1 .7-.4 1.4-1 2.2-1.7l.5.5c-.6.8-1.4 1.4-2.2 2-1.5 1-3.2 1.5-5 1.5-2.9 0-5.2-.9-7-2.8-1.6-1.7-2.4-3.9-2.4-6.5s.8-4.9 2.5-6.7c1.8-1.9 4.1-2.8 6.9-2.8 1 0 2 .1 3.1.4z"/><path d="m91.1 135.7c1.1-.1 1.7-.3 2-.6s.4-1 .4-2.2v-11.8c0-1-.1-1.6-.4-1.9s-.9-.5-1.9-.5v-.5h7.5v.5c-1 .1-1.6.3-1.9.5-.3.3-.4.9-.4 1.9v5.3h8.3v-5.3c0-1-.1-1.6-.4-1.9s-.9-.5-2-.5v-.5h7.5v.5c-1 .1-1.6.3-1.9.5-.3.3-.4.9-.4 1.9v12.1c0 1 .1 1.6.4 1.9s.9.5 1.9.5v.5h-7.5v-.5c1.1-.1 1.7-.3 2-.6s.4-1 .4-2.2v-5.3h-8.3v5.6c0 1 .1 1.6.4 1.9s.9.5 1.9.5v.5h-7.5v-.3z"/><path d="m110.6 135.7c1.1-.1 1.8-.4 2.2-.8.3-.4.5-1.3.5-2.7v-12l-.4-.4c-.4-.5-.7-.8-1-.9s-.7-.2-1.3-.2v-.5h4.6l10.5 13v-9c0-1.5-.2-2.5-.7-2.9-.3-.3-.9-.5-1.9-.6v-.5h6.4v.5c-1 .1-1.7.4-2.1.8-.3.4-.5 1.3-.5 2.7v14.3h-.5l-12-14.9v10.6c0 1.5.2 2.5.7 2.9.3.3.9.5 1.9.6v.5h-6.4z"/><path d="m133.5 120.2c1.7-1.6 3.7-2.4 6.2-2.4s4.5.8 6.2 2.4c1.8 1.7 2.7 4.1 2.7 7s-.9 5.3-2.8 7c-1.7 1.6-3.7 2.3-6.1 2.3-2.5 0-4.7-.9-6.3-2.6-1.7-1.8-2.6-4-2.6-6.8s.9-5.1 2.7-6.9zm2.1 13.4c1.1 1.4 2.5 2.1 4.1 2.1s3-.7 4.1-2 1.7-3.5 1.7-6.4c0-3-.6-5.1-1.7-6.4-1.2-1.3-2.5-2-4.1-2s-3 .7-4.1 2.1-1.7 3.5-1.7 6.4c0 2.7.5 4.8 1.7 6.2z"/><path d="m149.9 135.7c1-.1 1.6-.3 1.9-.5.3-.3.4-.9.4-1.9v-12.1c0-1-.1-1.6-.4-1.9s-.9-.5-2-.6v-.5h7.7v.5c-1 .1-1.7.2-2 .5s-.5.9-.5 1.8v13c0 .3.1.5.2.7s.3.3.7.3c.2 0 .4 0 .6.1h1.3c2.4 0 4.1-.2 4.9-.6.9-.4 1.7-1.4 2.5-3.1h.7l-1.3 4.7h-14.6v-.4z"/><path d="m169.8 120.2c1.7-1.6 3.7-2.4 6.2-2.4s4.5.8 6.2 2.4c1.8 1.7 2.7 4.1 2.7 7s-.9 5.3-2.8 7c-1.7 1.6-3.7 2.3-6.1 2.3-2.5 0-4.7-.9-6.3-2.6-1.7-1.8-2.6-4-2.6-6.8-.1-2.8.8-5.1 2.7-6.9zm2 13.4c1.1 1.4 2.5 2.1 4.1 2.1s3-.7 4.1-2 1.7-3.5 1.7-6.4c0-3-.6-5.1-1.7-6.4-1.2-1.3-2.5-2-4.1-2s-3 .7-4.1 2.1-1.7 3.5-1.7 6.4c0 2.7.6 4.8 1.7 6.2z"/><path d="m199 118.3c1 .3 1.6.4 1.8.4.4 0 .7-.1.8-.2.2-.2.3-.4.4-.7h.6l.2 5.7h-.6c-.6-1.3-1.1-2.3-1.7-2.9-1.1-1.1-2.5-1.7-4.2-1.7s-3.3.7-4.6 2-2 3.5-2 6.5c0 2.5.7 4.5 2 5.9s2.9 2.1 4.9 2.1c.3 0 .7 0 1.2-.1.4-.1.9-.2 1.3-.3.6-.2 1-.4 1.2-.5.2-.2.2-.4.2-.7v-4.3c0-1-.1-1.7-.4-2s-.9-.4-1.9-.5v-.5h6.9v.5c-.7 0-1.1.2-1.3.3-.4.3-.6.9-.6 1.8v5.4c0 .3-.8.7-2.3 1.3-1.6.5-3.1.8-4.5.8-2.7 0-4.9-.8-6.7-2.3-2-1.7-3-4-3-6.9 0-2.5.8-4.7 2.4-6.5 1.8-2 4.1-3 7-3 .9 0 1.9.1 2.9.4z"/><path d="m213.7 118.2v.5c-.6 0-1.1 0-1.4.1s-.5.4-.5.7c0 .1 0 .3.1.4.1.2.2.4.4.7l4 5.9 3.9-6c.2-.3.3-.5.3-.6 0-.2.1-.3.1-.4 0-.4-.2-.6-.6-.8-.2-.1-.7-.1-1.3-.1v-.5h5.9v.5c-.5 0-1 .2-1.5.5-.7.5-1.4 1.3-2.3 2.6l-4 6.1v5.3c0 1.1.2 1.7.5 2s1.1.4 2.3.5v.5h-8.3v-.5c1.2-.1 2-.3 2.3-.6s.4-1 .4-2.2v-4.7l-3.6-5.2c-1.2-1.8-2.1-2.9-2.6-3.5-.5-.5-1.1-.8-1.8-.8v-.5h7.7z"/><path d="m39.8 168.3c1-.1 1.7-.3 1.9-.6.3-.3.4-1 .4-2.1v-11.8c0-.9-.1-1.6-.4-1.9s-.9-.5-1.9-.6v-.5h7.2c2.3 0 4.1.4 5.3 1.3s1.8 2.1 1.8 3.5c0 1.9-.7 3.2-2 4-1.4.8-3 1.2-5.1 1.2-.3 0-.7 0-1.1 0s-.8 0-1 0v4.9c0 1 .2 1.7.5 1.9.3.3 1 .4 2.1.5v.5h-7.6v-.3zm9.2-15.9c-.8-.3-1.7-.5-2.9-.5-.6 0-.9.1-1 .2s-.2.4-.2.7v7.1c.5 0 .8.1 1 .1h.4c1.2 0 2.2-.2 2.9-.5 1.3-.6 2-1.9 2-3.6-.1-1.8-.8-2.9-2.2-3.5z"/><path d="m52.4 168.8v-.5c.7-.1 1.2-.3 1.6-.8.3-.4.9-1.7 1.8-3.7l5.7-13.3h.5l6.8 15.4c.5 1 .8 1.7 1.1 1.9s.7.4 1.4.5v.5h-6.9v-.5c.8-.1 1.3-.2 1.5-.3s.3-.4.3-.7c0-.1 0-.4-.1-.7s-.2-.7-.4-1.1l-1.1-2.6h-7.2c-.7 1.8-1.1 2.9-1.3 3.3-.1.4-.2.7-.2.9 0 .5.2.8.6 1 .2.1.7.2 1.3.2v.5zm11.7-7-3.1-7.5-3.1 7.5z"/><path d="m71.9 168.3c1-.1 1.7-.3 2-.6s.4-1 .4-2.2v-11.8c0-1-.1-1.6-.4-1.9s-.9-.5-1.9-.6v-.5h7.5c1.6 0 2.9.2 3.9.6 2 .8 3 2.1 3 4.1 0 1.4-.4 2.4-1.3 3.1s-2.1 1.2-3.6 1.4l5.5 7.1c.3.4.7.7 1 .9s.8.3 1.3.4v.5h-4.3l-6.8-8.4-1.2.1v5.4c0 1 .2 1.6.5 1.9s1 .4 2 .5v.5h-7.6zm9.3-9.4c1.4-.6 2.2-1.7 2.2-3.3s-.6-2.6-1.9-3.2c-.7-.3-1.6-.5-2.7-.5-.8 0-1.2.1-1.4.2s-.3.4-.3.8v6.7c1.9-.2 3.3-.4 4.1-.7z"/><path d="m88.7 150.8h15.3l.1 4.6h-.7c-.3-1.5-.7-2.4-1.2-2.8s-1.5-.7-3.1-.7h-1.5v13.9c0 1 .2 1.7.5 1.9.3.3 1 .4 2.2.5v.5h-7.9v-.5c1.2-.1 1.9-.3 2.2-.6s.4-1 .4-2.2v-13.4h-1.5c-1.5 0-2.5.2-3.1.7-.5.4-1 1.4-1.2 2.8h-.7z"/><path d="m105 168.3c1.1-.1 1.8-.4 2.2-.8.3-.4.5-1.3.5-2.7v-12l-.4-.4c-.4-.5-.7-.8-1-.9s-.7-.2-1.3-.2v-.5h4.6l10.5 13v-9c0-1.5-.2-2.5-.7-2.9-.3-.3-.9-.5-1.9-.6v-.5h6.4v.5c-1 .1-1.7.4-2.1.8-.3.4-.5 1.3-.5 2.7v14.3h-.5l-12-14.9v10.6c0 1.5.2 2.5.7 2.9.3.3.9.5 1.9.6v.5h-6.4z"/><path d="m124.7 168.3c1-.1 1.6-.3 1.9-.5.3-.3.4-.9.4-1.9v-12.1c0-1-.1-1.6-.4-1.9s-.9-.5-2-.6v-.5h14.4l.1 3.9h-.7c-.2-1.2-.6-2-1-2.3-.5-.4-1.5-.5-3.1-.5h-3.7c-.4 0-.6.1-.7.2s-.1.4-.1.7v6.1h4.2c1.2 0 1.9-.2 2.2-.5s.6-1 .8-2.1h.6v6.3h-.6c-.2-1.1-.5-1.7-.8-2.1-.3-.3-1.1-.5-2.2-.5h-4.2v6.7c0 .5.2.9.5 1s1.4.1 3.1.1c1.8 0 3.2-.2 4.1-.6s1.7-1.4 2.4-2.9h.8l-1.2 4.6h-14.7v-.6z"/><path d="m141.3 168.3c1-.1 1.7-.3 2-.6s.4-1 .4-2.2v-11.8c0-1-.1-1.6-.4-1.9s-.9-.5-1.9-.6v-.5h7.5c1.6 0 2.9.2 3.9.6 2 .8 3 2.1 3 4.1 0 1.4-.4 2.4-1.3 3.1s-2.1 1.2-3.6 1.4l5.6 6.9c.3.4.7.7 1 .9s.8.3 1.3.4v.5h-4.4l-6.8-8.4-1.2.1v5.4c0 1 .2 1.6.5 1.9s1 .4 2 .5v.5h-7.6zm9.3-9.4c1.4-.6 2.2-1.7 2.2-3.3s-.6-2.6-1.9-3.2c-.7-.3-1.6-.5-2.7-.5-.8 0-1.2.1-1.4.2s-.3.4-.3.8v6.7c1.8-.2 3.2-.4 4.1-.7z"/><path d="m160.9 163.4c.5 1.2 1 2.2 1.6 2.9 1.1 1.3 2.4 1.9 4 1.9.9 0 1.6-.3 2.2-.8s.9-1.3.9-2.3c0-.9-.3-1.7-1-2.3-.4-.4-1.3-1-2.6-1.9l-2.3-1.4c-.7-.4-1.3-.9-1.7-1.3-.8-.9-1.2-1.8-1.2-2.8 0-1.4.5-2.5 1.4-3.4s2.1-1.4 3.6-1.4c.6 0 1.4.2 2.2.5.9.3 1.4.5 1.5.5.3 0 .6-.1.7-.2.1-.2.2-.4.3-.7h.6l.6 5.8h-.7c-.4-1.7-1.2-3-2.1-3.7-1-.7-1.9-1-2.9-1-.7 0-1.4.2-1.9.7-.6.4-.8 1-.8 1.8 0 .7.2 1.3.6 1.8s1.1 1 2 1.6l2.4 1.5c1.5.9 2.5 1.8 3.2 2.5.6.8.9 1.7.9 2.8 0 1.4-.5 2.6-1.6 3.6s-2.4 1.4-4.1 1.4c-.8 0-1.7-.2-2.6-.5s-1.4-.5-1.6-.5c-.3 0-.5.1-.6.3s-.2.4-.2.6h-.6l-.8-5.8h.6z"/><path d="m179.9 171c-.6.8-1.3 1.3-2.1 1.7l-.3-.5c.8-.5 1.4-1 1.8-1.6.3-.6.5-1 .5-1.4 0-.1 0-.2-.1-.2s-.2-.1-.3-.1l-.9.1c-.4 0-.7-.1-1-.4-.3-.2-.5-.6-.5-1.1 0-.4.1-.7.4-1s.7-.5 1.3-.5 1.1.2 1.5.7c.4.4.7 1 .7 1.8 0 .9-.3 1.8-1 2.5z"/><path d="m188.1 168.3c1-.1 1.6-.3 1.9-.5.3-.3.4-.9.4-1.9v-12.1c0-1-.1-1.6-.4-1.9s-.9-.5-2-.6v-.5h7.7v.5c-1 .1-1.7.2-2 .5s-.5.9-.5 1.8v13.1c0 .3.1.5.2.7s.3.3.7.3c.2 0 .4 0 .6.1h1.3c2.4 0 4.1-.2 4.9-.6.9-.4 1.7-1.4 2.5-3.1h.7l-1.3 4.7h-14.6v-.5z"/><path d="m204.8 168.3c1-.1 1.6-.3 1.9-.5.3-.3.4-.9.4-1.9v-12.1c0-1-.1-1.6-.4-1.9s-.9-.5-2-.6v-.5h7.7v.5c-1 .1-1.7.2-2 .5s-.5.9-.5 1.8v13.1c0 .3.1.5.2.7s.3.3.7.3c.2 0 .4 0 .6.1h1.3c2.4 0 4.1-.2 4.9-.6.9-.4 1.7-1.4 2.5-3.1h.7l-1.3 4.7h-14.6v-.5z"/><path d="m234.1 151c1 .3 1.6.4 1.7.4.3 0 .5-.1.7-.2s.4-.4.5-.7h.6l.3 6.1h-.6c-.4-1.2-.8-2.2-1.4-2.9-1.1-1.4-2.6-2.1-4.5-2.1s-3.5.8-4.7 2.3-1.8 3.6-1.8 6.2c0 2.4.6 4.4 1.9 5.8s2.9 2.2 4.8 2.2c1.4 0 2.7-.3 3.9-1 .7-.4 1.4-1 2.2-1.7l.5.5c-.6.8-1.4 1.4-2.2 2-1.5 1-3.2 1.5-5 1.5-2.9 0-5.2-.9-7-2.8-1.6-1.7-2.4-3.9-2.4-6.5s.8-4.9 2.5-6.7c1.8-1.9 4.1-2.8 6.9-2.8 1.1-.1 2.1.1 3.1.4z"/><path d="m40.8 183.6h4c.9 0 1.6.2 2.2.7.5.5.8 1.1.8 1.9 0 .4-.1.8-.2 1.1s-.3.6-.6.8-.6.4-.9.5v.1c.5.1.9.2 1.2.4s.6.5.8.9.3.8.3 1.3c0 .6-.2 1.2-.5 1.6s-.7.8-1.3 1-1.2.4-2 .4h-3.9v-10.7zm1.4 4.5h1.6c.6 0 1.1-.1 1.4-.2.4-.1.6-.3.8-.6s.3-.6.3-1c0-.5-.2-.9-.5-1.2s-.7-.4-1.3-.4h-2.4v3.4zm0 4.9h1.8c1 0 1.8-.1 2.2-.4s.7-.7.7-1.3c0-.4-.1-.7-.3-1s-.4-.5-.8-.6c-.3-.1-.7-.2-1.2-.2h-2.5v3.5z"/><path d="m50.8 194.2v-10.6h1.4v10.6z"/><path d="m62.8 192.2c-.4.7-.9 1.3-1.5 1.6-.6.4-1.4.6-2.3.6s-1.6-.2-2.3-.6c-.6-.4-1.1-.9-1.5-1.6s-.5-1.6-.5-2.6v-1.5c0-1 .2-1.9.5-2.6.4-.7.8-1.3 1.5-1.6.6-.4 1.4-.6 2.3-.6s1.6.2 2.3.6c.6.4 1.1.9 1.5 1.6s.5 1.6.5 2.6v1.5c0 1.1-.2 1.9-.5 2.6zm-1.3-6c-.3-.5-.6-.9-1-1.2s-.9-.4-1.4-.4-1 .1-1.5.4c-.4.3-.8.6-1 1.2-.2.5-.4 1.2-.4 1.9v1.6c0 .8.1 1.4.4 1.9.2.5.6.9 1 1.2s.9.4 1.5.4c.5 0 1-.1 1.4-.4s.8-.6 1-1.2c.3-.5.4-1.2.4-1.9v-1.6c0-.8-.2-1.4-.4-1.9z"/><path d="m65.9 194.2v-10.6h1.4l3.5 8.1 3.5-8.1h1.4v10.6h-1.3v-7.7h-.1l-2.9 6.8h-1.2l-2.9-6.8h-.1v7.7z"/><path d="m85.1 194.2h-6.4v-10.6h6.4v1.3h-5v3.3h4.7v1.2h-4.7v3.5h5z"/><path d="m91.1 183.6c1 0 1.9.2 2.6.6s1.2 1 1.6 1.8.5 1.8.5 2.9c0 1.2-.2 2.1-.5 2.9-.4.8-.9 1.4-1.6 1.8s-1.6.6-2.6.6h-3.5v-10.6zm-2 9.4h1.9c.6 0 1-.1 1.4-.3s.8-.4 1-.8c.3-.3.5-.8.6-1.3s.2-1.1.2-1.8c0-.9-.1-1.7-.4-2.3-.2-.6-.6-1.1-1.1-1.4s-1.1-.5-1.8-.5h-1.9v8.4z"/><path d="m98.1 194.2v-10.6h1.4v10.6z"/><path d="m103.5 189.7c0 .7.1 1.4.3 1.9s.5.9 1 1.2c.4.3.9.4 1.5.4.5 0 .9-.1 1.2-.2.4-.2.6-.4.9-.7.2-.3.4-.6.4-1h1.4c-.1.6-.3 1.1-.6 1.6-.4.5-.8.8-1.4 1.1s-1.2.4-1.9.4c-.9 0-1.7-.2-2.3-.6s-1.1-.9-1.4-1.6-.5-1.6-.5-2.6v-1.5c0-1 .2-1.9.5-2.6s.8-1.3 1.4-1.6c.6-.4 1.4-.6 2.3-.6.5 0 1 .1 1.5.2.5.2.9.4 1.2.7s.6.6.8 1 .3.8.4 1.3h-1.4c0-.4-.2-.8-.4-1.1s-.5-.6-.9-.7c-.4-.2-.8-.3-1.2-.3-.6 0-1.1.1-1.5.4s-.7.7-1 1.2c-.2.5-.3 1.2-.3 1.9z"/><path d="m111.6 194.2 3.8-10.6h1.5l3.8 10.6h-1.5l-1-3.1h-3.9l-1 3.1zm4.5-9-1.6 4.7h3.2z"/><path d="m128.8 194.2h-6.3v-10.6h1.4v9.4h4.9z"/><path d="m133.1 183.6h1.6l2.9 9h.1l2.9-9h1.6l-3.8 10.6h-1.5z"/><path d="m150.5 194.2h-6.5v-10.6h6.4v1.3h-5v3.3h4.7v1.2h-4.7v3.5h5v1.3z"/><path d="m153 194.2v-10.6h1.4l5.3 8.2h.1v-8.2h1.4v10.6h-1.4l-5.3-8.2h-.1v8.2z"/><path d="m166.2 194.2v-9.4h-3.2v-1.3h7.8v1.3h-3.2v9.4z"/><path d="m178.5 192.4c.5-.5.7-1.1.7-1.9v-6.9h1.4v7c0 .8-.2 1.5-.5 2-.3.6-.8 1-1.4 1.4-.6.3-1.3.5-2.1.5s-1.5-.2-2.1-.5-1.1-.8-1.4-1.4-.5-1.3-.5-2v-7h1.4v6.9c0 .8.2 1.5.7 1.9.5.5 1.1.7 1.9.7.8.1 1.4-.2 1.9-.7z"/><path d="m189.2 184c.5.3.9.6 1.2 1.1s.4 1 .4 1.7c0 .5-.1.9-.2 1.3-.2.4-.4.7-.7 1s-.6.5-1 .6l2.2 4.5h-1.6l-2-4.2h-2.5v4.2h-1.4v-10.6h3.9c.5 0 1.2.1 1.7.4zm-2.1 4.8c.7 0 1.3-.2 1.6-.5.4-.3.6-.8.6-1.4s-.2-1.1-.6-1.5-.9-.5-1.6-.5h-2.3v4h2.3z"/><path d="m199.8 194.2h-6.4v-10.6h6.4v1.3h-5v3.3h4.7v1.2h-4.7v3.5h5z"/><path d="m207 189.7c0 .7.1 1.4.3 1.9s.5.9 1 1.2c.4.3.9.4 1.5.4.5 0 .9-.1 1.2-.2.4-.2.6-.4.9-.7.2-.3.4-.6.4-1h1.4c-.1.6-.3 1.1-.6 1.6-.4.5-.8.8-1.4 1.1s-1.2.4-1.9.4c-.9 0-1.7-.2-2.3-.6s-1.1-.9-1.4-1.6-.5-1.6-.5-2.6v-1.5c0-1 .2-1.9.5-2.6s.8-1.3 1.4-1.6c.6-.4 1.4-.6 2.3-.6.5 0 1 .1 1.5.2.5.2.9.4 1.2.7s.6.6.8 1 .3.8.4 1.3h-1.4c0-.4-.2-.8-.4-1.1s-.5-.6-.9-.7c-.4-.2-.8-.3-1.2-.3-.6 0-1.1.1-1.5.4s-.7.7-1 1.2c-.2.5-.3 1.2-.3 1.9z"/><path d="m215 194.2 3.8-10.6h1.5l3.8 10.6h-1.5l-1-3.1h-3.9l-1 3.1zm4.5-9-1.6 4.7h3.2z"/><path d="m231.6 184c.5.3.9.7 1.2 1.2s.4 1.1.4 1.7c0 .7-.1 1.2-.4 1.7s-.7.9-1.2 1.2-1.1.4-1.8.4h-2.5v4h-1.4v-10.6h3.9c.7 0 1.3.1 1.8.4zm-.4 1.4c-.4-.4-.9-.5-1.5-.5h-2.3v4.2h2.3c.4 0 .8-.1 1.1-.2.3-.2.5-.4.7-.7s.2-.7.2-1.1c.1-.8-.1-1.4-.5-1.7z"/><path d="m235.3 194.2v-10.6h1.4v10.6z"/><path d="m241.8 194.2v-9.4h-3.2v-1.3h7.8v1.3h-3.2v9.4z"/><path d="m246.5 194.2 3.8-10.6h1.5l3.8 10.6h-1.6l-1-3.1h-3.9l-1 3.1zm4.5-9-1.6 4.7h3.2z"/><path d="m263.7 194.2h-6.3v-10.6h1.4v9.4h4.9z"/></g></svg>