<svg enable-background="new 0 0 305 280" viewBox="0 0 305 280" xmlns="http://www.w3.org/2000/svg"><g fill="#048090"><path d="m138.6 115.5h1.7v1.8h-1.7zm.2 5.5h1.4v14.1h-1.4z"/><path d="m145.5 121h1.4v2.6c.9-1.7 2.5-3 5.1-3 3.6 0 5.6 2.4 5.6 5.8v8.6h-1.4v-8.4c0-2.9-1.6-4.8-4.5-4.8-2.8 0-4.9 2.1-4.9 5v8.1h-1.4v-13.9z"/><path d="m162.4 121h1.4v2.6c.9-1.7 2.5-3 5.1-3 3.6 0 5.6 2.4 5.6 5.8v8.6h-1.4v-8.4c0-2.9-1.6-4.8-4.5-4.8-2.8 0-4.9 2.1-4.9 5v8.1h-1.4v-13.9z"/><path d="m178.3 128.1c0-4 3.1-7.4 7.3-7.4s7.2 3.4 7.2 7.3v.1c0 3.9-3.1 7.4-7.3 7.4-4.2-.1-7.2-3.4-7.2-7.4zm13 0c0-3.4-2.5-6.1-5.8-6.1s-5.7 2.7-5.7 6v.1c0 3.4 2.5 6.1 5.8 6.1 3.3-.1 5.7-2.8 5.7-6.1z"/><path d="m194.7 121h1.6l5.3 12.5 5.4-12.5h1.5l-6.3 14.2h-1.2z"/><path d="m210.3 131c0-3 2.5-4.6 6.1-4.6 2 0 3.3.2 4.7.6v-.6c0-2.8-1.7-4.3-4.6-4.3-1.7 0-3.1.5-4.4 1.1l-.5-1.2c1.5-.7 3.1-1.2 5-1.2s3.4.5 4.4 1.5c.9.9 1.4 2.2 1.4 4v8.8h-1.3v-2.3c-1 1.4-2.7 2.7-5.4 2.7-2.6-.1-5.4-1.6-5.4-4.5zm10.8-1.2v-1.6c-1.2-.3-2.8-.6-4.8-.6-3 0-4.6 1.3-4.6 3.3v.1c0 2 1.9 3.2 4.1 3.2 2.9-.1 5.3-1.8 5.3-4.4z"/><path d="m227.9 131.5v-9.2h-2v-1.3h2v-4.5h1.4v4.5h4.9v1.2h-4.9v9.1c0 2 1.2 2.7 2.8 2.7.7 0 1.3-.1 2.1-.5v1.3c-.7.3-1.4.5-2.3.5-2.3 0-4-1.2-4-3.8z"/><path d="m238.2 115.5h1.7v1.8h-1.7zm.2 5.5h1.4v14.1h-1.4z"/><path d="m244.1 128.1c0-4 3.1-7.4 7.3-7.4s7.2 3.4 7.2 7.3v.1c0 3.9-3.1 7.4-7.3 7.4-4.2-.1-7.2-3.4-7.2-7.4zm13 0c0-3.4-2.5-6.1-5.8-6.1s-5.7 2.7-5.7 6v.1c0 3.4 2.5 6.1 5.8 6.1 3.3-.1 5.7-2.8 5.7-6.1z"/><path d="m262.7 121h1.4v2.6c.9-1.7 2.5-3 5.1-3 3.6 0 5.6 2.4 5.6 5.8v8.6h-1.4v-8.4c0-2.9-1.6-4.8-4.5-4.8-2.8 0-4.9 2.1-4.9 5v8.1h-1.4v-13.9z"/><path d="m138.6 145h1.7v1.8h-1.7zm.2 5.5h1.4v14.1h-1.4z"/><path d="m145.5 150.5h1.4v2.6c.9-1.7 2.5-3 5.1-3 3.6 0 5.6 2.4 5.6 5.8v8.6h-1.4v-8.4c0-2.9-1.6-4.8-4.5-4.8-2.8 0-4.9 2.1-4.9 5v8.1h-1.4v-13.9z"/><path d="m170.9 145.3h1.4l7.7 11.4 7.7-11.4h1.4v19.3h-1.4v-16.8l-7.6 11.1h-.1l-7.6-11.1v16.8h-1.4v-19.3z"/><path d="m193.6 157.6c0-4 3.1-7.4 7.3-7.4s7.2 3.4 7.2 7.3v.1c0 3.9-3.1 7.4-7.3 7.4-4.2-.1-7.2-3.5-7.2-7.4zm13 0c0-3.4-2.5-6.1-5.8-6.1s-5.7 2.7-5.7 6v.1c0 3.4 2.5 6.1 5.8 6.1 3.3-.1 5.7-2.8 5.7-6.1z"/><path d="m213 161v-9.2h-2v-1.2h2v-4.6h1.4v4.5h4.9v1.2h-4.9v9.1c0 2 1.2 2.7 2.8 2.7.7 0 1.3-.1 2.1-.5v1.3c-.7.3-1.4.5-2.3.5-2.3 0-4-1.2-4-3.8z"/><path d="m223.3 145h1.7v1.8h-1.7zm.1 5.5h1.4v14.1h-1.4z"/><path d="m229.1 157.6c0-4 3.1-7.4 7.3-7.4s7.2 3.4 7.2 7.3v.1c0 3.9-3.1 7.4-7.3 7.4-4.1-.1-7.2-3.5-7.2-7.4zm13 0c0-3.4-2.5-6.1-5.8-6.1s-5.7 2.7-5.7 6v.1c0 3.4 2.5 6.1 5.8 6.1 3.3-.1 5.7-2.8 5.7-6.1z"/><path d="m247.8 150.5h1.4v2.6c.9-1.7 2.5-3 5.1-3 3.6 0 5.6 2.4 5.6 5.8v8.6h-1.4v-8.4c0-2.9-1.6-4.8-4.5-4.8-2.8 0-4.9 2.1-4.9 5v8.1h-1.4v-13.9z"/><path d="m82.4 117.1 19 28v-38.6h-72.8v66.7h72.7v-22.5h-.1l-18.8-27.3v41.2h-3.4v-47.4h3.4zm-33.6 47.5h-3.3v-34.6h3.3zm.4-43.6h-4.1v-4.5h4.1zm16.4 43.6h-3.3v-34.6h3.3zm.4-43.6h-4.1v-4.5h4.1z"/><path d="m120.5 117.1-19.1 28.1v-.1 5.6h.1l18.8-27.3v41.2h3.5v-47.5z"/></g></svg>