<svg enable-background="new 0 0 305 280" viewBox="0 0 305 280" xmlns="http://www.w3.org/2000/svg"><path d="m18.9 164.88c.17-1.41.92-2.61 1.45-3.87 5.58-13.38 11.23-26.74 16.79-40.13 1.19-2.86 3.05-4.84 6.05-5.69.17-.05.36-.06.4-.29h.87c1.23.35 2.45.35 3.68 0h.43c.07.92-.49 1.64-.81 2.42-5.87 14.03-11.76 28.04-17.62 42.07-1.25 2.98-3.34 4.89-6.56 5.47-.15.03-.27.07-.32.23-.14 0-.29 0-.43 0-1.3-.48-2.63-.09-3.93-.21z" fill="#575757"/><path d="m61.32 165.09c-.06-.34-.38-.3-.6-.36-2.8-.67-4.69-2.4-5.81-5.01-1.19-2.78-2.38-5.55-3.52-8.35-.28-.68-.63-.9-1.35-.89-3.96.06-7.92.07-11.88.09-.17 0-.35-.03-.68-.07.97-2.12 1.51-4.35 2.83-6.21.99-1.4 2.48-2.08 4.19-2.11 3.74-.07 7.49-.05 11.24-.1.64-.01.95.21 1.2.8 2.94 7.07 5.9 14.13 8.85 21.19.13.32.21.67.31 1-.14 0-.29 0-.43 0-1.23-.35-2.45-.35-3.68 0-.24.02-.45.02-.67.02z" fill="#575757"/><path d="m286.1 149.09c-1.12 0-2.24-.03-3.35 0-.54.01-.76-.12-.76-.71.02-6.96.02-13.92 0-20.87 0-.59.22-.73.76-.72 1.12.03 2.24.01 3.35.02z" fill="#585858"/><path d="m115.91 141.93c1.79-4.67 3.5-9.06 5.15-13.47.28-.74.6-1.08 1.45-1.03 1.51.08 3.03.05 4.54.01.61-.01.81.19.81.8-.02 6.7-.01 13.41 0 20.11 0 .56-.17.77-.74.74-.9-.04-1.81-.06-2.7 0-.77.06-.96-.22-.96-.97.03-4.58.02-9.15.02-13.73 0-.31 0-.63 0-.94-.06-.01-.13-.03-.19-.04-.54 1.43-1.08 2.85-1.61 4.28-1.08 2.86-2.17 5.72-3.21 8.59-.22.62-.53.84-1.18.8-.93-.05-1.88-.06-2.81 0-.71.05-1-.27-1.23-.89-1.5-4.05-3.04-8.08-4.56-12.12-.06-.16-.08-.35-.42-.45v.92c0 4.5-.02 9.01.02 13.51.01.77-.13 1.11-.99 1.03-1.07-.1-2.48.33-3.13-.21-.69-.57-.21-2.02-.22-3.09-.02-5.77.01-11.53-.03-17.3-.01-.85.21-1.11 1.07-1.07 1.44.07 2.88.06 4.32 0 .73-.03 1.08.21 1.34.9 1.54 4.11 3.14 8.2 4.72 12.29.14.38.29.74.54 1.33z" fill="#c22b31"/><path d="m156.05 141.42c0-1.39 0-2.79 0-4.18 0-2.92.04-5.84-.02-8.76-.02-.89.28-1.11 1.1-1.05.86.07 1.73.05 2.59 0 .58-.03.73.2.73.75-.01 6.7-.02 13.41 0 20.11 0 .62-.2.77-.8.79-3.32.09-3.29.08-5.27-2.56-2.89-3.85-5.82-7.67-8.89-11.71-.03.58-.07.92-.07 1.25 0 4-.03 8 .02 12 .01.83-.23 1.07-1.03 1.01-.86-.07-1.73-.04-2.59-.01-.53.02-.78-.1-.78-.7.02-6.74.02-13.48 0-20.22 0-.58.22-.71.76-.73 3.19-.12 3.19-.14 5.12 2.39 2.97 3.89 5.93 7.78 8.89 11.67.08.01.16-.02.24-.05z" fill="#c22b30"/><path d="m163.81 138.32c-.03-6.56 4.73-11.31 11.32-11.3 6.5.01 11.32 4.62 11.44 10.76.14 7.15-4.87 11.62-11.01 11.69-7 .09-11.72-4.44-11.75-11.15zm18.18-.07c0-4.19-2.85-7.09-6.92-7.04-3.95.04-6.66 2.93-6.73 7.03-.07 3.78 2.47 7.09 6.88 7.1 4.03.01 6.77-2.94 6.77-7.09z" fill="#c22b31"/><path d="m101.53 149.08c-1.38 0-2.71-.02-4.04.01-.54.01-.65-.33-.79-.71-.45-1.22-.94-2.42-1.35-3.65-.18-.55-.47-.71-1.02-.71-2.56.02-5.12.02-7.68 0-.55-.01-.83.17-1.02.71-.42 1.26-.94 2.49-1.37 3.75-.16.46-.39.61-.86.6-1.26-.02-2.52-.01-3.91-.01.85-2.2 1.66-4.3 2.47-6.4 1.84-4.73 3.7-9.45 5.5-14.19.3-.8.68-1.13 1.56-1.06 1.15.09 2.31.04 3.46.01.5-.01.79.14.98.62 2.65 6.84 5.31 13.68 7.97 20.52.06.14.06.29.1.51zm-11-17.29c-1.04 2.75-1.97 5.23-2.91 7.7-.09.24-.21.53.22.53 1.88.01 3.76 0 5.76 0-1.03-2.76-1.99-5.35-3.07-8.23z" fill="#c22c32"/><path d="m227.46 147.79c0 2.27-.04 4.39.02 6.51.02.84-.26 1.08-1.05 1.01-.96-.1-2.2.4-2.82-.2s-.19-1.85-.19-2.8c-.02-5.7.01-11.39-.03-17.09-.01-.92.27-1.21 1.15-1.11.53.06 1.09.06 1.62 0 .95-.11 1.45.17 1.2 1.46 1.83-1.75 3.82-2.17 6.01-1.71 1.69.35 3.05 1.26 4.08 2.63 2.41 3.18 2.12 8.16-.63 10.94-2.48 2.52-5.99 2.7-9.36.36zm7.42-6.15c.02-2.43-1.59-4.19-3.83-4.18-2.15 0-3.76 1.7-3.79 4-.04 2.46 1.53 4.21 3.78 4.21 2.25.02 3.82-1.63 3.84-4.03z" fill="#5a5a5a"/><g fill="#595959"><path d="m215.64 135.6c-.26-1.48.49-1.52 1.46-1.49 2.54.05 2.54.02 2.54 2.61 0 3.78-.02 7.56.02 11.34.01.77-.14 1.15-.99 1.04-.53-.07-1.08-.05-1.62-.01-.91.07-1.7.04-1.38-1.41-.99.76-1.86 1.37-2.93 1.62-3.24.75-6.47-.82-7.97-3.89-2.29-4.69.05-10.39 4.76-11.5 2.22-.54 4.26-.12 6.11 1.69zm-3.83 10.07c2.23.07 3.87-1.55 3.98-3.94.11-2.32-1.57-4.21-3.78-4.27-2.16-.06-3.83 1.65-3.93 4.02-.1 2.29 1.53 4.12 3.73 4.19z"/><path d="m274.28 147.62c-2.47 2.17-5 2.4-7.56 1.15-2.68-1.31-3.96-3.64-4.11-6.61-.1-1.96.24-3.79 1.39-5.42 2.36-3.34 6.98-4.13 10.2-1.27-.25-1.48.67-1.36 1.59-1.35 2.48.03 2.48.01 2.48 2.44 0 3.81-.03 7.63.02 11.44.01.93-.28 1.2-1.15 1.1-.5-.06-1.01-.04-1.51 0-.88.05-1.7.05-1.35-1.48zm.16-6.03c0-2.31-1.65-4.1-3.83-4.13-2.21-.03-3.89 1.77-3.88 4.16.01 2.35 1.65 4.07 3.87 4.06 2.2-.02 3.84-1.76 3.84-4.09z"/><path d="m251.13 141.24c0-.9-.03-1.8.01-2.7.03-.65-.19-.87-.86-.89-2-.04-2.01-.07-2-2.04.01-1.7-.25-1.47 1.49-1.49 1.36-.01 1.33 0 1.38-1.41.03-1-.47-2.32.23-2.89.59-.49 1.86-.1 2.82-.19.86-.08 1.05.27.99 1.05-.06.82.03 1.66-.03 2.49-.05.74.16 1.02.94.98 1.26-.06 2.52.01 3.78-.02 1.13-.03.79.86.68 1.28-.2.76.85 2.03-.68 2.24-1.2.17-2.45.07-3.67.02-.78-.04-1.1.16-1.06 1.01.07 1.4.01 2.81.02 4.22.01 2.41 1.47 3.38 3.72 2.5 1.42-.56 1.42-.56 2.06.83.85 1.84.8 1.97-1.14 2.68-.81.3-1.65.52-2.52.58-3.77.29-6.03-1.74-6.16-5.53-.02-.91 0-1.82 0-2.72z"/><path d="m188.74 141.53c0-3.4 1.76-6.07 4.77-7.28 2.96-1.19 6.59-.5 8.64 1.6.47.48.66.84-.04 1.24-.19.1-.35.25-.51.4-.97.91-1.71 1.72-3.26.5-1.51-1.19-3.53-.52-4.66 1-1.19 1.59-1.06 4.17.27 5.6 1.18 1.27 3.35 1.58 4.83.42.99-.78 1.58-.62 2.28.2.11.14.27.24.41.35 1.45 1.22 1.47 1.41-.14 2.49-2.71 1.83-5.6 1.93-8.5.54-2.69-1.29-4.09-3.84-4.09-7.06z"/></g><path d="m48.79 138.76c-1.62 0-3.24.02-4.86-.01-1.08-.01-1.45-.54-1.03-1.53 1.52-3.57 3.08-7.12 4.63-10.68.24-.54.63-.85 1.25-.85.61 0 1.02.29 1.26.84 1.55 3.56 3.11 7.11 4.63 10.68.42.99.03 1.52-1.03 1.53-1.62.02-3.24 0-4.86 0 .01.01.01.02.01.02z" fill="#c22b30"/><path d="m132.27 138.15c0-3.24.03-6.48-.02-9.72-.01-.83.23-1.06 1.03-.99.82.07 1.66.05 2.48 0 .67-.04.86.19.85.86-.03 2.77-.01 5.54-.01 8.31 0 3.78-.03 7.56.02 11.34.01.86-.16 1.24-1.1 1.15-1.03-.1-2.42.33-3.02-.19-.69-.6-.21-2.02-.22-3.09-.03-2.56-.01-5.11-.01-7.67z" fill="#c12b30"/><path d="m245.93 141.61c0 2.19-.03 4.39.02 6.58.01.73-.23.94-.92.9-.75-.05-1.51-.06-2.26 0-.7.06-.83-.23-.82-.86.02-4.42.03-8.85 0-13.27 0-.66.17-.9.84-.84 1 .09 2.27-.4 2.92.18.68.6.19 1.9.22 2.89.04 1.47 0 2.95 0 4.42z" fill="#575757"/><path d="m243.82 131.78c-1.48-.04-2.55-1.17-2.51-2.66.03-1.38 1.21-2.54 2.57-2.54 1.48.01 2.65 1.21 2.63 2.7-.02 1.45-1.19 2.54-2.69 2.5z" fill="#5a5a5a"/></svg>