<svg enable-background="new 0 0 305 280" viewBox="0 0 305 280" xmlns="http://www.w3.org/2000/svg"><path d="m184.4 98h9.9 8.8c.8 0 1.2.2 1.6 1 3.1 6.1 6.3 12.2 9.5 18.3.1.2.2.3.4.6 1-2 2-3.9 3-5.8 2.3-4.4 4.6-8.9 6.9-13.3.2-.3.7-.7 1.1-.7h18.6c.1 0 .2 0 .5.1-6.9 11.5-13.8 23-20.6 34.4 7.3 12 14.6 24 22 36.2-.5 0-.8.1-1.1.1-5.9 0-11.9 0-17.8 0-.7 0-1.1-.2-1.5-.9-3.5-6.5-6.9-13-10.4-19.5-.2-.4-.4-.7-.7-1.2-.3.5-.5.8-.7 1.1-3.5 6.5-7 13-10.4 19.5-.4.7-.8 1-1.6 1-5.8 0-11.7 0-17.5 0-.3 0-.7 0-1.2 0 .2-.3.3-.6.4-.8 7-11.5 13.9-22.9 20.9-34.4.5-.8.5-1.4 0-2.2-6.5-10.7-12.9-21.5-19.3-32.2-.3-.4-.5-.8-.8-1.3z"/><path d="m120.2 168.7c-.5 0-.8 0-1.1 0-5.9 0-11.8 0-17.7 0-.8 0-1.2-.2-1.5-.9-3.5-6.6-7-13.1-10.5-19.7-.2-.3-.3-.6-.6-1-1.2 2.2-2.3 4.3-3.5 6.5-2.6 4.8-5.1 9.6-7.7 14.4-.3.5-.5.8-1.2.8-6.1 0-12.3 0-18.4 0-.2 0-.3 0-.7-.1 1-1.6 1.9-3.2 2.9-4.8 6.2-10.2 12.4-20.3 18.6-30.5.4-.7.4-1.2 0-1.9-6.6-10.9-13.1-21.8-19.6-32.7-.1-.2-.2-.4-.4-.8.4 0 .8-.1 1.1-.1h17.7c.8 0 1.1.3 1.4.9 3.1 6.1 6.2 12.1 9.4 18.2.1.2.3.5.5.8 1.6-3.1 3.2-6.1 4.7-9.1 1.7-3.4 3.5-6.7 5.2-10 .2-.3.6-.7 1-.7h18.7c.1 0 .2 0 .4.1-.2.3-.3.6-.5.9-6.5 10.8-13 21.7-19.5 32.5-.4.7-.5 1.2 0 1.9l20.7 33.9c.1.4.3.8.6 1.4z"/><path d="m177.7 98.1v15.4c-5.8 0-11.5 0-17.3 0v55.2c-5.8 0-11.6 0-17.4 0 0-18.3 0-36.6 0-55.1-5.8 0-11.6 0-17.4 0 0-5.2 0-10.3 0-15.5z"/><path d="m48.3 175.3h5.7v8.7c-4.8 0-9.6 0-14.4 0 0-33.6 0-67.1 0-100.8h14.4v8.7c-1.9 0-3.8 0-5.7 0z"/><path d="m263.8 184.1c-4.9 0-9.6 0-14.4 0 0-2.9 0-5.8 0-8.8h5.7c0-27.8 0-55.5 0-83.4-1.9 0-3.8 0-5.7 0 0-3 0-5.8 0-8.7h14.5c-.1 33.6-.1 67.2-.1 100.9z"/><path d="m111.9 191 3.2-6.4h2.2v11.7h-2.3v-7.2l-2.5 5.1h-1.4l-2.5-5.1v7.2h-2.2v-11.7h2.2z"/><path d="m121.9 196.3 4.1-11.7h2.3l4.1 11.7h-2.5l-.7-2.2h-3.9l-.7 2.2zm3.9-4.2h2.6l-1.3-4.1z"/><path d="m143.1 196.3-2.1-4.6h-1.9v4.6h-2.4v-11.7h4.2c2.7 0 4.4 1.2 4.4 3.6 0 1.6-.7 2.6-2 3.1l2.4 5zm-2.4-6.6c1.4 0 2.2-.3 2.2-1.5s-.8-1.6-2.2-1.6h-1.6v3.1z"/><path d="m157.3 196.3-3-4.9-1.4 1.8v3.1h-2.4v-11.7h2.4v5l3.7-5h2.8l-3.6 4.7 4.3 6.9h-2.8z"/><path d="m172.1 184.6v2h-4.9v2.6h4.4v2h-4.4v3h4.9v2h-7.3v-11.7h7.3z"/><path d="m184.9 184.6v2h-3.2v9.7h-2.4v-9.7h-3.2v-2z"/><path d="m195.6 187.7c-.5-.8-1.1-1.2-2.3-1.2-1.1 0-1.6.5-1.6 1.3 0 .9.7 1.3 2.3 1.7 2.4.6 3.5 1.5 3.5 3.6 0 1.9-1.3 3.4-4 3.4-2 0-3.5-.6-4.5-1.9l1.8-1.3c.6.8 1.3 1.2 2.5 1.2 1.4 0 1.8-.6 1.8-1.3 0-.8-.5-1.3-2.4-1.8-2.3-.6-3.4-1.7-3.4-3.6 0-1.8 1.2-3.3 4-3.3 1.9 0 3.3.6 4.1 1.9z"/></svg>