<svg id="Group_1434" data-name="Group 1434" xmlns="http://www.w3.org/2000/svg" width="119.184" height="25.927" viewBox="0 0 119.184 25.927">
  <g id="Group_1430" data-name="Group 1430" transform="translate(49.583)">
    <path id="Path_1367" data-name="Path 1367" d="M3014.441,1433,3006,1451.407h16.229Zm-1.018,16.774h-5.354l5.5-11.873,5.07,11.873Z" transform="translate(-3006 -1433)" fill="#fff"/>
  </g>
  <g id="Group_1429" data-name="Group 1429" transform="translate(0 4.649)" style="isolation: isolate">
    <g id="Group_1413" data-name="Group 1413" transform="translate(0 0.433)">
      <path id="Path_1368" data-name="Path 1368" d="M2564.852,1484.088l-.24.746-.433.385v.313a3.569,3.569,0,0,0-.481.168l-.073.024a.456.456,0,0,1-.385.337,2.005,2.005,0,0,1-1.036.481,1.123,1.123,0,0,1-.77.433l-.337.168h-.481l-.265.169-.121.024a.806.806,0,0,1-.289.168l-.266.193h-.553l-.289.241-1.035.217a5.789,5.789,0,0,0-.577.048l-.506.385a1.062,1.062,0,0,0-.433-.1h-.144l-.169.1-.313.073-.217.145-.168.048.265.423-.166.6.193.792v.552l.1.216a.564.564,0,0,1,.505.647q0,.552-.89.839l-.674.216-.746-.891-.313-.987v-.915l-.337-.6.241-.265-.072-.289.024-.193a6.953,6.953,0,0,1-.963-.12l-.818-1.155,1.805-.12v-.242l.137-.29.11-1.016.137-.145-.072-.919.072-.387V1483.3l.305-.556.056-.048-.024-.073a.825.825,0,0,1,.385-.484l.53-.024h.169q1.034,0,1.035.774a1.891,1.891,0,0,1-.337.871v.121a1.16,1.16,0,0,0,.337.75l-.337.1v.6l-.361.242.12.339-.193.363.073.459-.073.218.024.218.168-.1h.481a1.371,1.371,0,0,1,.794-.289l.337-.289a.843.843,0,0,0,.313.217q.265-.12.915-.385l.313-.048.385-.241h.192l.024-.048h.168a1.409,1.409,0,0,0,.867-.289h.53l.024-.12.337-.144.168-.217a1.008,1.008,0,0,0,.241.024l.217-.409a.356.356,0,0,1,.192-.1c.049,0,.08.032.1.1a.638.638,0,0,1,.337-.217l.024-.12.169-.12.024-.193-.121-.313-.193-.217-.193-.048-.458-.385-.893-.337a7.161,7.161,0,0,0-1.109-.554l-.386.227-.674-.41-.553.038-.36-.217h-.385l-.336-.193h-.1a.4.4,0,0,1-.12.024,1.168,1.168,0,0,1-.6-.187l-.576-.084-.433.055-.458-.145-.506.12-.072-.048-.361.12-.289-.1v.1h-.577l-.433.25-.505.075-.65.325-.433-.607a1.654,1.654,0,0,1-.289-.972l.265-.292a.667.667,0,0,1,.529-.522c.289-.073.585-.15.891-.231h.192l.1.029.168.029-.072.086.505-.144h.289a.9.9,0,0,1,.457.144h.963l.722.048,1.324.192.361.265.337-.1.626.168h.722l.1.144h.506l.554.337.529.048.121.168a1.474,1.474,0,0,1,.866.313l.481-.1.193.481.265.193h.409l.313.457.915.529v.361Z" transform="translate(-2550.771 -1479.659)" fill="#fff"/>
    </g>
    <g id="Group_1414" data-name="Group 1414" transform="translate(14.274 0)">
      <path id="Path_1369" data-name="Path 1369" d="M2697.782,1476.813q0,.144-.264.361a.706.706,0,0,0-.289.481,1.273,1.273,0,0,1-.337.385q-.072.289-.481.361l-.433.337-.313.578h-.24a2.31,2.31,0,0,1-.434.457q-.072.024-.409.193l-.505.554-.675.481-.217.072-.217.385-.53.313-.265.265-.241.6-.89.987-.289.433-.12.241.144.241-.192.433.12.409-.193.553.048.337.168.674a1.292,1.292,0,0,0-.361.794,3.152,3.152,0,0,0,.061.505,3.184,3.184,0,0,1,.06.481l-.192,1.059.048.6-.1.217.169.867-.193.289.168.433-.144.217.1.193a.691.691,0,0,1,.073.313v.12l-.169.6.144.65-.217.458.217.289v.169a2.5,2.5,0,0,1-.275,1.36,1.12,1.12,0,0,1-.99.4l-.215-1.152-.215-.7-.024-.456-.31-.192.2-.487-.1-.337.1-.722-.144-.771.072-.6v-.168a1.036,1.036,0,0,1-.024-.193.7.7,0,0,1,.024-.169v-.144l-.121-1.108.121-.53-.072-.578.144-.963-.217-.385.12-.578-.024-.457-.192-.433a1.825,1.825,0,0,0,.192-.674.394.394,0,0,0-.048-.217l-.1-.433-.145-.409-.24-.193-.145-.217a4.2,4.2,0,0,1-1.083-1.059l-.385-.241-.337-.626-.963-.866-.193-.337-.385-.482-.722-.578v-.241l-.361-.241q-.1-.6-.505-.6a1.859,1.859,0,0,1-1.011-1.685l.121-.626h.289a.8.8,0,0,1,.53-.145,3.458,3.458,0,0,1,1.011.217l.169.385.385.12.433.674.626.457.024.217.506.794.361.265,1.324,1.829.434.553q.866.891,1.348,1.445v-.072a.913.913,0,0,1,.289-.6l-.024.12a2.01,2.01,0,0,1,.409-.626.85.85,0,0,1,.337-.529,1.558,1.558,0,0,1,.457-.53l.217-.1.072-.1a.846.846,0,0,1,.866-.626l.048.1.217-.409q.289-.072.241-.072.216-.265.361-.433l.169-.313a1.577,1.577,0,0,1,1.035-.626v-.289l.168-.193.241-.192.145-.506a.217.217,0,0,0,.193.12q.217,0,.385-.578l.722-.313.385-.385.674.048.505-.144.217.505A3.58,3.58,0,0,1,2697.782,1476.813Z" transform="translate(-2681.823 -1475.681)" fill="#fff"/>
    </g>
    <g id="Group_1415" data-name="Group 1415" transform="translate(30.474 1.276)">
      <path id="Path_1370" data-name="Path 1370" d="M2848.73,1498.9l-.145-.048-.217.313-.554.072-.481.169-.674-.145-.12.048-.457.313a1.451,1.451,0,0,0-.409-.241l-.433.409-.337-.337-.145.048c-.048-.048-.1-.1-.156-.145s-.093-.08-.109-.1h-1.035l-.169-.193-.481-.12q-.361-.1-.7-.217h-.289l-.217-.241h-.1a.626.626,0,0,1-.421-.24,1.23,1.23,0,0,0-.3-.265q-.482-.24-.987-.517a1.9,1.9,0,0,1-.771-.758,2.536,2.536,0,0,1-.77-.578l-.674-.53-.794-.77-.168-.072-.457-.433-.169-.024-.072.024a.9.9,0,0,1-.289.048.931.931,0,0,1-.313-.06q-.169-.06-.241-.782l.217-.241a1.739,1.739,0,0,1,.481-.818l.674-.072v.048a.207.207,0,0,0,.072.145h.337c.016.1.145.144.385.144a8.523,8.523,0,0,0,.963-.072v-.144a5.671,5.671,0,0,0,.866.048,5.963,5.963,0,0,0,1.3-.12l.313-.144.53-.1.674-.072.1.024.12-.048a5.023,5.023,0,0,1,.65-.168l.193-.072.217-.12h.1l.265-.193.7-.217c.16-.08.24-.144.24-.193a.26.26,0,0,0-.12-.192l-.6-.53-.242-.048-.144-.1a.9.9,0,0,0-.41-.216l-.314.009-.506-.192-.337-.009-.312-.289H2841l-.24-.024-1.372-.1-.072-.024-.1.024-.337-.072-.217.048-.746-.09-.793.129-.409-.117-.385.051-.293-.058-.38.159-.193-.073-.362.144h-.168a1.309,1.309,0,0,0-.048.29.216.216,0,0,0,.024.1v.1l-.06,1.209a1.629,1.629,0,0,0-.06.435,1.229,1.229,0,0,0,.24.726l-.24.339.1.629-.169.629a4.14,4.14,0,0,0-.144,1.088v1.113l.168,1.427.048.194-.217.919v.194q0,.628-1.541.629l.168-1.276-.1-.24-.289-1.228a.977.977,0,0,1-.073-.337,1.315,1.315,0,0,1,.12-.481.436.436,0,0,1-.144-.313,1.382,1.382,0,0,1,.217-.626,1.227,1.227,0,0,1-.072-.433v-.674a1.686,1.686,0,0,0,.241-.385,2.489,2.489,0,0,0-.241-.458l.193-.481-.073-.409.1-.1.024-.241-.241-.963.12-.433-.12-.794h-.577l-.578.65a1.685,1.685,0,0,0-.771-.589.9.9,0,0,1-.385-.688,1.151,1.151,0,0,1,.337-.712l.553-.368.867-.074h.818a.984.984,0,0,1,1.011-.554h.65l.145.409.409-.144.674.12.915-.12,1.324.168h1.805l.867.121h.866l.073.12h.241V1488l1.589.6.65.289.505.048.192.217a2.818,2.818,0,0,1,1.228,1.733l-.024.12a1.558,1.558,0,0,1-.433.794l-.987.987-.6.048-.12.048a2.586,2.586,0,0,1-.939.289l-.193.168-.746.193h-.12a.685.685,0,0,0-.385.1l-.578.505-.505-.289-.072.024-.265.144-.168-.168a.869.869,0,0,1-.241.289l-.457-.168-.434.168-.121-.1-.144.047.073.048.2.261.905.711.265.384.241.239.145.336.554.024.794.744.361.144.506.288.482.12.6.216.337-.024.289-.169.12.313.41-.072.072.144.289.072.819-.072.337.072,1.06-.193.77-.168.121-.217h.337l.458-.554a1.842,1.842,0,0,1,.578,1.011l.024.12Q2849.885,1498.107,2848.73,1498.9Z" transform="translate(-2830.556 -1487.395)" fill="#fff"/>
    </g>
  </g>
  <g id="Group_1431" data-name="Group 1431" transform="translate(66.901 4.889)">
    <g id="Group_1417" data-name="Group 1417" transform="translate(0 0.385)">
      <path id="Path_1371" data-name="Path 1371" d="M3184.576,1494.016q-.146.409-.928.65l-.782-.481-.758-.843-.244-.553-.073-.457-.1-.241a3.7,3.7,0,0,1-.318-1.4.954.954,0,0,1,.093-.361l.062-.048.062-.458-.241-.53v-1.637a2.383,2.383,0,0,0-.168-.867v-.674l-.168-.433-.048-.337-.24.12-.768.964-.671.747-.264.482-.743.819-.815.554-.1.458-.479.168-.1.265-.576.265-.191.458-.432.144-.48.771-.288.168c-.018.08-.054.232-.107.455a1.646,1.646,0,0,1-.776.191h-.146l-.242-.458-.364-.481.048-.265-.241-.337.12-.169-.024-.024-.121-.385-.192-.144a6.129,6.129,0,0,1-.722-.843l-.144-.457-.241-.265-.457-.842-.481-.53-.168-.289-.458-.481-.505-.7a.855.855,0,0,0-.241-.385,3.128,3.128,0,0,1-.313,1.276l-.433.723.121.53-.213.53-.474,1.495-.195.481-.048.313-.39.794-.342.529.049.481a5.792,5.792,0,0,1-.409.842l.145.577q-.7.7-1.059.7a.619.619,0,0,1-.578-.361.92.92,0,0,1-.217-.433v-.1q.433-1.781.578-1.781a.021.021,0,0,1,.024.024v-.409a1.045,1.045,0,0,1,.481-.939v-.144l.145-.481-.024-.168a3.051,3.051,0,0,1,.217-.674l.1-.1.024-.65.241-.409.361-1.2-.121-.746.313-.265v-.072l.048-.939.072-.409a.981.981,0,0,0,.072-.337v-.1l-.409-.77.12-.457.193-.048.168-.241-.024-.193.313-.289.217.1.288-.265.337.048.6.414v.17l.217.146.1.56.169.146.145.462-.048.1.217.171a.6.6,0,0,1,.265-.072,1.719,1.719,0,0,1,.385.313l.048.337.217.24.168.506,1.107,1.059.193.6.361.241.385.963.746,1.3c.016.016.064.072.145.168l.048.072h.241l.192-.409.577-.361a4.613,4.613,0,0,0,.554-.65c0-.016-.016-.024-.048-.024h-.024a1.144,1.144,0,0,1,.313-.169,1.054,1.054,0,0,1,.337-.216,1.143,1.143,0,0,1,.578-.554l.1-.145v-.217a2.531,2.531,0,0,1,.938-.842q0-.385.746-.7l.433-.6.145-.409h.265q.289-.481.409-.722l.337-.145h.169l-.048-.476-.217-.476.337-.5.192-.595a3.347,3.347,0,0,0,.41-.024,1.2,1.2,0,0,0,.168-.024,2.4,2.4,0,0,1,.674.241l.048.192.265.217.024.193.24.193-.121.12a.45.45,0,0,1,.313.409v.626l.313.433-.165.12-.028.12.048.024.072.385.337.265-.265.337-.121.53.121.385v.553l.217.722a2.851,2.851,0,0,1,.145.77.872.872,0,0,1-.217.458.312.312,0,0,1,.169.289.878.878,0,0,1-.169.433l.121.1-.121,1.348.313.746v.794a2.248,2.248,0,0,1,.241.481q.048.073.53.578A.977.977,0,0,1,3184.576,1494.016Z" transform="translate(-3165.006 -1481.427)" fill="#fff"/>
    </g>
    <g id="Group_1418" data-name="Group 1418" transform="translate(22.145 0)">
      <path id="Path_1372" data-name="Path 1372" d="M3381.25,1483.043a1.663,1.663,0,0,1-.336,1.011,3,3,0,0,1-1.083.265,1.019,1.019,0,0,1-.265-.048,1.106,1.106,0,0,0-.216-.048l-.626.313-.578-.048-.337.12-.168-.048-.434.241-.36-.1h-.939l-.435.12h-.072l-.169.168-.338-.12-.193.12-.531-.168-.314.168a5.156,5.156,0,0,0-.676-.144,1.7,1.7,0,0,0-.652.169l-1.087.1-.1-.12-.411.1-.024.14.214,1.2-.051.12.072.24v.313a3.941,3.941,0,0,1,.168.721l.289.288-.048.144.481.6a2.313,2.313,0,0,0,1.131.529h.049a.387.387,0,0,0,.12-.024h.1a.732.732,0,0,1,.264.072l.217-.024q.313-.072.891-.168l.265-.145.048-.1.168-.024.192-.12.121.072.385-.12.313-.193.121-.168.409-.313.313-.048.578-.433q.6-.1.867-.963l.072.024.024-.072.313-.024.457-.385.169-.024a.537.537,0,0,1,.168-.024q.456,0,.554.891l-1.059,1.252-.265.072-.1.145-.457.482-.65.385-.529.506-.169-.024-.192.193-1.083.409-.433.482-.313-.12-.121.217-.217-.072-.12.12-.794-.144-.818.337-.818-.265-1.035-.482q-1.324-.625-2.046-3.466v-.265l-.192-.553.192-.241-.12-.674-.024-.217-.409-.457v-.289a1.089,1.089,0,0,1,.385-.963.92.92,0,0,1,.265-.361l-.1-.072v-1.011l.293-.77.068-.385-.241.024h-.1a.806.806,0,0,1-.578-.229.721.721,0,0,1-.241-.541,1.261,1.261,0,0,1,.457-.819l.168-.169.217-.1a1.641,1.641,0,0,1,.6-.169h.457l.241-.409,1.083.072.072.072a3.789,3.789,0,0,1,.65-.041l.481-.1h.121a1.471,1.471,0,0,0,.6-.385l.361.217h.6l2.407-.217.241.145.336-.086.193-.227.481.313.169-.145.529.217.361-.072.193.072.77-.072.168.12.385.072q.554.1.554.53a.714.714,0,0,1-.2.505.588.588,0,0,1-.422.217h-.1l-.265.145-.481-.145-.216.024a.624.624,0,0,1-.192.024.953.953,0,0,1-.434-.1l-.072-.1a2.073,2.073,0,0,1-.313.048.783.783,0,0,1-.241-.048,2.463,2.463,0,0,1-.891.289q-.337,0-.747-.024a.658.658,0,0,1,.1-.168l-.626.193h-.048a1.465,1.465,0,0,0-.625.337l-.313-.144-.144.1-.578-.168-.337.168h-.481l-.722.145-.6.265-.168-.1-.313.217h-.313l-.072.12.072.288-.409.481.192.024,0,.673.261.292-.217.193a1.474,1.474,0,0,0-.24.553c0,.064.048.112.145.144l.289-.1a1.229,1.229,0,0,1,.241-.024,4.1,4.1,0,0,1,.53.1l.433-.169.385.072h1.18a1.063,1.063,0,0,0,.385-.168,1.271,1.271,0,0,0,.554.1,1.01,1.01,0,0,0,.168-.024h.241a.213.213,0,0,1-.1-.024h.073a8.544,8.544,0,0,1,.866.12,3.724,3.724,0,0,1,.746-.08c.257-.027.417-.04.482-.04q.361,0,.7.024l.217-.024a1.274,1.274,0,0,1,.625-.193,1.355,1.355,0,0,1,.433.072l.337-.072.289.12.963-.241Z" transform="translate(-3368.324 -1477.892)" fill="#fff"/>
    </g>
    <g id="Group_1419" data-name="Group 1419" transform="translate(35.119 0.433)">
      <path id="Path_1373" data-name="Path 1373" d="M3504.6,1491.642a1.244,1.244,0,0,1-.313.7,2.8,2.8,0,0,1-.939.794.739.739,0,0,1-.409.192,1.7,1.7,0,0,1-.843.313,1.565,1.565,0,0,1-.577.313h-.434l-.433.337-.458-.1-.145.024-.361.048a4.681,4.681,0,0,1-.6.048.987.987,0,0,1-.168-.024h-.193l-.337.12-.481.048h-.553l-.265.15.072.09q-.554,0-.866.024l-.121-.024-.987-.09-1.4-.06-.457-.09a.891.891,0,0,1-.506.144,1.359,1.359,0,0,1-.7-.217l-.457.169-.241-.217a2.313,2.313,0,0,1-1.179-.192l-.1-.048a2.724,2.724,0,0,1-.409.048l-.939-.626-.433-.1a1.641,1.641,0,0,1-.7-.674,1.564,1.564,0,0,1-.241-.794,3.393,3.393,0,0,1,.241-.939l.481-.53.578.024a.642.642,0,0,1,.553-.265q.771,0,.771,1.244a2.272,2.272,0,0,0-.6.195,1.872,1.872,0,0,1-.361.317v.073l.217.114.289.3.938-.048.794.241,1.252-.024.458.313.217-.145a.974.974,0,0,1,.361.092l.626.092.048.153h.385a4.269,4.269,0,0,1,.626-.193h2.118l.53-.136.264-.273.915.1a3.98,3.98,0,0,1,1.107-.217h.12a.528.528,0,0,1,.289-.12.389.389,0,0,1,.168.048l.241-.1v-.193h.505a.781.781,0,0,1,.6-.24,1.126,1.126,0,0,1,.554-.337l.193-.289q0-.217-1.541-.939l-.192-.145a2.808,2.808,0,0,1-.794-.168,1.9,1.9,0,0,1-.313-.024h-.048a5.824,5.824,0,0,1-.939-.289.929.929,0,0,0-.554-.193,1.343,1.343,0,0,0-.289.048h-.481l-.073-.072a1.63,1.63,0,0,1-.6-.217l-.289.1-.746-.361h-.481l-.313-.193h-.481l-.072-.12h-.385l-.337-.385h-.169a2,2,0,0,1-1.156-.286l-.048-.047a1.386,1.386,0,0,1-.77-.525l-.409-.381-.265-.62-.289-.381.12-.978.577-.667q.145-.024.217-.31a1.569,1.569,0,0,0,.241-.12l1.228-.667h.337a1.265,1.265,0,0,0,.7-.241h.145v.048l.24-.217h.121a3.8,3.8,0,0,1,1.276-.289h.12l.217.024.361-.217a2.43,2.43,0,0,1,.385-.024h.145c.112,0,.309-.016.59-.048s.5-.056.662-.072l.434-.024.649-.337a2.2,2.2,0,0,1,.313.361h.53a2.192,2.192,0,0,1,.529.12h.169a1.774,1.774,0,0,1,.963.243q1.275.316,1.276,1.288,0,.827-1.324,1l-.193-.289c-.048-.016-.132-.048-.252-.1a2.411,2.411,0,0,0-.277-.1h-.53l-.24-.265-.385.048-.217.241-.578-.409-.626.1-.746-.168a3.114,3.114,0,0,0-1.18.289l-.048.024a.974.974,0,0,1-.157.084.4.4,0,0,1-.108.036l-.337-.145-.674.313-1.252.337-.289-.072-.529.337h-.241l-.145.217-.506.337.048.144.265.265.241.072.385.241.746.265.361.024.65.385.192-.072a1.93,1.93,0,0,1,.939.385l.072.072h.048l.482.289.168-.168.578.072h.433l.337.265h.169a2.467,2.467,0,0,1,.722.1h.24a1.638,1.638,0,0,1,.963.409l.289-.1.217.1h.409l.7.481.722.072.289.385a3.638,3.638,0,0,1,1.071.879,1.9,1.9,0,0,1,.253,1.071.644.644,0,0,0,.025.144Z" transform="translate(-3487.44 -1481.869)" fill="#fff"/>
    </g>
  </g>
</svg>
